G04 #@! TF.GenerationSoftware,KiCad,Pcbnew,7.0.2-6a45011f42~172~ubuntu20.04.1*
G04 #@! TF.CreationDate,2023-05-13T12:04:57+10:00*
G04 #@! TF.ProjectId,pcb_redesign,7063625f-7265-4646-9573-69676e2e6b69,rev?*
G04 #@! TF.SameCoordinates,Original*
G04 #@! TF.FileFunction,Copper,L1,Top*
G04 #@! TF.FilePolarity,Positive*
%FSLAX46Y46*%
G04 Gerber Fmt 4.6, Leading zero omitted, Abs format (unit mm)*
G04 Created by KiCad (PCBNEW 7.0.2-6a45011f42~172~ubuntu20.04.1) date 2023-05-13 12:04:57*
%MOMM*%
%LPD*%
G01*
G04 APERTURE LIST*
G04 Aperture macros list*
%AMRoundRect*
0 Rectangle with rounded corners*
0 $1 Rounding radius*
0 $2 $3 $4 $5 $6 $7 $8 $9 X,Y pos of 4 corners*
0 Add a 4 corners polygon primitive as box body*
4,1,4,$2,$3,$4,$5,$6,$7,$8,$9,$2,$3,0*
0 Add four circle primitives for the rounded corners*
1,1,$1+$1,$2,$3*
1,1,$1+$1,$4,$5*
1,1,$1+$1,$6,$7*
1,1,$1+$1,$8,$9*
0 Add four rect primitives between the rounded corners*
20,1,$1+$1,$2,$3,$4,$5,0*
20,1,$1+$1,$4,$5,$6,$7,0*
20,1,$1+$1,$6,$7,$8,$9,0*
20,1,$1+$1,$8,$9,$2,$3,0*%
G04 Aperture macros list end*
G04 #@! TA.AperFunction,SMDPad,CuDef*
%ADD10R,0.560000X0.350000*%
G04 #@! TD*
G04 #@! TA.AperFunction,SMDPad,CuDef*
%ADD11R,0.200000X1.600000*%
G04 #@! TD*
G04 #@! TA.AperFunction,SMDPad,CuDef*
%ADD12R,0.900000X0.970000*%
G04 #@! TD*
G04 #@! TA.AperFunction,SMDPad,CuDef*
%ADD13R,0.940000X1.020000*%
G04 #@! TD*
G04 #@! TA.AperFunction,SMDPad,CuDef*
%ADD14R,0.870000X0.930000*%
G04 #@! TD*
G04 #@! TA.AperFunction,SMDPad,CuDef*
%ADD15R,0.900000X1.500000*%
G04 #@! TD*
G04 #@! TA.AperFunction,SMDPad,CuDef*
%ADD16R,1.500000X0.900000*%
G04 #@! TD*
G04 #@! TA.AperFunction,SMDPad,CuDef*
%ADD17R,0.900000X0.900000*%
G04 #@! TD*
G04 #@! TA.AperFunction,SMDPad,CuDef*
%ADD18R,0.970000X0.930000*%
G04 #@! TD*
G04 #@! TA.AperFunction,SMDPad,CuDef*
%ADD19R,0.790000X0.930000*%
G04 #@! TD*
G04 #@! TA.AperFunction,SMDPad,CuDef*
%ADD20R,0.930000X0.970000*%
G04 #@! TD*
G04 #@! TA.AperFunction,SMDPad,CuDef*
%ADD21R,0.930000X0.790000*%
G04 #@! TD*
G04 #@! TA.AperFunction,SMDPad,CuDef*
%ADD22R,1.000000X1.500000*%
G04 #@! TD*
G04 #@! TA.AperFunction,SMDPad,CuDef*
%ADD23RoundRect,0.225000X0.250000X-0.225000X0.250000X0.225000X-0.250000X0.225000X-0.250000X-0.225000X0*%
G04 #@! TD*
G04 #@! TA.AperFunction,SMDPad,CuDef*
%ADD24R,0.950000X1.750000*%
G04 #@! TD*
G04 #@! TA.AperFunction,SMDPad,CuDef*
%ADD25R,3.200000X1.750000*%
G04 #@! TD*
G04 #@! TA.AperFunction,SMDPad,CuDef*
%ADD26RoundRect,0.225000X-0.225000X-0.250000X0.225000X-0.250000X0.225000X0.250000X-0.225000X0.250000X0*%
G04 #@! TD*
G04 #@! TA.AperFunction,SMDPad,CuDef*
%ADD27R,1.350000X0.400000*%
G04 #@! TD*
G04 #@! TA.AperFunction,SMDPad,CuDef*
%ADD28R,1.600000X2.100000*%
G04 #@! TD*
G04 #@! TA.AperFunction,SMDPad,CuDef*
%ADD29R,1.900000X1.800000*%
G04 #@! TD*
G04 #@! TA.AperFunction,SMDPad,CuDef*
%ADD30R,1.900000X1.900000*%
G04 #@! TD*
G04 #@! TA.AperFunction,SMDPad,CuDef*
%ADD31RoundRect,0.243750X-0.243750X-0.456250X0.243750X-0.456250X0.243750X0.456250X-0.243750X0.456250X0*%
G04 #@! TD*
G04 #@! TA.AperFunction,ViaPad*
%ADD32C,0.800000*%
G04 #@! TD*
G04 #@! TA.AperFunction,Conductor*
%ADD33C,0.300000*%
G04 #@! TD*
G04 #@! TA.AperFunction,Conductor*
%ADD34C,0.250000*%
G04 #@! TD*
G04 #@! TA.AperFunction,Conductor*
%ADD35C,0.500000*%
G04 #@! TD*
G04 APERTURE END LIST*
D10*
X139685000Y-72950000D03*
X139685000Y-72450000D03*
X139685000Y-71950000D03*
X139685000Y-71450000D03*
X137215000Y-71450000D03*
X137215000Y-71950000D03*
X137215000Y-72450000D03*
X137215000Y-72950000D03*
D11*
X138450000Y-72200000D03*
D12*
X114890000Y-79400000D03*
X116410000Y-79400000D03*
D13*
X139040000Y-59200000D03*
X137460000Y-59200000D03*
D14*
X113280000Y-79000000D03*
X111720000Y-79000000D03*
D15*
X113880000Y-76650000D03*
X115150000Y-76650000D03*
X116420000Y-76650000D03*
X117690000Y-76650000D03*
X118960000Y-76650000D03*
X120230000Y-76650000D03*
X121500000Y-76650000D03*
X122770000Y-76650000D03*
X124040000Y-76650000D03*
X125310000Y-76650000D03*
X126580000Y-76650000D03*
X127850000Y-76650000D03*
X129120000Y-76650000D03*
X130390000Y-76650000D03*
D16*
X131640000Y-74885000D03*
X131640000Y-73615000D03*
X131640000Y-72345000D03*
X131640000Y-71075000D03*
X131640000Y-69805000D03*
X131640000Y-68535000D03*
X131640000Y-67265000D03*
X131640000Y-65995000D03*
X131640000Y-64725000D03*
X131640000Y-63455000D03*
X131640000Y-62185000D03*
X131640000Y-60915000D03*
D15*
X130390000Y-59150000D03*
X129120000Y-59150000D03*
X127850000Y-59150000D03*
X126580000Y-59150000D03*
X125310000Y-59150000D03*
X124040000Y-59150000D03*
X122770000Y-59150000D03*
X121500000Y-59150000D03*
X120230000Y-59150000D03*
X118960000Y-59150000D03*
X117690000Y-59150000D03*
X116420000Y-59150000D03*
X115150000Y-59150000D03*
X113880000Y-59150000D03*
D17*
X120200000Y-70800000D03*
X121600000Y-70800000D03*
X123000000Y-70800000D03*
X120200000Y-69400000D03*
X121600000Y-69400000D03*
X123000000Y-69400000D03*
X120200000Y-68000000D03*
X121600000Y-68000000D03*
X123000000Y-68000000D03*
D18*
X137570000Y-80000000D03*
X138930000Y-80000000D03*
D19*
X137430000Y-81600000D03*
X139070000Y-81600000D03*
D20*
X134450000Y-74120000D03*
X134450000Y-75480000D03*
D21*
X134450000Y-70980000D03*
X134450000Y-72620000D03*
D22*
X140300000Y-75000000D03*
X139000000Y-75000000D03*
D23*
X142450000Y-73200000D03*
X142450000Y-71650000D03*
D10*
X141685000Y-78550000D03*
X141685000Y-78050000D03*
X141685000Y-77550000D03*
X141685000Y-77050000D03*
X139215000Y-77050000D03*
X139215000Y-77550000D03*
X139215000Y-78050000D03*
X139215000Y-78550000D03*
D11*
X140450000Y-77800000D03*
D23*
X145450000Y-79825000D03*
X145450000Y-81375000D03*
D14*
X137450000Y-65530000D03*
X139010000Y-65530000D03*
D24*
X141950000Y-65550000D03*
X144250000Y-65550000D03*
X146550000Y-65550000D03*
D25*
X144250000Y-59250000D03*
D26*
X146075000Y-71200000D03*
X147625000Y-71200000D03*
D22*
X147400000Y-79200000D03*
X148700000Y-79200000D03*
D27*
X149950000Y-73750000D03*
X149950000Y-73100000D03*
X149950000Y-72450000D03*
X149950000Y-71800000D03*
X149950000Y-71150000D03*
D28*
X150075000Y-75550000D03*
X150075000Y-69350000D03*
D29*
X152625000Y-76250000D03*
D30*
X152625000Y-73650000D03*
X152625000Y-71250000D03*
D29*
X152625000Y-68650000D03*
D31*
X137312500Y-61200000D03*
X139187500Y-61200000D03*
D26*
X118499700Y-78600000D03*
X120049700Y-78600000D03*
X108725000Y-79000000D03*
X110275000Y-79000000D03*
D14*
X137450000Y-63050000D03*
X139010000Y-63050000D03*
D22*
X126650000Y-79200000D03*
X125350000Y-79200000D03*
D18*
X119930000Y-80200000D03*
X118570000Y-80200000D03*
D14*
X146055000Y-73795000D03*
X147615000Y-73795000D03*
D32*
X143050000Y-74800000D03*
X138450000Y-70000000D03*
X144250000Y-71600000D03*
X117050000Y-65800000D03*
X134250000Y-68400000D03*
X119050000Y-65000000D03*
X137850000Y-67400000D03*
X121450000Y-74800000D03*
X136250000Y-76600000D03*
X124050000Y-73400000D03*
X134250000Y-77600000D03*
X148850000Y-82400000D03*
X143250000Y-79600000D03*
X146850000Y-83800000D03*
X144650000Y-83800000D03*
X141850000Y-67800000D03*
X135450000Y-63000000D03*
X108800000Y-81000000D03*
X122250000Y-78800000D03*
X118000000Y-69500000D03*
X151250000Y-78200000D03*
X150450000Y-59100000D03*
X125850000Y-74600000D03*
X128450000Y-70600000D03*
X150250000Y-62000000D03*
X148050000Y-59200000D03*
X134550000Y-59700000D03*
X143450000Y-69200000D03*
X112000000Y-82500000D03*
D33*
X110274700Y-79000000D02*
X111720000Y-79000000D01*
X110274700Y-80774700D02*
X110274700Y-79000000D01*
X112000000Y-82500000D02*
X110274700Y-80774700D01*
D34*
X128450000Y-70600000D02*
X128450000Y-74200000D01*
X128450000Y-74200000D02*
X130440000Y-76190000D01*
X124050000Y-73400000D02*
X120250000Y-73400000D01*
X120250000Y-73400000D02*
X117690000Y-75960000D01*
X117690000Y-75960000D02*
X117690000Y-76650000D01*
X143050000Y-74800000D02*
X142850000Y-75000000D01*
X142850000Y-75000000D02*
X140300000Y-75000000D01*
X139685000Y-72950000D02*
X139685000Y-73165000D01*
X139685000Y-73165000D02*
X139000000Y-73850000D01*
X139000000Y-73850000D02*
X139000000Y-75000000D01*
X134450000Y-75480000D02*
X135870000Y-75480000D01*
X135870000Y-75480000D02*
X138450000Y-72900000D01*
X138450000Y-72900000D02*
X138450000Y-72200000D01*
X146055000Y-73795000D02*
X145660000Y-73400000D01*
X145660000Y-73400000D02*
X142650000Y-73400000D01*
X142650000Y-73400000D02*
X142450000Y-73200000D01*
X145450000Y-81375000D02*
X145450000Y-83000000D01*
X145450000Y-83000000D02*
X144650000Y-83800000D01*
X138930000Y-80000000D02*
X140450000Y-80000000D01*
X140450000Y-80000000D02*
X141450000Y-80000000D01*
X140450000Y-77800000D02*
X140450000Y-80000000D01*
X140450000Y-77800000D02*
X140700000Y-78050000D01*
X140700000Y-78050000D02*
X141685000Y-78050000D01*
X138450000Y-72200000D02*
X138700000Y-72450000D01*
X138700000Y-72450000D02*
X139685000Y-72450000D01*
X135850000Y-71115000D02*
X135850000Y-69600000D01*
X136685000Y-71950000D02*
X135850000Y-71115000D01*
X137215000Y-71950000D02*
X136685000Y-71950000D01*
X135850000Y-69600000D02*
X134650000Y-68400000D01*
X134650000Y-68400000D02*
X134250000Y-68400000D01*
X137215000Y-71450000D02*
X137215000Y-68035000D01*
X137215000Y-68035000D02*
X137850000Y-67400000D01*
X138450000Y-70000000D02*
X139685000Y-71235000D01*
X139685000Y-71235000D02*
X139685000Y-71450000D01*
X139685000Y-72450000D02*
X141700000Y-72450000D01*
X134450000Y-70980000D02*
X135920000Y-72450000D01*
X137015000Y-73150000D02*
X137215000Y-72950000D01*
X141700000Y-72450000D02*
X142450000Y-73200000D01*
X142150000Y-71950000D02*
X142450000Y-71650000D01*
X139685000Y-71950000D02*
X142150000Y-71950000D01*
X135920000Y-72450000D02*
X137215000Y-72450000D01*
X134450000Y-72620000D02*
X134980000Y-73150000D01*
X134980000Y-73150000D02*
X137015000Y-73150000D01*
X144200000Y-71650000D02*
X144250000Y-71600000D01*
X142450000Y-71650000D02*
X144200000Y-71650000D01*
X134450000Y-74120000D02*
X134450000Y-72620000D01*
X115150000Y-63900000D02*
X115150000Y-59150000D01*
X117050000Y-65800000D02*
X115150000Y-63900000D01*
X119050000Y-65000000D02*
X119050000Y-62400000D01*
X119050000Y-62400000D02*
X116420000Y-59770000D01*
X116420000Y-59770000D02*
X116420000Y-59150000D01*
X134250000Y-77600000D02*
X134300000Y-77550000D01*
X134300000Y-77550000D02*
X139215000Y-77550000D01*
D35*
X147625000Y-71200000D02*
X146550000Y-70125000D01*
X146550000Y-70125000D02*
X146550000Y-65550000D01*
X147615000Y-73795000D02*
X147615000Y-71210000D01*
X147615000Y-71210000D02*
X147625000Y-71200000D01*
D34*
X146055000Y-73795000D02*
X146055000Y-71220000D01*
X146055000Y-71220000D02*
X146075000Y-71200000D01*
X139070000Y-81500000D02*
X139070000Y-81600000D01*
X137430000Y-81600000D02*
X136250000Y-80420000D01*
X136250000Y-80420000D02*
X136250000Y-79400000D01*
X137570000Y-80000000D02*
X139070000Y-81500000D01*
X136250000Y-79400000D02*
X137600000Y-78050000D01*
X137600000Y-78050000D02*
X139215000Y-78050000D01*
X121450000Y-74800000D02*
X119810000Y-74800000D01*
X119810000Y-74800000D02*
X118960000Y-75650000D01*
X118960000Y-75650000D02*
X118960000Y-76650000D01*
X136700000Y-77050000D02*
X136250000Y-76600000D01*
X139215000Y-77050000D02*
X136700000Y-77050000D01*
X148850000Y-82400000D02*
X148700000Y-82250000D01*
X148700000Y-82250000D02*
X148700000Y-79200000D01*
X141685000Y-78550000D02*
X142200000Y-78550000D01*
X142200000Y-78550000D02*
X143250000Y-79600000D01*
X141450000Y-80000000D02*
X142825000Y-81375000D01*
X142825000Y-81375000D02*
X145450000Y-81375000D01*
X145450000Y-80000000D02*
X146850000Y-81400000D01*
X145450000Y-79825000D02*
X145450000Y-80000000D01*
X146850000Y-81400000D02*
X146850000Y-83800000D01*
X145450000Y-79825000D02*
X145450000Y-79400000D01*
X145450000Y-79400000D02*
X143600000Y-77550000D01*
X143600000Y-77550000D02*
X141685000Y-77550000D01*
X147400000Y-79200000D02*
X145250000Y-77050000D01*
X145250000Y-77050000D02*
X141685000Y-77050000D01*
X139215000Y-78550000D02*
X139020000Y-78550000D01*
X139020000Y-78550000D02*
X137570000Y-80000000D01*
X137420000Y-65500000D02*
X137450000Y-65530000D01*
D33*
X108725300Y-80925300D02*
X108800000Y-81000000D01*
D34*
X135930000Y-65500000D02*
X137420000Y-65500000D01*
X113880000Y-76650000D02*
X113880000Y-78400000D01*
D33*
X122050000Y-79000000D02*
X120049400Y-79000000D01*
D34*
X147810000Y-75550000D02*
X146055000Y-73795000D01*
X150075000Y-75550000D02*
X147810000Y-75550000D01*
X141918600Y-67731400D02*
X141918600Y-66063900D01*
X149950000Y-71150000D02*
X149950000Y-69475000D01*
D33*
X108725300Y-79000000D02*
X108725300Y-80925300D01*
D34*
X141850000Y-67800000D02*
X141918600Y-67731400D01*
X113880000Y-78400000D02*
X113280000Y-79000000D01*
X149950000Y-69475000D02*
X150075000Y-69350000D01*
D33*
X122250000Y-78800000D02*
X122050000Y-79000000D01*
D34*
X137460000Y-59400000D02*
X137460000Y-59472500D01*
X137460000Y-59472500D02*
X139187500Y-61200000D01*
D33*
X126580000Y-78580000D02*
X127000000Y-79000000D01*
X126580000Y-76650000D02*
X126580000Y-78580000D01*
X125310000Y-76650000D02*
X125310000Y-78610000D01*
X125310000Y-78610000D02*
X125700000Y-79000000D01*
D34*
X150450000Y-59100000D02*
X148600000Y-60950000D01*
X149253564Y-73094250D02*
X149500000Y-73094250D01*
X148600000Y-60950000D02*
X148600000Y-72440686D01*
X129120000Y-76170000D02*
X129120000Y-76650000D01*
X127550000Y-74600000D02*
X129120000Y-76170000D01*
X125850000Y-74600000D02*
X127550000Y-74600000D01*
X148600000Y-72440686D02*
X149253564Y-73094250D01*
X149000000Y-68025000D02*
X149000000Y-72275000D01*
X149000000Y-72275000D02*
X149169250Y-72444250D01*
X150250000Y-66775000D02*
X149000000Y-68025000D01*
X149169250Y-72444250D02*
X149500000Y-72444250D01*
X150250000Y-62000000D02*
X150250000Y-66775000D01*
D35*
X149950000Y-73750000D02*
X147660000Y-73750000D01*
X147660000Y-73750000D02*
X147615000Y-73795000D01*
D33*
X118500000Y-80180000D02*
X118500000Y-79300000D01*
X116420000Y-77920000D02*
X116420000Y-76650000D01*
X118500000Y-79300000D02*
X118500000Y-78600300D01*
X118570000Y-80250000D02*
X118500000Y-80180000D01*
X117800000Y-79300000D02*
X116420000Y-77920000D01*
X118500000Y-78600300D02*
X118499700Y-78600000D01*
X118500000Y-79300000D02*
X117800000Y-79300000D01*
D35*
X144250000Y-59236100D02*
X148013900Y-59236100D01*
D34*
X138550000Y-57900000D02*
X136350000Y-57900000D01*
X114640000Y-79860000D02*
X114640000Y-79400000D01*
X139040000Y-58390000D02*
X138550000Y-57900000D01*
X139040000Y-59400000D02*
X140250000Y-59400000D01*
X140250000Y-61810000D02*
X140250000Y-59400000D01*
X112000000Y-82500000D02*
X114640000Y-79860000D01*
X139010000Y-63050000D02*
X139010000Y-65530000D01*
X139050000Y-65570000D02*
X139010000Y-65530000D01*
X143450000Y-68000000D02*
X143450000Y-69200000D01*
X143450000Y-69200000D02*
X141250000Y-69200000D01*
X139010000Y-63050000D02*
X140250000Y-61810000D01*
X139050000Y-67000000D02*
X139050000Y-65570000D01*
D35*
X148013900Y-59236100D02*
X148050000Y-59200000D01*
D34*
X144230000Y-67220000D02*
X144230000Y-66063900D01*
X139040000Y-59200000D02*
X139040000Y-58390000D01*
X136350000Y-57900000D02*
X134550000Y-59700000D01*
X144230000Y-67220000D02*
X143450000Y-68000000D01*
X141250000Y-69200000D02*
X139050000Y-67000000D01*
D33*
X115150000Y-76650000D02*
X115150000Y-77900000D01*
X115150000Y-77900000D02*
X116160000Y-78910000D01*
X116160000Y-78910000D02*
X116160000Y-80310000D01*
X119930000Y-80720000D02*
X119930000Y-79800000D01*
X116160000Y-80310000D02*
X117050000Y-81200000D01*
X117050000Y-81200000D02*
X119450000Y-81200000D01*
X119450000Y-81200000D02*
X119930000Y-80720000D01*
G04 #@! TA.AperFunction,Conductor*
G36*
X114134539Y-58519685D02*
G01*
X114180294Y-58572489D01*
X114191500Y-58623999D01*
X114191500Y-59948638D01*
X114191852Y-59951918D01*
X114191853Y-59951924D01*
X114198011Y-60009205D01*
X114249110Y-60146203D01*
X114336738Y-60263261D01*
X114460026Y-60355553D01*
X114501898Y-60411486D01*
X114509688Y-60452163D01*
X114516471Y-60768651D01*
X114516499Y-60771308D01*
X114516499Y-63816367D01*
X114514210Y-63837107D01*
X114516439Y-63908016D01*
X114516500Y-63911912D01*
X114516500Y-63939856D01*
X114516987Y-63943716D01*
X114516988Y-63943722D01*
X114517019Y-63943965D01*
X114517934Y-63955596D01*
X114519326Y-63999888D01*
X114525022Y-64019492D01*
X114528967Y-64038544D01*
X114531525Y-64058798D01*
X114547838Y-64100001D01*
X114551621Y-64111049D01*
X114563982Y-64153593D01*
X114573403Y-64169524D01*
X114590641Y-64229985D01*
X114639362Y-66503560D01*
X114650000Y-67000000D01*
X123877340Y-67000000D01*
X123944379Y-67019685D01*
X123990134Y-67072489D01*
X124001333Y-67122652D01*
X124048666Y-71477290D01*
X124029711Y-71544540D01*
X123977407Y-71590866D01*
X123927311Y-71602610D01*
X114650000Y-71800000D01*
X114557164Y-75327707D01*
X114535723Y-75394206D01*
X114481733Y-75438555D01*
X114476543Y-75440626D01*
X114453796Y-75449110D01*
X114336737Y-75536740D01*
X114249110Y-75653796D01*
X114198011Y-75790794D01*
X114191853Y-75848075D01*
X114191500Y-75851362D01*
X114191500Y-75854671D01*
X114191500Y-77376000D01*
X114171815Y-77443039D01*
X114119011Y-77488794D01*
X114067500Y-77500000D01*
X113624000Y-77500000D01*
X113556961Y-77480315D01*
X113511206Y-77427511D01*
X113500000Y-77376000D01*
X113500000Y-76000000D01*
X113499968Y-75998372D01*
X113263158Y-66999999D01*
X113250093Y-66503536D01*
X113250110Y-66496450D01*
X113496246Y-58620126D01*
X113518014Y-58553735D01*
X113572222Y-58509652D01*
X113620185Y-58500000D01*
X114067500Y-58500000D01*
X114134539Y-58519685D01*
G37*
G04 #@! TD.AperFunction*
G04 #@! TA.AperFunction,Conductor*
G36*
X136656024Y-60121369D02*
G01*
X136721932Y-60144549D01*
X136723813Y-60145930D01*
X136743796Y-60160889D01*
X136880794Y-60211988D01*
X136880797Y-60211988D01*
X136880799Y-60211989D01*
X136941362Y-60218500D01*
X137258734Y-60218500D01*
X137325773Y-60238185D01*
X137346415Y-60254819D01*
X138125760Y-61034165D01*
X138159245Y-61095488D01*
X138162068Y-61120220D01*
X138176567Y-62225809D01*
X138157764Y-62293101D01*
X138151847Y-62301743D01*
X138124110Y-62338796D01*
X138073011Y-62475794D01*
X138066853Y-62533075D01*
X138066500Y-62536362D01*
X138066500Y-63563638D01*
X138066852Y-63566918D01*
X138066853Y-63566924D01*
X138073011Y-63624205D01*
X138124110Y-63761203D01*
X138173805Y-63827588D01*
X138198222Y-63893052D01*
X138198527Y-63900272D01*
X138208531Y-64663110D01*
X138189728Y-64730402D01*
X138183810Y-64739045D01*
X138124110Y-64818796D01*
X138073011Y-64955794D01*
X138066853Y-65013075D01*
X138066500Y-65016362D01*
X138066500Y-66043638D01*
X138066852Y-66046918D01*
X138066853Y-66046924D01*
X138073011Y-66104201D01*
X138083628Y-66132666D01*
X138088612Y-66202358D01*
X138055128Y-66263681D01*
X137993805Y-66297166D01*
X137967446Y-66300000D01*
X135979997Y-66300000D01*
X135418991Y-66380121D01*
X135349842Y-66370113D01*
X135297081Y-66324308D01*
X135277477Y-66259420D01*
X135273958Y-66046924D01*
X135250000Y-64600000D01*
X134177397Y-64600000D01*
X134110358Y-64580315D01*
X134064603Y-64527511D01*
X134053442Y-64472650D01*
X134144048Y-61120220D01*
X134146739Y-61020649D01*
X134168228Y-60954167D01*
X134222249Y-60909855D01*
X134270694Y-60900000D01*
X136250000Y-60900000D01*
X136250000Y-60230698D01*
X136269685Y-60163659D01*
X136322489Y-60117904D01*
X136380515Y-60106869D01*
X136656024Y-60121369D01*
G37*
G04 #@! TD.AperFunction*
G04 #@! TA.AperFunction,Conductor*
G36*
X153394324Y-67719685D02*
G01*
X153440079Y-67772489D01*
X153451278Y-67822708D01*
X153549615Y-77263070D01*
X153530630Y-77330311D01*
X153530116Y-77331122D01*
X151359305Y-80728912D01*
X151306624Y-80774808D01*
X151237492Y-80784937D01*
X151173859Y-80756082D01*
X151147702Y-80724632D01*
X149166891Y-77328955D01*
X149150000Y-77266475D01*
X149150000Y-74632500D01*
X149169685Y-74565461D01*
X149222489Y-74519706D01*
X149274000Y-74508500D01*
X149990582Y-74508500D01*
X149994180Y-74508500D01*
X150059731Y-74500838D01*
X150074128Y-74500000D01*
X150950000Y-74500000D01*
X150952592Y-74398882D01*
X150973988Y-74332372D01*
X150978186Y-74327992D01*
X150977576Y-74327535D01*
X151017608Y-74274058D01*
X151075889Y-74196204D01*
X151126989Y-74059201D01*
X151133500Y-73998638D01*
X151133500Y-73501362D01*
X151133145Y-73498059D01*
X151126716Y-73438256D01*
X151126716Y-73411744D01*
X151133145Y-73351940D01*
X151133144Y-73351940D01*
X151133500Y-73348638D01*
X151133500Y-72851362D01*
X151126989Y-72790799D01*
X151126716Y-72788256D01*
X151126716Y-72761744D01*
X151133145Y-72701940D01*
X151133144Y-72701940D01*
X151133500Y-72698638D01*
X151133500Y-72201362D01*
X151126989Y-72140799D01*
X151126716Y-72138256D01*
X151126716Y-72111744D01*
X151133145Y-72051940D01*
X151133144Y-72051940D01*
X151133500Y-72048638D01*
X151133500Y-71551362D01*
X151126989Y-71490799D01*
X151126988Y-71490797D01*
X151126988Y-71490794D01*
X151075890Y-71353798D01*
X151075889Y-71353796D01*
X151057963Y-71329850D01*
X151033547Y-71264387D01*
X151033272Y-71252377D01*
X151050000Y-70600000D01*
X149757500Y-70600000D01*
X149690461Y-70580315D01*
X149644706Y-70527511D01*
X149633500Y-70476000D01*
X149633500Y-68338766D01*
X149653185Y-68271727D01*
X149669819Y-68251085D01*
X150184586Y-67736319D01*
X150245909Y-67702834D01*
X150272267Y-67700000D01*
X153327285Y-67700000D01*
X153394324Y-67719685D01*
G37*
G04 #@! TD.AperFunction*
M02*
