G04 #@! TF.GenerationSoftware,KiCad,Pcbnew,7.0.2-6a45011f42~172~ubuntu20.04.1*
G04 #@! TF.CreationDate,2023-05-13T12:04:57+10:00*
G04 #@! TF.ProjectId,pcb_redesign,7063625f-7265-4646-9573-69676e2e6b69,rev?*
G04 #@! TF.SameCoordinates,Original*
G04 #@! TF.FileFunction,Copper,L2,Inr*
G04 #@! TF.FilePolarity,Positive*
%FSLAX46Y46*%
G04 Gerber Fmt 4.6, Leading zero omitted, Abs format (unit mm)*
G04 Created by KiCad (PCBNEW 7.0.2-6a45011f42~172~ubuntu20.04.1) date 2023-05-13 12:04:57*
%MOMM*%
%LPD*%
G01*
G04 APERTURE LIST*
G04 #@! TA.AperFunction,ViaPad*
%ADD10C,0.800000*%
G04 #@! TD*
G04 APERTURE END LIST*
D10*
X143050000Y-74800000D03*
X138450000Y-70000000D03*
X144250000Y-71600000D03*
X117050000Y-65800000D03*
X134250000Y-68400000D03*
X119050000Y-65000000D03*
X137850000Y-67400000D03*
X121450000Y-74800000D03*
X136250000Y-76600000D03*
X124050000Y-73400000D03*
X134250000Y-77600000D03*
X148850000Y-82400000D03*
X143250000Y-79600000D03*
X146850000Y-83800000D03*
X144650000Y-83800000D03*
X141850000Y-67800000D03*
X135450000Y-63000000D03*
X108800000Y-81000000D03*
X122250000Y-78800000D03*
X118000000Y-69500000D03*
X151250000Y-78200000D03*
X150450000Y-59100000D03*
X125850000Y-74600000D03*
X128450000Y-70600000D03*
X150250000Y-62000000D03*
X148050000Y-59200000D03*
X134550000Y-59700000D03*
X143450000Y-69200000D03*
X112000000Y-82500000D03*
G04 #@! TA.AperFunction,Conductor*
G36*
X153376320Y-56499682D02*
G01*
X153443307Y-56519539D01*
X153488926Y-56572460D01*
X153500000Y-56623682D01*
X153500000Y-85874659D01*
X153480315Y-85941698D01*
X153427511Y-85987453D01*
X153374667Y-85998652D01*
X107122667Y-85501319D01*
X107055843Y-85480915D01*
X107010658Y-85427622D01*
X107000000Y-85377326D01*
X107000000Y-83799999D01*
X145936496Y-83799999D01*
X145956458Y-83989929D01*
X146015472Y-84171556D01*
X146110957Y-84336941D01*
X146110960Y-84336944D01*
X146238747Y-84478866D01*
X146393248Y-84591118D01*
X146567714Y-84668795D01*
X146754511Y-84708500D01*
X146754513Y-84708500D01*
X146945489Y-84708500D01*
X147132285Y-84668795D01*
X147132286Y-84668794D01*
X147132288Y-84668794D01*
X147306752Y-84591118D01*
X147461253Y-84478866D01*
X147589040Y-84336944D01*
X147684527Y-84171556D01*
X147743542Y-83989928D01*
X147763504Y-83800000D01*
X147743542Y-83610072D01*
X147684527Y-83428444D01*
X147684527Y-83428443D01*
X147589042Y-83263058D01*
X147569442Y-83241291D01*
X147461253Y-83121134D01*
X147306752Y-83008882D01*
X147306751Y-83008881D01*
X147132285Y-82931204D01*
X146945489Y-82891500D01*
X146945487Y-82891500D01*
X146754513Y-82891500D01*
X146754511Y-82891500D01*
X146567714Y-82931204D01*
X146393248Y-83008881D01*
X146238748Y-83121133D01*
X146110957Y-83263058D01*
X146015472Y-83428443D01*
X145956458Y-83610070D01*
X145936496Y-83799999D01*
X107000000Y-83799999D01*
X107000000Y-82500000D01*
X111086496Y-82500000D01*
X111106458Y-82689929D01*
X111165472Y-82871556D01*
X111260957Y-83036941D01*
X111260960Y-83036944D01*
X111388747Y-83178866D01*
X111504624Y-83263056D01*
X111543248Y-83291118D01*
X111717714Y-83368795D01*
X111904511Y-83408500D01*
X111904513Y-83408500D01*
X112095489Y-83408500D01*
X112282285Y-83368795D01*
X112282286Y-83368794D01*
X112282288Y-83368794D01*
X112456752Y-83291118D01*
X112611253Y-83178866D01*
X112739040Y-83036944D01*
X112834527Y-82871556D01*
X112893542Y-82689928D01*
X112913504Y-82500000D01*
X112902994Y-82399999D01*
X147936496Y-82399999D01*
X147956458Y-82589929D01*
X148015472Y-82771556D01*
X148110957Y-82936941D01*
X148110960Y-82936944D01*
X148238747Y-83078866D01*
X148296924Y-83121134D01*
X148393248Y-83191118D01*
X148567714Y-83268795D01*
X148754511Y-83308500D01*
X148754513Y-83308500D01*
X148945489Y-83308500D01*
X149132285Y-83268795D01*
X149132286Y-83268794D01*
X149132288Y-83268794D01*
X149306752Y-83191118D01*
X149461253Y-83078866D01*
X149589040Y-82936944D01*
X149684527Y-82771556D01*
X149743542Y-82589928D01*
X149763504Y-82400000D01*
X149743542Y-82210072D01*
X149684527Y-82028444D01*
X149684527Y-82028443D01*
X149589042Y-81863058D01*
X149551292Y-81821133D01*
X149461253Y-81721134D01*
X149337478Y-81631206D01*
X149306751Y-81608881D01*
X149132285Y-81531204D01*
X148945489Y-81491500D01*
X148945487Y-81491500D01*
X148754513Y-81491500D01*
X148754511Y-81491500D01*
X148567714Y-81531204D01*
X148393248Y-81608881D01*
X148238748Y-81721133D01*
X148110957Y-81863058D01*
X148015472Y-82028443D01*
X147956458Y-82210070D01*
X147936496Y-82399999D01*
X112902994Y-82399999D01*
X112893542Y-82310072D01*
X112834527Y-82128444D01*
X112834527Y-82128443D01*
X112739042Y-81963058D01*
X112649001Y-81863058D01*
X112611253Y-81821134D01*
X112514901Y-81751130D01*
X112456751Y-81708881D01*
X112282285Y-81631204D01*
X112095489Y-81591500D01*
X112095487Y-81591500D01*
X111904513Y-81591500D01*
X111904511Y-81591500D01*
X111717714Y-81631204D01*
X111543248Y-81708881D01*
X111388748Y-81821133D01*
X111260957Y-81963058D01*
X111165472Y-82128443D01*
X111106458Y-82310070D01*
X111086496Y-82500000D01*
X107000000Y-82500000D01*
X107000000Y-79600000D01*
X142336496Y-79600000D01*
X142356458Y-79789929D01*
X142415472Y-79971556D01*
X142510957Y-80136941D01*
X142510960Y-80136944D01*
X142638747Y-80278866D01*
X142793248Y-80391118D01*
X142967714Y-80468795D01*
X143154511Y-80508500D01*
X143154513Y-80508500D01*
X143345489Y-80508500D01*
X143532285Y-80468795D01*
X143532286Y-80468794D01*
X143532288Y-80468794D01*
X143706752Y-80391118D01*
X143861253Y-80278866D01*
X143989040Y-80136944D01*
X144084527Y-79971556D01*
X144143542Y-79789928D01*
X144163504Y-79600000D01*
X144143542Y-79410072D01*
X144084527Y-79228444D01*
X144084527Y-79228443D01*
X143989042Y-79063058D01*
X143969442Y-79041291D01*
X143861253Y-78921134D01*
X143706752Y-78808882D01*
X143706751Y-78808881D01*
X143532285Y-78731204D01*
X143345489Y-78691500D01*
X143345487Y-78691500D01*
X143154513Y-78691500D01*
X143154511Y-78691500D01*
X142967714Y-78731204D01*
X142793248Y-78808881D01*
X142638748Y-78921133D01*
X142510957Y-79063058D01*
X142415472Y-79228443D01*
X142356458Y-79410070D01*
X142336496Y-79600000D01*
X107000000Y-79600000D01*
X107000000Y-78624000D01*
X107019685Y-78556961D01*
X107072489Y-78511206D01*
X107124000Y-78500000D01*
X114500000Y-78500000D01*
X114500000Y-77600000D01*
X133336496Y-77600000D01*
X133356458Y-77789929D01*
X133415472Y-77971556D01*
X133510957Y-78136941D01*
X133510960Y-78136944D01*
X133638747Y-78278866D01*
X133793248Y-78391118D01*
X133967714Y-78468795D01*
X134154511Y-78508500D01*
X134154513Y-78508500D01*
X134345489Y-78508500D01*
X134532285Y-78468795D01*
X134532286Y-78468794D01*
X134532288Y-78468794D01*
X134706752Y-78391118D01*
X134861253Y-78278866D01*
X134989040Y-78136944D01*
X135067793Y-78000541D01*
X135084527Y-77971556D01*
X135143542Y-77789928D01*
X135163504Y-77600000D01*
X135143542Y-77410072D01*
X135084527Y-77228444D01*
X135084527Y-77228443D01*
X134989042Y-77063058D01*
X134969442Y-77041291D01*
X134861253Y-76921134D01*
X134706752Y-76808882D01*
X134706751Y-76808881D01*
X134532285Y-76731204D01*
X134345489Y-76691500D01*
X134345487Y-76691500D01*
X134154513Y-76691500D01*
X134154511Y-76691500D01*
X133967714Y-76731204D01*
X133793248Y-76808881D01*
X133638748Y-76921133D01*
X133510957Y-77063058D01*
X133415472Y-77228443D01*
X133356458Y-77410070D01*
X133336496Y-77600000D01*
X114500000Y-77600000D01*
X114500000Y-76600000D01*
X135336496Y-76600000D01*
X135356458Y-76789929D01*
X135415472Y-76971556D01*
X135510957Y-77136941D01*
X135510960Y-77136944D01*
X135638747Y-77278866D01*
X135793248Y-77391118D01*
X135967714Y-77468795D01*
X136154511Y-77508500D01*
X136154513Y-77508500D01*
X136345489Y-77508500D01*
X136532285Y-77468795D01*
X136532286Y-77468794D01*
X136532288Y-77468794D01*
X136706752Y-77391118D01*
X136861253Y-77278866D01*
X136989040Y-77136944D01*
X137084527Y-76971556D01*
X137143542Y-76789928D01*
X137163504Y-76600000D01*
X137143542Y-76410072D01*
X137084527Y-76228444D01*
X137084527Y-76228443D01*
X136989042Y-76063058D01*
X136969442Y-76041291D01*
X136861253Y-75921134D01*
X136706752Y-75808882D01*
X136706751Y-75808881D01*
X136532285Y-75731204D01*
X136345489Y-75691500D01*
X136345487Y-75691500D01*
X136154513Y-75691500D01*
X136154511Y-75691500D01*
X135967714Y-75731204D01*
X135793248Y-75808881D01*
X135638748Y-75921133D01*
X135510957Y-76063058D01*
X135415472Y-76228443D01*
X135356458Y-76410070D01*
X135336496Y-76600000D01*
X114500000Y-76600000D01*
X114500000Y-74800000D01*
X120536496Y-74800000D01*
X120556458Y-74989929D01*
X120615472Y-75171556D01*
X120710957Y-75336941D01*
X120710960Y-75336944D01*
X120838747Y-75478866D01*
X120879535Y-75508500D01*
X120993248Y-75591118D01*
X121167714Y-75668795D01*
X121354511Y-75708500D01*
X121354513Y-75708500D01*
X121545489Y-75708500D01*
X121732285Y-75668795D01*
X121732286Y-75668794D01*
X121732288Y-75668794D01*
X121906752Y-75591118D01*
X122061253Y-75478866D01*
X122189040Y-75336944D01*
X122222572Y-75278866D01*
X122284527Y-75171556D01*
X122295774Y-75136941D01*
X122343542Y-74989928D01*
X122363504Y-74800000D01*
X122343542Y-74610072D01*
X122340269Y-74600000D01*
X124936496Y-74600000D01*
X124956458Y-74789929D01*
X125015472Y-74971556D01*
X125110957Y-75136941D01*
X125110960Y-75136944D01*
X125238747Y-75278866D01*
X125393248Y-75391117D01*
X125393248Y-75391118D01*
X125567714Y-75468795D01*
X125754511Y-75508500D01*
X125754513Y-75508500D01*
X125945489Y-75508500D01*
X126132285Y-75468795D01*
X126132286Y-75468794D01*
X126132288Y-75468794D01*
X126306752Y-75391118D01*
X126461253Y-75278866D01*
X126589040Y-75136944D01*
X126684527Y-74971556D01*
X126740270Y-74799999D01*
X142136496Y-74799999D01*
X142156458Y-74989929D01*
X142215472Y-75171556D01*
X142310957Y-75336941D01*
X142310960Y-75336944D01*
X142438747Y-75478866D01*
X142479535Y-75508500D01*
X142593248Y-75591118D01*
X142767714Y-75668795D01*
X142954511Y-75708500D01*
X142954513Y-75708500D01*
X143145489Y-75708500D01*
X143332285Y-75668795D01*
X143332286Y-75668794D01*
X143332288Y-75668794D01*
X143506752Y-75591118D01*
X143661253Y-75478866D01*
X143789040Y-75336944D01*
X143822572Y-75278866D01*
X143884527Y-75171556D01*
X143895774Y-75136941D01*
X143943542Y-74989928D01*
X143963504Y-74800000D01*
X143943542Y-74610072D01*
X143884527Y-74428444D01*
X143884527Y-74428443D01*
X143789042Y-74263058D01*
X143757874Y-74228443D01*
X143661253Y-74121134D01*
X143506752Y-74008882D01*
X143506751Y-74008881D01*
X143332285Y-73931204D01*
X143145489Y-73891500D01*
X143145487Y-73891500D01*
X142954513Y-73891500D01*
X142954511Y-73891500D01*
X142767714Y-73931204D01*
X142593248Y-74008881D01*
X142438748Y-74121133D01*
X142310957Y-74263058D01*
X142215472Y-74428443D01*
X142156458Y-74610070D01*
X142136496Y-74799999D01*
X126740270Y-74799999D01*
X126743542Y-74789928D01*
X126763504Y-74600000D01*
X126743542Y-74410072D01*
X126684527Y-74228444D01*
X126684527Y-74228443D01*
X126589042Y-74063058D01*
X126569442Y-74041291D01*
X126461253Y-73921134D01*
X126306752Y-73808882D01*
X126306751Y-73808881D01*
X126132285Y-73731204D01*
X125945489Y-73691500D01*
X125945487Y-73691500D01*
X125754513Y-73691500D01*
X125754511Y-73691500D01*
X125567714Y-73731204D01*
X125393248Y-73808881D01*
X125238748Y-73921133D01*
X125110957Y-74063058D01*
X125015472Y-74228443D01*
X124956458Y-74410070D01*
X124936496Y-74600000D01*
X122340269Y-74600000D01*
X122284527Y-74428444D01*
X122284527Y-74428443D01*
X122189042Y-74263058D01*
X122157874Y-74228443D01*
X122061253Y-74121134D01*
X121906752Y-74008882D01*
X121906751Y-74008881D01*
X121732285Y-73931204D01*
X121545489Y-73891500D01*
X121545487Y-73891500D01*
X121354513Y-73891500D01*
X121354511Y-73891500D01*
X121167714Y-73931204D01*
X120993248Y-74008881D01*
X120838748Y-74121133D01*
X120710957Y-74263058D01*
X120615472Y-74428443D01*
X120556458Y-74610070D01*
X120536496Y-74800000D01*
X114500000Y-74800000D01*
X114500000Y-73400000D01*
X123136496Y-73400000D01*
X123156458Y-73589929D01*
X123215472Y-73771556D01*
X123310957Y-73936941D01*
X123310960Y-73936944D01*
X123438747Y-74078866D01*
X123496924Y-74121134D01*
X123593248Y-74191118D01*
X123767714Y-74268795D01*
X123954511Y-74308500D01*
X123954513Y-74308500D01*
X124145489Y-74308500D01*
X124332285Y-74268795D01*
X124332286Y-74268794D01*
X124332288Y-74268794D01*
X124506752Y-74191118D01*
X124661253Y-74078866D01*
X124789040Y-73936944D01*
X124884527Y-73771556D01*
X124943542Y-73589928D01*
X124963504Y-73400000D01*
X124943542Y-73210072D01*
X124884527Y-73028444D01*
X124884527Y-73028443D01*
X124789042Y-72863058D01*
X124769442Y-72841291D01*
X124661253Y-72721134D01*
X124506752Y-72608882D01*
X124506751Y-72608881D01*
X124332285Y-72531204D01*
X124145489Y-72491500D01*
X124145487Y-72491500D01*
X123954513Y-72491500D01*
X123954511Y-72491500D01*
X123767714Y-72531204D01*
X123593248Y-72608881D01*
X123438748Y-72721133D01*
X123310957Y-72863058D01*
X123215472Y-73028443D01*
X123156458Y-73210070D01*
X123136496Y-73400000D01*
X114500000Y-73400000D01*
X114500000Y-71599999D01*
X143336496Y-71599999D01*
X143356458Y-71789929D01*
X143415472Y-71971556D01*
X143510957Y-72136941D01*
X143510960Y-72136944D01*
X143638747Y-72278866D01*
X143793248Y-72391118D01*
X143967714Y-72468795D01*
X144154511Y-72508500D01*
X144154513Y-72508500D01*
X144345489Y-72508500D01*
X144532285Y-72468795D01*
X144532286Y-72468794D01*
X144532288Y-72468794D01*
X144706752Y-72391118D01*
X144861253Y-72278866D01*
X144989040Y-72136944D01*
X145084527Y-71971556D01*
X145143542Y-71789928D01*
X145163504Y-71600000D01*
X145143542Y-71410072D01*
X145084527Y-71228444D01*
X145084527Y-71228443D01*
X144989042Y-71063058D01*
X144969442Y-71041291D01*
X144861253Y-70921134D01*
X144706752Y-70808882D01*
X144706751Y-70808881D01*
X144532285Y-70731204D01*
X144345489Y-70691500D01*
X144345487Y-70691500D01*
X144154513Y-70691500D01*
X144154511Y-70691500D01*
X143967714Y-70731204D01*
X143793248Y-70808881D01*
X143638748Y-70921133D01*
X143510957Y-71063058D01*
X143415472Y-71228443D01*
X143356458Y-71410070D01*
X143336496Y-71599999D01*
X114500000Y-71599999D01*
X114500000Y-70599999D01*
X127536496Y-70599999D01*
X127556458Y-70789929D01*
X127615472Y-70971556D01*
X127710957Y-71136941D01*
X127710960Y-71136944D01*
X127838747Y-71278866D01*
X127993248Y-71391118D01*
X128167714Y-71468795D01*
X128354511Y-71508500D01*
X128354513Y-71508500D01*
X128545489Y-71508500D01*
X128732285Y-71468795D01*
X128732286Y-71468794D01*
X128732288Y-71468794D01*
X128906752Y-71391118D01*
X129061253Y-71278866D01*
X129189040Y-71136944D01*
X129284527Y-70971556D01*
X129343542Y-70789928D01*
X129363504Y-70600000D01*
X129343542Y-70410072D01*
X129284527Y-70228444D01*
X129284527Y-70228443D01*
X129189042Y-70063058D01*
X129132263Y-69999999D01*
X137536496Y-69999999D01*
X137556458Y-70189929D01*
X137615472Y-70371556D01*
X137710957Y-70536941D01*
X137710960Y-70536944D01*
X137838747Y-70678866D01*
X137910784Y-70731204D01*
X137993248Y-70791118D01*
X138167714Y-70868795D01*
X138354511Y-70908500D01*
X138354513Y-70908500D01*
X138545489Y-70908500D01*
X138732285Y-70868795D01*
X138732286Y-70868794D01*
X138732288Y-70868794D01*
X138906752Y-70791118D01*
X139061253Y-70678866D01*
X139189040Y-70536944D01*
X139284527Y-70371556D01*
X139343542Y-70189928D01*
X139363504Y-70000000D01*
X139343542Y-69810072D01*
X139284527Y-69628444D01*
X139284527Y-69628443D01*
X139189042Y-69463058D01*
X139123195Y-69389928D01*
X139061253Y-69321134D01*
X138906752Y-69208882D01*
X138906751Y-69208881D01*
X138886804Y-69200000D01*
X142536496Y-69200000D01*
X142537430Y-69208882D01*
X142556458Y-69389929D01*
X142615472Y-69571556D01*
X142710957Y-69736941D01*
X142710960Y-69736944D01*
X142838747Y-69878866D01*
X142896924Y-69921134D01*
X142993248Y-69991118D01*
X143167714Y-70068795D01*
X143354511Y-70108500D01*
X143354513Y-70108500D01*
X143545489Y-70108500D01*
X143732285Y-70068795D01*
X143732286Y-70068794D01*
X143732288Y-70068794D01*
X143906752Y-69991118D01*
X144061253Y-69878866D01*
X144189040Y-69736944D01*
X144284527Y-69571556D01*
X144343542Y-69389928D01*
X144363504Y-69200000D01*
X144343542Y-69010072D01*
X144284527Y-68828444D01*
X144284527Y-68828443D01*
X144189042Y-68663058D01*
X144123195Y-68589928D01*
X144061253Y-68521134D01*
X143906752Y-68408882D01*
X143906751Y-68408881D01*
X143732285Y-68331204D01*
X143545489Y-68291500D01*
X143545487Y-68291500D01*
X143354513Y-68291500D01*
X143354511Y-68291500D01*
X143167714Y-68331204D01*
X142993248Y-68408881D01*
X142838748Y-68521133D01*
X142710957Y-68663058D01*
X142615472Y-68828443D01*
X142556458Y-69010070D01*
X142536496Y-69199999D01*
X142536496Y-69200000D01*
X138886804Y-69200000D01*
X138732285Y-69131204D01*
X138545489Y-69091500D01*
X138545487Y-69091500D01*
X138354513Y-69091500D01*
X138354511Y-69091500D01*
X138167714Y-69131204D01*
X137993248Y-69208881D01*
X137838748Y-69321133D01*
X137710957Y-69463058D01*
X137615472Y-69628443D01*
X137556458Y-69810070D01*
X137536496Y-69999999D01*
X129132263Y-69999999D01*
X129061253Y-69921134D01*
X128908390Y-69810072D01*
X128906751Y-69808881D01*
X128732285Y-69731204D01*
X128545489Y-69691500D01*
X128545487Y-69691500D01*
X128354513Y-69691500D01*
X128354511Y-69691500D01*
X128167714Y-69731204D01*
X127993248Y-69808881D01*
X127838748Y-69921133D01*
X127710957Y-70063058D01*
X127615472Y-70228443D01*
X127556458Y-70410070D01*
X127536496Y-70599999D01*
X114500000Y-70599999D01*
X114500000Y-68400000D01*
X133336496Y-68400000D01*
X133356458Y-68589929D01*
X133415472Y-68771556D01*
X133510957Y-68936941D01*
X133510960Y-68936944D01*
X133638747Y-69078866D01*
X133710784Y-69131204D01*
X133793248Y-69191118D01*
X133967714Y-69268795D01*
X134154511Y-69308500D01*
X134154513Y-69308500D01*
X134345489Y-69308500D01*
X134532285Y-69268795D01*
X134532286Y-69268794D01*
X134532288Y-69268794D01*
X134706752Y-69191118D01*
X134861253Y-69078866D01*
X134989040Y-68936944D01*
X135084527Y-68771556D01*
X135143542Y-68589928D01*
X135163504Y-68400000D01*
X135143542Y-68210072D01*
X135084527Y-68028444D01*
X135084527Y-68028443D01*
X134989042Y-67863058D01*
X134969442Y-67841291D01*
X134861253Y-67721134D01*
X134706752Y-67608882D01*
X134706751Y-67608881D01*
X134532285Y-67531204D01*
X134345489Y-67491500D01*
X134345487Y-67491500D01*
X134154513Y-67491500D01*
X134154511Y-67491500D01*
X133967714Y-67531204D01*
X133793248Y-67608881D01*
X133638748Y-67721133D01*
X133510957Y-67863058D01*
X133415472Y-68028443D01*
X133356458Y-68210070D01*
X133336496Y-68400000D01*
X114500000Y-68400000D01*
X114500000Y-67400000D01*
X136936496Y-67400000D01*
X136956458Y-67589929D01*
X137015472Y-67771556D01*
X137110957Y-67936941D01*
X137110960Y-67936944D01*
X137238747Y-68078866D01*
X137393248Y-68191118D01*
X137567714Y-68268795D01*
X137754511Y-68308500D01*
X137754513Y-68308500D01*
X137945489Y-68308500D01*
X138132285Y-68268795D01*
X138132286Y-68268794D01*
X138132288Y-68268794D01*
X138306752Y-68191118D01*
X138461253Y-68078866D01*
X138589040Y-67936944D01*
X138684527Y-67771556D01*
X138743542Y-67589928D01*
X138763504Y-67400000D01*
X138743542Y-67210072D01*
X138684527Y-67028444D01*
X138684527Y-67028443D01*
X138589042Y-66863058D01*
X138569442Y-66841291D01*
X138461253Y-66721134D01*
X138306752Y-66608882D01*
X138306751Y-66608881D01*
X138132285Y-66531204D01*
X137945489Y-66491500D01*
X137945487Y-66491500D01*
X137754513Y-66491500D01*
X137754511Y-66491500D01*
X137567714Y-66531204D01*
X137393248Y-66608881D01*
X137238748Y-66721133D01*
X137110957Y-66863058D01*
X137015472Y-67028443D01*
X136956458Y-67210070D01*
X136936496Y-67400000D01*
X114500000Y-67400000D01*
X114500000Y-65800000D01*
X116136496Y-65800000D01*
X116156458Y-65989929D01*
X116215472Y-66171556D01*
X116310957Y-66336941D01*
X116310960Y-66336944D01*
X116438747Y-66478866D01*
X116510784Y-66531204D01*
X116593248Y-66591118D01*
X116767714Y-66668795D01*
X116954511Y-66708500D01*
X116954513Y-66708500D01*
X117145489Y-66708500D01*
X117332285Y-66668795D01*
X117332286Y-66668794D01*
X117332288Y-66668794D01*
X117506752Y-66591118D01*
X117661253Y-66478866D01*
X117789040Y-66336944D01*
X117884527Y-66171556D01*
X117943542Y-65989928D01*
X117963504Y-65800000D01*
X117943542Y-65610072D01*
X117884527Y-65428444D01*
X117884527Y-65428443D01*
X117789042Y-65263058D01*
X117723195Y-65189928D01*
X117661253Y-65121134D01*
X117506752Y-65008882D01*
X117506751Y-65008881D01*
X117486804Y-65000000D01*
X118136496Y-65000000D01*
X118137430Y-65008882D01*
X118156458Y-65189929D01*
X118215472Y-65371556D01*
X118310957Y-65536941D01*
X118310960Y-65536944D01*
X118438747Y-65678866D01*
X118593248Y-65791118D01*
X118767714Y-65868795D01*
X118954511Y-65908500D01*
X118954513Y-65908500D01*
X119145489Y-65908500D01*
X119332285Y-65868795D01*
X119332286Y-65868794D01*
X119332288Y-65868794D01*
X119506752Y-65791118D01*
X119661253Y-65678866D01*
X119789040Y-65536944D01*
X119884527Y-65371556D01*
X119943542Y-65189928D01*
X119963504Y-65000000D01*
X119943542Y-64810072D01*
X119884527Y-64628444D01*
X119884527Y-64628443D01*
X119789042Y-64463058D01*
X119769442Y-64441291D01*
X119661253Y-64321134D01*
X119506752Y-64208882D01*
X119506751Y-64208881D01*
X119332285Y-64131204D01*
X119145489Y-64091500D01*
X119145487Y-64091500D01*
X118954513Y-64091500D01*
X118954511Y-64091500D01*
X118767714Y-64131204D01*
X118593248Y-64208881D01*
X118438748Y-64321133D01*
X118310957Y-64463058D01*
X118215472Y-64628443D01*
X118156458Y-64810070D01*
X118156457Y-64810072D01*
X118156458Y-64810072D01*
X118136496Y-65000000D01*
X117486804Y-65000000D01*
X117332285Y-64931204D01*
X117145489Y-64891500D01*
X117145487Y-64891500D01*
X116954513Y-64891500D01*
X116954511Y-64891500D01*
X116767714Y-64931204D01*
X116593248Y-65008881D01*
X116438748Y-65121133D01*
X116310957Y-65263058D01*
X116215472Y-65428443D01*
X116156458Y-65610070D01*
X116136496Y-65800000D01*
X114500000Y-65800000D01*
X114500000Y-62000000D01*
X149336496Y-62000000D01*
X149356458Y-62189929D01*
X149415472Y-62371556D01*
X149510957Y-62536941D01*
X149510960Y-62536944D01*
X149638747Y-62678866D01*
X149793248Y-62791118D01*
X149967714Y-62868795D01*
X150154511Y-62908500D01*
X150154513Y-62908500D01*
X150345489Y-62908500D01*
X150532285Y-62868795D01*
X150532286Y-62868794D01*
X150532288Y-62868794D01*
X150706752Y-62791118D01*
X150861253Y-62678866D01*
X150989040Y-62536944D01*
X151084527Y-62371556D01*
X151143542Y-62189928D01*
X151163504Y-62000000D01*
X151143542Y-61810072D01*
X151084527Y-61628444D01*
X151084527Y-61628443D01*
X150989042Y-61463058D01*
X150969442Y-61441291D01*
X150861253Y-61321134D01*
X150706752Y-61208882D01*
X150706751Y-61208881D01*
X150532285Y-61131204D01*
X150345489Y-61091500D01*
X150345487Y-61091500D01*
X150154513Y-61091500D01*
X150154511Y-61091500D01*
X149967714Y-61131204D01*
X149793248Y-61208881D01*
X149638748Y-61321133D01*
X149510957Y-61463058D01*
X149415472Y-61628443D01*
X149356458Y-61810070D01*
X149336496Y-62000000D01*
X114500000Y-62000000D01*
X114500000Y-59700000D01*
X133636496Y-59700000D01*
X133656458Y-59889929D01*
X133715472Y-60071556D01*
X133810957Y-60236941D01*
X133810960Y-60236944D01*
X133938747Y-60378866D01*
X134093248Y-60491118D01*
X134267714Y-60568795D01*
X134454511Y-60608500D01*
X134454513Y-60608500D01*
X134645489Y-60608500D01*
X134832285Y-60568795D01*
X134832286Y-60568794D01*
X134832288Y-60568794D01*
X135006752Y-60491118D01*
X135161253Y-60378866D01*
X135289040Y-60236944D01*
X135384527Y-60071556D01*
X135443542Y-59889928D01*
X135463504Y-59700000D01*
X135443542Y-59510072D01*
X135384527Y-59328444D01*
X135384527Y-59328443D01*
X135310370Y-59200000D01*
X147136496Y-59200000D01*
X147156458Y-59389929D01*
X147215472Y-59571556D01*
X147310957Y-59736941D01*
X147310960Y-59736944D01*
X147438747Y-59878866D01*
X147562522Y-59968794D01*
X147593248Y-59991118D01*
X147767714Y-60068795D01*
X147954511Y-60108500D01*
X147954513Y-60108500D01*
X148145489Y-60108500D01*
X148332285Y-60068795D01*
X148332286Y-60068794D01*
X148332288Y-60068794D01*
X148506752Y-59991118D01*
X148661253Y-59878866D01*
X148789040Y-59736944D01*
X148884527Y-59571556D01*
X148943542Y-59389928D01*
X148963504Y-59200000D01*
X148952994Y-59100000D01*
X149536496Y-59100000D01*
X149556458Y-59289929D01*
X149615472Y-59471556D01*
X149710957Y-59636941D01*
X149710960Y-59636944D01*
X149838747Y-59778866D01*
X149976385Y-59878866D01*
X149993248Y-59891118D01*
X150167714Y-59968795D01*
X150354511Y-60008500D01*
X150354513Y-60008500D01*
X150545489Y-60008500D01*
X150732285Y-59968795D01*
X150732286Y-59968794D01*
X150732288Y-59968794D01*
X150906752Y-59891118D01*
X151061253Y-59778866D01*
X151189040Y-59636944D01*
X151284527Y-59471556D01*
X151343542Y-59289928D01*
X151363504Y-59100000D01*
X151343542Y-58910072D01*
X151284527Y-58728444D01*
X151284527Y-58728443D01*
X151189042Y-58563058D01*
X151151292Y-58521133D01*
X151061253Y-58421134D01*
X150937478Y-58331206D01*
X150906751Y-58308881D01*
X150732285Y-58231204D01*
X150545489Y-58191500D01*
X150545487Y-58191500D01*
X150354513Y-58191500D01*
X150354511Y-58191500D01*
X150167714Y-58231204D01*
X149993248Y-58308881D01*
X149838748Y-58421133D01*
X149710957Y-58563058D01*
X149615472Y-58728443D01*
X149556458Y-58910070D01*
X149536496Y-59100000D01*
X148952994Y-59100000D01*
X148943542Y-59010072D01*
X148910663Y-58908881D01*
X148884527Y-58828443D01*
X148789042Y-58663058D01*
X148699001Y-58563058D01*
X148661253Y-58521134D01*
X148564901Y-58451129D01*
X148506751Y-58408881D01*
X148332285Y-58331204D01*
X148145489Y-58291500D01*
X148145487Y-58291500D01*
X147954513Y-58291500D01*
X147954511Y-58291500D01*
X147767714Y-58331204D01*
X147593248Y-58408881D01*
X147438748Y-58521133D01*
X147310957Y-58663058D01*
X147215472Y-58828443D01*
X147156458Y-59010070D01*
X147136496Y-59200000D01*
X135310370Y-59200000D01*
X135289042Y-59163058D01*
X135232263Y-59099999D01*
X135161253Y-59021134D01*
X135008390Y-58910072D01*
X135006751Y-58908881D01*
X134832285Y-58831204D01*
X134645489Y-58791500D01*
X134645487Y-58791500D01*
X134454513Y-58791500D01*
X134454511Y-58791500D01*
X134267714Y-58831204D01*
X134093248Y-58908881D01*
X133938748Y-59021133D01*
X133810957Y-59163058D01*
X133715472Y-59328443D01*
X133656458Y-59510070D01*
X133636496Y-59700000D01*
X114500000Y-59700000D01*
X114500000Y-56524318D01*
X114519685Y-56457279D01*
X114572489Y-56411524D01*
X114624314Y-56400318D01*
X153376320Y-56499682D01*
G37*
G04 #@! TD.AperFunction*
M02*
