M48
; DRILL file {KiCad 7.0.2-6a45011f42~172~ubuntu20.04.1} date Sat 13 May 2023 12:05:09
; FORMAT={-:-/ absolute / metric / decimal}
; #@! TF.CreationDate,2023-05-13T12:05:09+10:00
; #@! TF.GenerationSoftware,Kicad,Pcbnew,7.0.2-6a45011f42~172~ubuntu20.04.1
; #@! TF.FileFunction,Plated,1,4,PTH
FMAT,2
METRIC
; #@! TA.AperFunction,Plated,PTH,ViaDrill
T1C0.400
%
G90
G05
T1
X108.8Y-81.0
X112.0Y-82.5
X117.05Y-65.8
X118.0Y-69.5
X119.05Y-65.0
X121.45Y-74.8
X122.25Y-78.8
X124.05Y-73.4
X125.85Y-74.6
X128.45Y-70.6
X134.25Y-68.4
X134.25Y-77.6
X134.55Y-59.7
X135.45Y-63.0
X136.25Y-76.6
X137.85Y-67.4
X138.45Y-70.0
X141.85Y-67.8
X143.05Y-74.8
X143.25Y-79.6
X143.45Y-69.2
X144.25Y-71.6
X144.65Y-83.8
X146.85Y-83.8
X148.05Y-59.2
X148.85Y-82.4
X150.25Y-62.0
X150.45Y-59.1
X151.25Y-78.2
T0
M30
