G04 #@! TF.GenerationSoftware,KiCad,Pcbnew,7.0.2-6a45011f42~172~ubuntu20.04.1*
G04 #@! TF.CreationDate,2023-05-13T12:04:57+10:00*
G04 #@! TF.ProjectId,pcb_redesign,7063625f-7265-4646-9573-69676e2e6b69,rev?*
G04 #@! TF.SameCoordinates,Original*
G04 #@! TF.FileFunction,Copper,L4,Bot*
G04 #@! TF.FilePolarity,Positive*
%FSLAX46Y46*%
G04 Gerber Fmt 4.6, Leading zero omitted, Abs format (unit mm)*
G04 Created by KiCad (PCBNEW 7.0.2-6a45011f42~172~ubuntu20.04.1) date 2023-05-13 12:04:57*
%MOMM*%
%LPD*%
G01*
G04 APERTURE LIST*
G04 #@! TA.AperFunction,ViaPad*
%ADD10C,0.800000*%
G04 #@! TD*
G04 #@! TA.AperFunction,Conductor*
%ADD11C,0.250000*%
G04 #@! TD*
G04 APERTURE END LIST*
D10*
X143050000Y-74800000D03*
X138450000Y-70000000D03*
X144250000Y-71600000D03*
X117050000Y-65800000D03*
X134250000Y-68400000D03*
X119050000Y-65000000D03*
X137850000Y-67400000D03*
X121450000Y-74800000D03*
X136250000Y-76600000D03*
X124050000Y-73400000D03*
X134250000Y-77600000D03*
X148850000Y-82400000D03*
X143250000Y-79600000D03*
X146850000Y-83800000D03*
X144650000Y-83800000D03*
X141850000Y-67800000D03*
X135450000Y-63000000D03*
X108800000Y-81000000D03*
X122250000Y-78800000D03*
X118000000Y-69500000D03*
X151250000Y-78200000D03*
X150450000Y-59100000D03*
X125850000Y-74600000D03*
X128450000Y-70600000D03*
X150250000Y-62000000D03*
X148050000Y-59200000D03*
X134550000Y-59700000D03*
X143450000Y-69200000D03*
X112000000Y-82500000D03*
D11*
X137850000Y-67400000D02*
X137650000Y-67200000D01*
X137650000Y-67200000D02*
X133450000Y-67200000D01*
X133450000Y-67200000D02*
X131450000Y-65200000D01*
X119250000Y-65200000D02*
X119050000Y-65000000D01*
X131450000Y-65200000D02*
X119250000Y-65200000D01*
X129525000Y-69525000D02*
X134925000Y-69525000D01*
X134925000Y-69525000D02*
X135850000Y-68600000D01*
X135850000Y-68600000D02*
X141895405Y-68600000D01*
X128450000Y-70600000D02*
X129525000Y-69525000D01*
X150250000Y-66500000D02*
X150250000Y-62000000D01*
X141895405Y-68600000D02*
X143170405Y-69875000D01*
X143170405Y-69875000D02*
X146875000Y-69875000D01*
X146875000Y-69875000D02*
X150250000Y-66500000D01*
X136250000Y-76600000D02*
X134050000Y-76600000D01*
X134050000Y-76600000D02*
X129250000Y-71800000D01*
X129250000Y-71800000D02*
X125450000Y-71800000D01*
X121450000Y-73000000D02*
X121450000Y-74800000D01*
X125450000Y-71800000D02*
X125050000Y-72200000D01*
X125050000Y-72200000D02*
X122250000Y-72200000D01*
X122250000Y-72200000D02*
X121450000Y-73000000D01*
X138450000Y-70000000D02*
X139650000Y-70000000D01*
X143050000Y-73400000D02*
X143050000Y-74800000D01*
X139650000Y-70000000D02*
X143050000Y-73400000D01*
X133525000Y-69125000D02*
X127575000Y-69125000D01*
X127575000Y-69125000D02*
X124650000Y-66200000D01*
X134250000Y-68400000D02*
X133525000Y-69125000D01*
X124650000Y-66200000D02*
X117450000Y-66200000D01*
X117450000Y-66200000D02*
X117050000Y-65800000D01*
X150450000Y-59100000D02*
X152225000Y-60875000D01*
X152225000Y-60875000D02*
X152225000Y-68478889D01*
X152225000Y-68478889D02*
X141103889Y-79600000D01*
X141103889Y-79600000D02*
X130850000Y-79600000D01*
X130850000Y-79600000D02*
X125850000Y-74600000D01*
X134250000Y-77600000D02*
X132050000Y-77600000D01*
X132050000Y-77600000D02*
X127850000Y-73400000D01*
X127850000Y-73400000D02*
X124050000Y-73400000D01*
X146050000Y-82400000D02*
X148850000Y-82400000D01*
X143250000Y-79600000D02*
X146050000Y-82400000D01*
X115350000Y-81700000D02*
X114550000Y-82500000D01*
X120950000Y-59700000D02*
X115350000Y-65300000D01*
X114550000Y-82500000D02*
X112000000Y-82500000D01*
X134550000Y-59700000D02*
X120950000Y-59700000D01*
X115350000Y-65300000D02*
X115350000Y-81700000D01*
M02*
