G04 #@! TF.GenerationSoftware,KiCad,Pcbnew,7.0.2-6a45011f42~172~ubuntu20.04.1*
G04 #@! TF.CreationDate,2023-05-13T12:04:57+10:00*
G04 #@! TF.ProjectId,pcb_redesign,7063625f-7265-4646-9573-69676e2e6b69,rev?*
G04 #@! TF.SameCoordinates,Original*
G04 #@! TF.FileFunction,Legend,Top*
G04 #@! TF.FilePolarity,Positive*
%FSLAX46Y46*%
G04 Gerber Fmt 4.6, Leading zero omitted, Abs format (unit mm)*
G04 Created by KiCad (PCBNEW 7.0.2-6a45011f42~172~ubuntu20.04.1) date 2023-05-13 12:04:57*
%MOMM*%
%LPD*%
G01*
G04 APERTURE LIST*
G04 Aperture macros list*
%AMRoundRect*
0 Rectangle with rounded corners*
0 $1 Rounding radius*
0 $2 $3 $4 $5 $6 $7 $8 $9 X,Y pos of 4 corners*
0 Add a 4 corners polygon primitive as box body*
4,1,4,$2,$3,$4,$5,$6,$7,$8,$9,$2,$3,0*
0 Add four circle primitives for the rounded corners*
1,1,$1+$1,$2,$3*
1,1,$1+$1,$4,$5*
1,1,$1+$1,$6,$7*
1,1,$1+$1,$8,$9*
0 Add four rect primitives between the rounded corners*
20,1,$1+$1,$2,$3,$4,$5,0*
20,1,$1+$1,$4,$5,$6,$7,0*
20,1,$1+$1,$6,$7,$8,$9,0*
20,1,$1+$1,$8,$9,$2,$3,0*%
G04 Aperture macros list end*
%ADD10C,0.300000*%
%ADD11C,0.098425*%
%ADD12C,0.150000*%
%ADD13C,0.254000*%
%ADD14C,0.075000*%
%ADD15C,0.200000*%
%ADD16C,0.127000*%
%ADD17C,0.120000*%
%ADD18R,0.560000X0.350000*%
%ADD19R,0.200000X1.600000*%
%ADD20R,0.900000X0.970000*%
%ADD21R,0.940000X1.020000*%
%ADD22R,0.870000X0.930000*%
%ADD23R,0.900000X1.500000*%
%ADD24R,1.500000X0.900000*%
%ADD25R,0.900000X0.900000*%
%ADD26R,0.970000X0.930000*%
%ADD27R,0.790000X0.930000*%
%ADD28R,0.930000X0.970000*%
%ADD29R,0.930000X0.790000*%
%ADD30R,1.000000X1.500000*%
%ADD31RoundRect,0.225000X0.250000X-0.225000X0.250000X0.225000X-0.250000X0.225000X-0.250000X-0.225000X0*%
%ADD32R,0.950000X1.750000*%
%ADD33R,3.200000X1.750000*%
%ADD34RoundRect,0.225000X-0.225000X-0.250000X0.225000X-0.250000X0.225000X0.250000X-0.225000X0.250000X0*%
%ADD35R,1.350000X0.400000*%
%ADD36R,1.600000X2.100000*%
%ADD37R,1.900000X1.800000*%
%ADD38R,1.900000X1.900000*%
%ADD39RoundRect,0.243750X-0.243750X-0.456250X0.243750X-0.456250X0.243750X0.456250X-0.243750X0.456250X0*%
G04 APERTURE END LIST*
D10*
X120307142Y-84916428D02*
X120307142Y-83416428D01*
X120307142Y-83416428D02*
X120664285Y-83416428D01*
X120664285Y-83416428D02*
X120878571Y-83487857D01*
X120878571Y-83487857D02*
X121021428Y-83630714D01*
X121021428Y-83630714D02*
X121092857Y-83773571D01*
X121092857Y-83773571D02*
X121164285Y-84059285D01*
X121164285Y-84059285D02*
X121164285Y-84273571D01*
X121164285Y-84273571D02*
X121092857Y-84559285D01*
X121092857Y-84559285D02*
X121021428Y-84702142D01*
X121021428Y-84702142D02*
X120878571Y-84845000D01*
X120878571Y-84845000D02*
X120664285Y-84916428D01*
X120664285Y-84916428D02*
X120307142Y-84916428D01*
X122092857Y-83416428D02*
X122378571Y-83416428D01*
X122378571Y-83416428D02*
X122521428Y-83487857D01*
X122521428Y-83487857D02*
X122664285Y-83630714D01*
X122664285Y-83630714D02*
X122735714Y-83916428D01*
X122735714Y-83916428D02*
X122735714Y-84416428D01*
X122735714Y-84416428D02*
X122664285Y-84702142D01*
X122664285Y-84702142D02*
X122521428Y-84845000D01*
X122521428Y-84845000D02*
X122378571Y-84916428D01*
X122378571Y-84916428D02*
X122092857Y-84916428D01*
X122092857Y-84916428D02*
X121950000Y-84845000D01*
X121950000Y-84845000D02*
X121807142Y-84702142D01*
X121807142Y-84702142D02*
X121735714Y-84416428D01*
X121735714Y-84416428D02*
X121735714Y-83916428D01*
X121735714Y-83916428D02*
X121807142Y-83630714D01*
X121807142Y-83630714D02*
X121950000Y-83487857D01*
X121950000Y-83487857D02*
X122092857Y-83416428D01*
X123378571Y-84916428D02*
X123378571Y-83416428D01*
X123378571Y-83416428D02*
X124235714Y-84916428D01*
X124235714Y-84916428D02*
X124235714Y-83416428D01*
X124735715Y-83416428D02*
X125592858Y-83416428D01*
X125164286Y-84916428D02*
X125164286Y-83416428D01*
X127235714Y-84916428D02*
X127235714Y-83416428D01*
X127235714Y-83416428D02*
X127807143Y-83416428D01*
X127807143Y-83416428D02*
X127950000Y-83487857D01*
X127950000Y-83487857D02*
X128021429Y-83559285D01*
X128021429Y-83559285D02*
X128092857Y-83702142D01*
X128092857Y-83702142D02*
X128092857Y-83916428D01*
X128092857Y-83916428D02*
X128021429Y-84059285D01*
X128021429Y-84059285D02*
X127950000Y-84130714D01*
X127950000Y-84130714D02*
X127807143Y-84202142D01*
X127807143Y-84202142D02*
X127235714Y-84202142D01*
X128735714Y-83416428D02*
X128735714Y-84630714D01*
X128735714Y-84630714D02*
X128807143Y-84773571D01*
X128807143Y-84773571D02*
X128878572Y-84845000D01*
X128878572Y-84845000D02*
X129021429Y-84916428D01*
X129021429Y-84916428D02*
X129307143Y-84916428D01*
X129307143Y-84916428D02*
X129450000Y-84845000D01*
X129450000Y-84845000D02*
X129521429Y-84773571D01*
X129521429Y-84773571D02*
X129592857Y-84630714D01*
X129592857Y-84630714D02*
X129592857Y-83416428D01*
X130092858Y-83416428D02*
X130950001Y-83416428D01*
X130521429Y-84916428D02*
X130521429Y-83416428D01*
X132521429Y-84845000D02*
X132735715Y-84916428D01*
X132735715Y-84916428D02*
X133092857Y-84916428D01*
X133092857Y-84916428D02*
X133235715Y-84845000D01*
X133235715Y-84845000D02*
X133307143Y-84773571D01*
X133307143Y-84773571D02*
X133378572Y-84630714D01*
X133378572Y-84630714D02*
X133378572Y-84487857D01*
X133378572Y-84487857D02*
X133307143Y-84345000D01*
X133307143Y-84345000D02*
X133235715Y-84273571D01*
X133235715Y-84273571D02*
X133092857Y-84202142D01*
X133092857Y-84202142D02*
X132807143Y-84130714D01*
X132807143Y-84130714D02*
X132664286Y-84059285D01*
X132664286Y-84059285D02*
X132592857Y-83987857D01*
X132592857Y-83987857D02*
X132521429Y-83845000D01*
X132521429Y-83845000D02*
X132521429Y-83702142D01*
X132521429Y-83702142D02*
X132592857Y-83559285D01*
X132592857Y-83559285D02*
X132664286Y-83487857D01*
X132664286Y-83487857D02*
X132807143Y-83416428D01*
X132807143Y-83416428D02*
X133164286Y-83416428D01*
X133164286Y-83416428D02*
X133378572Y-83487857D01*
X134021428Y-84916428D02*
X134021428Y-83416428D01*
X134021428Y-84130714D02*
X134878571Y-84130714D01*
X134878571Y-84916428D02*
X134878571Y-83416428D01*
X135592857Y-84916428D02*
X135592857Y-83416428D01*
X136092858Y-83416428D02*
X136950001Y-83416428D01*
X136521429Y-84916428D02*
X136521429Y-83416428D01*
X138592857Y-84916428D02*
X138592857Y-83416428D01*
X138592857Y-84130714D02*
X139450000Y-84130714D01*
X139450000Y-84916428D02*
X139450000Y-83416428D01*
X140164286Y-84130714D02*
X140664286Y-84130714D01*
X140878572Y-84916428D02*
X140164286Y-84916428D01*
X140164286Y-84916428D02*
X140164286Y-83416428D01*
X140164286Y-83416428D02*
X140878572Y-83416428D01*
X142378572Y-84916428D02*
X141878572Y-84202142D01*
X141521429Y-84916428D02*
X141521429Y-83416428D01*
X141521429Y-83416428D02*
X142092858Y-83416428D01*
X142092858Y-83416428D02*
X142235715Y-83487857D01*
X142235715Y-83487857D02*
X142307144Y-83559285D01*
X142307144Y-83559285D02*
X142378572Y-83702142D01*
X142378572Y-83702142D02*
X142378572Y-83916428D01*
X142378572Y-83916428D02*
X142307144Y-84059285D01*
X142307144Y-84059285D02*
X142235715Y-84130714D01*
X142235715Y-84130714D02*
X142092858Y-84202142D01*
X142092858Y-84202142D02*
X141521429Y-84202142D01*
X143021429Y-84130714D02*
X143521429Y-84130714D01*
X143735715Y-84916428D02*
X143021429Y-84916428D01*
X143021429Y-84916428D02*
X143021429Y-83416428D01*
X143021429Y-83416428D02*
X143735715Y-83416428D01*
D11*
X115374383Y-78512133D02*
X115243149Y-78324657D01*
X115149411Y-78512133D02*
X115149411Y-78118432D01*
X115149411Y-78118432D02*
X115299392Y-78118432D01*
X115299392Y-78118432D02*
X115336888Y-78137180D01*
X115336888Y-78137180D02*
X115355635Y-78155928D01*
X115355635Y-78155928D02*
X115374383Y-78193423D01*
X115374383Y-78193423D02*
X115374383Y-78249666D01*
X115374383Y-78249666D02*
X115355635Y-78287161D01*
X115355635Y-78287161D02*
X115336888Y-78305909D01*
X115336888Y-78305909D02*
X115299392Y-78324657D01*
X115299392Y-78324657D02*
X115149411Y-78324657D01*
X115711841Y-78118432D02*
X115636850Y-78118432D01*
X115636850Y-78118432D02*
X115599355Y-78137180D01*
X115599355Y-78137180D02*
X115580607Y-78155928D01*
X115580607Y-78155928D02*
X115543112Y-78212171D01*
X115543112Y-78212171D02*
X115524364Y-78287161D01*
X115524364Y-78287161D02*
X115524364Y-78437143D01*
X115524364Y-78437143D02*
X115543112Y-78474638D01*
X115543112Y-78474638D02*
X115561860Y-78493386D01*
X115561860Y-78493386D02*
X115599355Y-78512133D01*
X115599355Y-78512133D02*
X115674346Y-78512133D01*
X115674346Y-78512133D02*
X115711841Y-78493386D01*
X115711841Y-78493386D02*
X115730589Y-78474638D01*
X115730589Y-78474638D02*
X115749336Y-78437143D01*
X115749336Y-78437143D02*
X115749336Y-78343404D01*
X115749336Y-78343404D02*
X115730589Y-78305909D01*
X115730589Y-78305909D02*
X115711841Y-78287161D01*
X115711841Y-78287161D02*
X115674346Y-78268414D01*
X115674346Y-78268414D02*
X115599355Y-78268414D01*
X115599355Y-78268414D02*
X115561860Y-78287161D01*
X115561860Y-78287161D02*
X115543112Y-78305909D01*
X115543112Y-78305909D02*
X115524364Y-78343404D01*
X138444383Y-60482133D02*
X138313149Y-60294657D01*
X138219411Y-60482133D02*
X138219411Y-60088432D01*
X138219411Y-60088432D02*
X138369392Y-60088432D01*
X138369392Y-60088432D02*
X138406888Y-60107180D01*
X138406888Y-60107180D02*
X138425635Y-60125928D01*
X138425635Y-60125928D02*
X138444383Y-60163423D01*
X138444383Y-60163423D02*
X138444383Y-60219666D01*
X138444383Y-60219666D02*
X138425635Y-60257161D01*
X138425635Y-60257161D02*
X138406888Y-60275909D01*
X138406888Y-60275909D02*
X138369392Y-60294657D01*
X138369392Y-60294657D02*
X138219411Y-60294657D01*
X138575617Y-60088432D02*
X138819336Y-60088432D01*
X138819336Y-60088432D02*
X138688103Y-60238414D01*
X138688103Y-60238414D02*
X138744346Y-60238414D01*
X138744346Y-60238414D02*
X138781841Y-60257161D01*
X138781841Y-60257161D02*
X138800589Y-60275909D01*
X138800589Y-60275909D02*
X138819336Y-60313404D01*
X138819336Y-60313404D02*
X138819336Y-60407143D01*
X138819336Y-60407143D02*
X138800589Y-60444638D01*
X138800589Y-60444638D02*
X138781841Y-60463386D01*
X138781841Y-60463386D02*
X138744346Y-60482133D01*
X138744346Y-60482133D02*
X138631860Y-60482133D01*
X138631860Y-60482133D02*
X138594364Y-60463386D01*
X138594364Y-60463386D02*
X138575617Y-60444638D01*
X112644383Y-80194638D02*
X112625635Y-80213386D01*
X112625635Y-80213386D02*
X112569392Y-80232133D01*
X112569392Y-80232133D02*
X112531897Y-80232133D01*
X112531897Y-80232133D02*
X112475654Y-80213386D01*
X112475654Y-80213386D02*
X112438159Y-80175890D01*
X112438159Y-80175890D02*
X112419411Y-80138395D01*
X112419411Y-80138395D02*
X112400663Y-80063404D01*
X112400663Y-80063404D02*
X112400663Y-80007161D01*
X112400663Y-80007161D02*
X112419411Y-79932171D01*
X112419411Y-79932171D02*
X112438159Y-79894675D01*
X112438159Y-79894675D02*
X112475654Y-79857180D01*
X112475654Y-79857180D02*
X112531897Y-79838432D01*
X112531897Y-79838432D02*
X112569392Y-79838432D01*
X112569392Y-79838432D02*
X112625635Y-79857180D01*
X112625635Y-79857180D02*
X112644383Y-79875928D01*
X112775617Y-79838432D02*
X113019336Y-79838432D01*
X113019336Y-79838432D02*
X112888103Y-79988414D01*
X112888103Y-79988414D02*
X112944346Y-79988414D01*
X112944346Y-79988414D02*
X112981841Y-80007161D01*
X112981841Y-80007161D02*
X113000589Y-80025909D01*
X113000589Y-80025909D02*
X113019336Y-80063404D01*
X113019336Y-80063404D02*
X113019336Y-80157143D01*
X113019336Y-80157143D02*
X113000589Y-80194638D01*
X113000589Y-80194638D02*
X112981841Y-80213386D01*
X112981841Y-80213386D02*
X112944346Y-80232133D01*
X112944346Y-80232133D02*
X112831860Y-80232133D01*
X112831860Y-80232133D02*
X112794364Y-80213386D01*
X112794364Y-80213386D02*
X112775617Y-80194638D01*
D12*
X104552619Y-68661904D02*
X105362142Y-68661904D01*
X105362142Y-68661904D02*
X105457380Y-68614285D01*
X105457380Y-68614285D02*
X105505000Y-68566666D01*
X105505000Y-68566666D02*
X105552619Y-68471428D01*
X105552619Y-68471428D02*
X105552619Y-68280952D01*
X105552619Y-68280952D02*
X105505000Y-68185714D01*
X105505000Y-68185714D02*
X105457380Y-68138095D01*
X105457380Y-68138095D02*
X105362142Y-68090476D01*
X105362142Y-68090476D02*
X104552619Y-68090476D01*
X105552619Y-67090476D02*
X105552619Y-67661904D01*
X105552619Y-67376190D02*
X104552619Y-67376190D01*
X104552619Y-67376190D02*
X104695476Y-67471428D01*
X104695476Y-67471428D02*
X104790714Y-67566666D01*
X104790714Y-67566666D02*
X104838333Y-67661904D01*
X109566904Y-72661905D02*
X109566904Y-72185715D01*
X109852619Y-72757143D02*
X108852619Y-72423810D01*
X108852619Y-72423810D02*
X109852619Y-72090477D01*
X109185952Y-71757143D02*
X109852619Y-71757143D01*
X109281190Y-71757143D02*
X109233571Y-71709524D01*
X109233571Y-71709524D02*
X109185952Y-71614286D01*
X109185952Y-71614286D02*
X109185952Y-71471429D01*
X109185952Y-71471429D02*
X109233571Y-71376191D01*
X109233571Y-71376191D02*
X109328809Y-71328572D01*
X109328809Y-71328572D02*
X109852619Y-71328572D01*
X109185952Y-70995238D02*
X109185952Y-70614286D01*
X108852619Y-70852381D02*
X109709761Y-70852381D01*
X109709761Y-70852381D02*
X109805000Y-70804762D01*
X109805000Y-70804762D02*
X109852619Y-70709524D01*
X109852619Y-70709524D02*
X109852619Y-70614286D01*
X109805000Y-69900000D02*
X109852619Y-69995238D01*
X109852619Y-69995238D02*
X109852619Y-70185714D01*
X109852619Y-70185714D02*
X109805000Y-70280952D01*
X109805000Y-70280952D02*
X109709761Y-70328571D01*
X109709761Y-70328571D02*
X109328809Y-70328571D01*
X109328809Y-70328571D02*
X109233571Y-70280952D01*
X109233571Y-70280952D02*
X109185952Y-70185714D01*
X109185952Y-70185714D02*
X109185952Y-69995238D01*
X109185952Y-69995238D02*
X109233571Y-69900000D01*
X109233571Y-69900000D02*
X109328809Y-69852381D01*
X109328809Y-69852381D02*
X109424047Y-69852381D01*
X109424047Y-69852381D02*
X109519285Y-70328571D01*
X109185952Y-69423809D02*
X109852619Y-69423809D01*
X109281190Y-69423809D02*
X109233571Y-69376190D01*
X109233571Y-69376190D02*
X109185952Y-69280952D01*
X109185952Y-69280952D02*
X109185952Y-69138095D01*
X109185952Y-69138095D02*
X109233571Y-69042857D01*
X109233571Y-69042857D02*
X109328809Y-68995238D01*
X109328809Y-68995238D02*
X109852619Y-68995238D01*
X109185952Y-68519047D02*
X109852619Y-68519047D01*
X109281190Y-68519047D02*
X109233571Y-68471428D01*
X109233571Y-68471428D02*
X109185952Y-68376190D01*
X109185952Y-68376190D02*
X109185952Y-68233333D01*
X109185952Y-68233333D02*
X109233571Y-68138095D01*
X109233571Y-68138095D02*
X109328809Y-68090476D01*
X109328809Y-68090476D02*
X109852619Y-68090476D01*
X109852619Y-67185714D02*
X109328809Y-67185714D01*
X109328809Y-67185714D02*
X109233571Y-67233333D01*
X109233571Y-67233333D02*
X109185952Y-67328571D01*
X109185952Y-67328571D02*
X109185952Y-67519047D01*
X109185952Y-67519047D02*
X109233571Y-67614285D01*
X109805000Y-67185714D02*
X109852619Y-67280952D01*
X109852619Y-67280952D02*
X109852619Y-67519047D01*
X109852619Y-67519047D02*
X109805000Y-67614285D01*
X109805000Y-67614285D02*
X109709761Y-67661904D01*
X109709761Y-67661904D02*
X109614523Y-67661904D01*
X109614523Y-67661904D02*
X109519285Y-67614285D01*
X109519285Y-67614285D02*
X109471666Y-67519047D01*
X109471666Y-67519047D02*
X109471666Y-67280952D01*
X109471666Y-67280952D02*
X109424047Y-67185714D01*
X109566904Y-65995237D02*
X109566904Y-65519047D01*
X109852619Y-66090475D02*
X108852619Y-65757142D01*
X108852619Y-65757142D02*
X109852619Y-65423809D01*
X109852619Y-65090475D02*
X109185952Y-65090475D01*
X109376428Y-65090475D02*
X109281190Y-65042856D01*
X109281190Y-65042856D02*
X109233571Y-64995237D01*
X109233571Y-64995237D02*
X109185952Y-64899999D01*
X109185952Y-64899999D02*
X109185952Y-64804761D01*
X109805000Y-64090475D02*
X109852619Y-64185713D01*
X109852619Y-64185713D02*
X109852619Y-64376189D01*
X109852619Y-64376189D02*
X109805000Y-64471427D01*
X109805000Y-64471427D02*
X109709761Y-64519046D01*
X109709761Y-64519046D02*
X109328809Y-64519046D01*
X109328809Y-64519046D02*
X109233571Y-64471427D01*
X109233571Y-64471427D02*
X109185952Y-64376189D01*
X109185952Y-64376189D02*
X109185952Y-64185713D01*
X109185952Y-64185713D02*
X109233571Y-64090475D01*
X109233571Y-64090475D02*
X109328809Y-64042856D01*
X109328809Y-64042856D02*
X109424047Y-64042856D01*
X109424047Y-64042856D02*
X109519285Y-64519046D01*
X109852619Y-63185713D02*
X109328809Y-63185713D01*
X109328809Y-63185713D02*
X109233571Y-63233332D01*
X109233571Y-63233332D02*
X109185952Y-63328570D01*
X109185952Y-63328570D02*
X109185952Y-63519046D01*
X109185952Y-63519046D02*
X109233571Y-63614284D01*
X109805000Y-63185713D02*
X109852619Y-63280951D01*
X109852619Y-63280951D02*
X109852619Y-63519046D01*
X109852619Y-63519046D02*
X109805000Y-63614284D01*
X109805000Y-63614284D02*
X109709761Y-63661903D01*
X109709761Y-63661903D02*
X109614523Y-63661903D01*
X109614523Y-63661903D02*
X109519285Y-63614284D01*
X109519285Y-63614284D02*
X109471666Y-63519046D01*
X109471666Y-63519046D02*
X109471666Y-63280951D01*
X109471666Y-63280951D02*
X109424047Y-63185713D01*
D11*
X138024383Y-79132133D02*
X137893149Y-78944657D01*
X137799411Y-79132133D02*
X137799411Y-78738432D01*
X137799411Y-78738432D02*
X137949392Y-78738432D01*
X137949392Y-78738432D02*
X137986888Y-78757180D01*
X137986888Y-78757180D02*
X138005635Y-78775928D01*
X138005635Y-78775928D02*
X138024383Y-78813423D01*
X138024383Y-78813423D02*
X138024383Y-78869666D01*
X138024383Y-78869666D02*
X138005635Y-78907161D01*
X138005635Y-78907161D02*
X137986888Y-78925909D01*
X137986888Y-78925909D02*
X137949392Y-78944657D01*
X137949392Y-78944657D02*
X137799411Y-78944657D01*
X138211860Y-79132133D02*
X138286850Y-79132133D01*
X138286850Y-79132133D02*
X138324346Y-79113386D01*
X138324346Y-79113386D02*
X138343093Y-79094638D01*
X138343093Y-79094638D02*
X138380589Y-79038395D01*
X138380589Y-79038395D02*
X138399336Y-78963404D01*
X138399336Y-78963404D02*
X138399336Y-78813423D01*
X138399336Y-78813423D02*
X138380589Y-78775928D01*
X138380589Y-78775928D02*
X138361841Y-78757180D01*
X138361841Y-78757180D02*
X138324346Y-78738432D01*
X138324346Y-78738432D02*
X138249355Y-78738432D01*
X138249355Y-78738432D02*
X138211860Y-78757180D01*
X138211860Y-78757180D02*
X138193112Y-78775928D01*
X138193112Y-78775928D02*
X138174364Y-78813423D01*
X138174364Y-78813423D02*
X138174364Y-78907161D01*
X138174364Y-78907161D02*
X138193112Y-78944657D01*
X138193112Y-78944657D02*
X138211860Y-78963404D01*
X138211860Y-78963404D02*
X138249355Y-78982152D01*
X138249355Y-78982152D02*
X138324346Y-78982152D01*
X138324346Y-78982152D02*
X138361841Y-78963404D01*
X138361841Y-78963404D02*
X138380589Y-78944657D01*
X138380589Y-78944657D02*
X138399336Y-78907161D01*
X137974383Y-80732133D02*
X137843149Y-80544657D01*
X137749411Y-80732133D02*
X137749411Y-80338432D01*
X137749411Y-80338432D02*
X137899392Y-80338432D01*
X137899392Y-80338432D02*
X137936888Y-80357180D01*
X137936888Y-80357180D02*
X137955635Y-80375928D01*
X137955635Y-80375928D02*
X137974383Y-80413423D01*
X137974383Y-80413423D02*
X137974383Y-80469666D01*
X137974383Y-80469666D02*
X137955635Y-80507161D01*
X137955635Y-80507161D02*
X137936888Y-80525909D01*
X137936888Y-80525909D02*
X137899392Y-80544657D01*
X137899392Y-80544657D02*
X137749411Y-80544657D01*
X138199355Y-80507161D02*
X138161860Y-80488414D01*
X138161860Y-80488414D02*
X138143112Y-80469666D01*
X138143112Y-80469666D02*
X138124364Y-80432171D01*
X138124364Y-80432171D02*
X138124364Y-80413423D01*
X138124364Y-80413423D02*
X138143112Y-80375928D01*
X138143112Y-80375928D02*
X138161860Y-80357180D01*
X138161860Y-80357180D02*
X138199355Y-80338432D01*
X138199355Y-80338432D02*
X138274346Y-80338432D01*
X138274346Y-80338432D02*
X138311841Y-80357180D01*
X138311841Y-80357180D02*
X138330589Y-80375928D01*
X138330589Y-80375928D02*
X138349336Y-80413423D01*
X138349336Y-80413423D02*
X138349336Y-80432171D01*
X138349336Y-80432171D02*
X138330589Y-80469666D01*
X138330589Y-80469666D02*
X138311841Y-80488414D01*
X138311841Y-80488414D02*
X138274346Y-80507161D01*
X138274346Y-80507161D02*
X138199355Y-80507161D01*
X138199355Y-80507161D02*
X138161860Y-80525909D01*
X138161860Y-80525909D02*
X138143112Y-80544657D01*
X138143112Y-80544657D02*
X138124364Y-80582152D01*
X138124364Y-80582152D02*
X138124364Y-80657143D01*
X138124364Y-80657143D02*
X138143112Y-80694638D01*
X138143112Y-80694638D02*
X138161860Y-80713386D01*
X138161860Y-80713386D02*
X138199355Y-80732133D01*
X138199355Y-80732133D02*
X138274346Y-80732133D01*
X138274346Y-80732133D02*
X138311841Y-80713386D01*
X138311841Y-80713386D02*
X138330589Y-80694638D01*
X138330589Y-80694638D02*
X138349336Y-80657143D01*
X138349336Y-80657143D02*
X138349336Y-80582152D01*
X138349336Y-80582152D02*
X138330589Y-80544657D01*
X138330589Y-80544657D02*
X138311841Y-80525909D01*
X138311841Y-80525909D02*
X138274346Y-80507161D01*
X135682133Y-74705616D02*
X135494657Y-74836850D01*
X135682133Y-74930588D02*
X135288432Y-74930588D01*
X135288432Y-74930588D02*
X135288432Y-74780607D01*
X135288432Y-74780607D02*
X135307180Y-74743112D01*
X135307180Y-74743112D02*
X135325928Y-74724364D01*
X135325928Y-74724364D02*
X135363423Y-74705616D01*
X135363423Y-74705616D02*
X135419666Y-74705616D01*
X135419666Y-74705616D02*
X135457161Y-74724364D01*
X135457161Y-74724364D02*
X135475909Y-74743112D01*
X135475909Y-74743112D02*
X135494657Y-74780607D01*
X135494657Y-74780607D02*
X135494657Y-74930588D01*
X135288432Y-74349411D02*
X135288432Y-74536887D01*
X135288432Y-74536887D02*
X135475909Y-74555635D01*
X135475909Y-74555635D02*
X135457161Y-74536887D01*
X135457161Y-74536887D02*
X135438414Y-74499392D01*
X135438414Y-74499392D02*
X135438414Y-74405654D01*
X135438414Y-74405654D02*
X135457161Y-74368158D01*
X135457161Y-74368158D02*
X135475909Y-74349411D01*
X135475909Y-74349411D02*
X135513404Y-74330663D01*
X135513404Y-74330663D02*
X135607143Y-74330663D01*
X135607143Y-74330663D02*
X135644638Y-74349411D01*
X135644638Y-74349411D02*
X135663386Y-74368158D01*
X135663386Y-74368158D02*
X135682133Y-74405654D01*
X135682133Y-74405654D02*
X135682133Y-74499392D01*
X135682133Y-74499392D02*
X135663386Y-74536887D01*
X135663386Y-74536887D02*
X135644638Y-74555635D01*
X135682133Y-71655616D02*
X135494657Y-71786850D01*
X135682133Y-71880588D02*
X135288432Y-71880588D01*
X135288432Y-71880588D02*
X135288432Y-71730607D01*
X135288432Y-71730607D02*
X135307180Y-71693112D01*
X135307180Y-71693112D02*
X135325928Y-71674364D01*
X135325928Y-71674364D02*
X135363423Y-71655616D01*
X135363423Y-71655616D02*
X135419666Y-71655616D01*
X135419666Y-71655616D02*
X135457161Y-71674364D01*
X135457161Y-71674364D02*
X135475909Y-71693112D01*
X135475909Y-71693112D02*
X135494657Y-71730607D01*
X135494657Y-71730607D02*
X135494657Y-71880588D01*
X135419666Y-71318158D02*
X135682133Y-71318158D01*
X135269685Y-71411897D02*
X135550900Y-71505635D01*
X135550900Y-71505635D02*
X135550900Y-71261915D01*
D12*
X138816666Y-76262619D02*
X138816666Y-76976904D01*
X138816666Y-76976904D02*
X138769047Y-77119761D01*
X138769047Y-77119761D02*
X138673809Y-77215000D01*
X138673809Y-77215000D02*
X138530952Y-77262619D01*
X138530952Y-77262619D02*
X138435714Y-77262619D01*
X139292857Y-77262619D02*
X139292857Y-76262619D01*
X139292857Y-76262619D02*
X139673809Y-76262619D01*
X139673809Y-76262619D02*
X139769047Y-76310238D01*
X139769047Y-76310238D02*
X139816666Y-76357857D01*
X139816666Y-76357857D02*
X139864285Y-76453095D01*
X139864285Y-76453095D02*
X139864285Y-76595952D01*
X139864285Y-76595952D02*
X139816666Y-76691190D01*
X139816666Y-76691190D02*
X139769047Y-76738809D01*
X139769047Y-76738809D02*
X139673809Y-76786428D01*
X139673809Y-76786428D02*
X139292857Y-76786428D01*
X140245238Y-76357857D02*
X140292857Y-76310238D01*
X140292857Y-76310238D02*
X140388095Y-76262619D01*
X140388095Y-76262619D02*
X140626190Y-76262619D01*
X140626190Y-76262619D02*
X140721428Y-76310238D01*
X140721428Y-76310238D02*
X140769047Y-76357857D01*
X140769047Y-76357857D02*
X140816666Y-76453095D01*
X140816666Y-76453095D02*
X140816666Y-76548333D01*
X140816666Y-76548333D02*
X140769047Y-76691190D01*
X140769047Y-76691190D02*
X140197619Y-77262619D01*
X140197619Y-77262619D02*
X140816666Y-77262619D01*
X141387380Y-72591666D02*
X141435000Y-72639285D01*
X141435000Y-72639285D02*
X141482619Y-72782142D01*
X141482619Y-72782142D02*
X141482619Y-72877380D01*
X141482619Y-72877380D02*
X141435000Y-73020237D01*
X141435000Y-73020237D02*
X141339761Y-73115475D01*
X141339761Y-73115475D02*
X141244523Y-73163094D01*
X141244523Y-73163094D02*
X141054047Y-73210713D01*
X141054047Y-73210713D02*
X140911190Y-73210713D01*
X140911190Y-73210713D02*
X140720714Y-73163094D01*
X140720714Y-73163094D02*
X140625476Y-73115475D01*
X140625476Y-73115475D02*
X140530238Y-73020237D01*
X140530238Y-73020237D02*
X140482619Y-72877380D01*
X140482619Y-72877380D02*
X140482619Y-72782142D01*
X140482619Y-72782142D02*
X140530238Y-72639285D01*
X140530238Y-72639285D02*
X140577857Y-72591666D01*
X140482619Y-71686904D02*
X140482619Y-72163094D01*
X140482619Y-72163094D02*
X140958809Y-72210713D01*
X140958809Y-72210713D02*
X140911190Y-72163094D01*
X140911190Y-72163094D02*
X140863571Y-72067856D01*
X140863571Y-72067856D02*
X140863571Y-71829761D01*
X140863571Y-71829761D02*
X140911190Y-71734523D01*
X140911190Y-71734523D02*
X140958809Y-71686904D01*
X140958809Y-71686904D02*
X141054047Y-71639285D01*
X141054047Y-71639285D02*
X141292142Y-71639285D01*
X141292142Y-71639285D02*
X141387380Y-71686904D01*
X141387380Y-71686904D02*
X141435000Y-71734523D01*
X141435000Y-71734523D02*
X141482619Y-71829761D01*
X141482619Y-71829761D02*
X141482619Y-72067856D01*
X141482619Y-72067856D02*
X141435000Y-72163094D01*
X141435000Y-72163094D02*
X141387380Y-72210713D01*
X144387380Y-80766666D02*
X144435000Y-80814285D01*
X144435000Y-80814285D02*
X144482619Y-80957142D01*
X144482619Y-80957142D02*
X144482619Y-81052380D01*
X144482619Y-81052380D02*
X144435000Y-81195237D01*
X144435000Y-81195237D02*
X144339761Y-81290475D01*
X144339761Y-81290475D02*
X144244523Y-81338094D01*
X144244523Y-81338094D02*
X144054047Y-81385713D01*
X144054047Y-81385713D02*
X143911190Y-81385713D01*
X143911190Y-81385713D02*
X143720714Y-81338094D01*
X143720714Y-81338094D02*
X143625476Y-81290475D01*
X143625476Y-81290475D02*
X143530238Y-81195237D01*
X143530238Y-81195237D02*
X143482619Y-81052380D01*
X143482619Y-81052380D02*
X143482619Y-80957142D01*
X143482619Y-80957142D02*
X143530238Y-80814285D01*
X143530238Y-80814285D02*
X143577857Y-80766666D01*
X144482619Y-80290475D02*
X144482619Y-80099999D01*
X144482619Y-80099999D02*
X144435000Y-80004761D01*
X144435000Y-80004761D02*
X144387380Y-79957142D01*
X144387380Y-79957142D02*
X144244523Y-79861904D01*
X144244523Y-79861904D02*
X144054047Y-79814285D01*
X144054047Y-79814285D02*
X143673095Y-79814285D01*
X143673095Y-79814285D02*
X143577857Y-79861904D01*
X143577857Y-79861904D02*
X143530238Y-79909523D01*
X143530238Y-79909523D02*
X143482619Y-80004761D01*
X143482619Y-80004761D02*
X143482619Y-80195237D01*
X143482619Y-80195237D02*
X143530238Y-80290475D01*
X143530238Y-80290475D02*
X143577857Y-80338094D01*
X143577857Y-80338094D02*
X143673095Y-80385713D01*
X143673095Y-80385713D02*
X143911190Y-80385713D01*
X143911190Y-80385713D02*
X144006428Y-80338094D01*
X144006428Y-80338094D02*
X144054047Y-80290475D01*
X144054047Y-80290475D02*
X144101666Y-80195237D01*
X144101666Y-80195237D02*
X144101666Y-80004761D01*
X144101666Y-80004761D02*
X144054047Y-79909523D01*
X144054047Y-79909523D02*
X144006428Y-79861904D01*
X144006428Y-79861904D02*
X143911190Y-79814285D01*
D11*
X137954383Y-64624638D02*
X137935635Y-64643386D01*
X137935635Y-64643386D02*
X137879392Y-64662133D01*
X137879392Y-64662133D02*
X137841897Y-64662133D01*
X137841897Y-64662133D02*
X137785654Y-64643386D01*
X137785654Y-64643386D02*
X137748159Y-64605890D01*
X137748159Y-64605890D02*
X137729411Y-64568395D01*
X137729411Y-64568395D02*
X137710663Y-64493404D01*
X137710663Y-64493404D02*
X137710663Y-64437161D01*
X137710663Y-64437161D02*
X137729411Y-64362171D01*
X137729411Y-64362171D02*
X137748159Y-64324675D01*
X137748159Y-64324675D02*
X137785654Y-64287180D01*
X137785654Y-64287180D02*
X137841897Y-64268432D01*
X137841897Y-64268432D02*
X137879392Y-64268432D01*
X137879392Y-64268432D02*
X137935635Y-64287180D01*
X137935635Y-64287180D02*
X137954383Y-64305928D01*
X138085617Y-64268432D02*
X138348084Y-64268432D01*
X138348084Y-64268432D02*
X138179355Y-64662133D01*
D13*
X144837526Y-63639762D02*
X143567526Y-63639762D01*
X144716573Y-62309285D02*
X144777050Y-62369761D01*
X144777050Y-62369761D02*
X144837526Y-62551190D01*
X144837526Y-62551190D02*
X144837526Y-62672142D01*
X144837526Y-62672142D02*
X144777050Y-62853571D01*
X144777050Y-62853571D02*
X144656097Y-62974523D01*
X144656097Y-62974523D02*
X144535145Y-63035000D01*
X144535145Y-63035000D02*
X144293240Y-63095476D01*
X144293240Y-63095476D02*
X144111811Y-63095476D01*
X144111811Y-63095476D02*
X143869907Y-63035000D01*
X143869907Y-63035000D02*
X143748954Y-62974523D01*
X143748954Y-62974523D02*
X143628002Y-62853571D01*
X143628002Y-62853571D02*
X143567526Y-62672142D01*
X143567526Y-62672142D02*
X143567526Y-62551190D01*
X143567526Y-62551190D02*
X143628002Y-62369761D01*
X143628002Y-62369761D02*
X143688478Y-62309285D01*
X144837526Y-61099761D02*
X144837526Y-61825476D01*
X144837526Y-61462619D02*
X143567526Y-61462619D01*
X143567526Y-61462619D02*
X143748954Y-61583571D01*
X143748954Y-61583571D02*
X143869907Y-61704523D01*
X143869907Y-61704523D02*
X143930383Y-61825476D01*
D12*
X146683333Y-70137380D02*
X146635714Y-70185000D01*
X146635714Y-70185000D02*
X146492857Y-70232619D01*
X146492857Y-70232619D02*
X146397619Y-70232619D01*
X146397619Y-70232619D02*
X146254762Y-70185000D01*
X146254762Y-70185000D02*
X146159524Y-70089761D01*
X146159524Y-70089761D02*
X146111905Y-69994523D01*
X146111905Y-69994523D02*
X146064286Y-69804047D01*
X146064286Y-69804047D02*
X146064286Y-69661190D01*
X146064286Y-69661190D02*
X146111905Y-69470714D01*
X146111905Y-69470714D02*
X146159524Y-69375476D01*
X146159524Y-69375476D02*
X146254762Y-69280238D01*
X146254762Y-69280238D02*
X146397619Y-69232619D01*
X146397619Y-69232619D02*
X146492857Y-69232619D01*
X146492857Y-69232619D02*
X146635714Y-69280238D01*
X146635714Y-69280238D02*
X146683333Y-69327857D01*
X147540476Y-69565952D02*
X147540476Y-70232619D01*
X147302381Y-69185000D02*
X147064286Y-69899285D01*
X147064286Y-69899285D02*
X147683333Y-69899285D01*
D14*
X147000000Y-80638785D02*
X147000000Y-80853071D01*
X147000000Y-80853071D02*
X146985715Y-80895928D01*
X146985715Y-80895928D02*
X146957143Y-80924500D01*
X146957143Y-80924500D02*
X146914286Y-80938785D01*
X146914286Y-80938785D02*
X146885715Y-80938785D01*
X147142857Y-80938785D02*
X147142857Y-80638785D01*
X147142857Y-80638785D02*
X147257143Y-80638785D01*
X147257143Y-80638785D02*
X147285714Y-80653071D01*
X147285714Y-80653071D02*
X147300000Y-80667357D01*
X147300000Y-80667357D02*
X147314286Y-80695928D01*
X147314286Y-80695928D02*
X147314286Y-80738785D01*
X147314286Y-80738785D02*
X147300000Y-80767357D01*
X147300000Y-80767357D02*
X147285714Y-80781642D01*
X147285714Y-80781642D02*
X147257143Y-80795928D01*
X147257143Y-80795928D02*
X147142857Y-80795928D01*
X147414286Y-80638785D02*
X147600000Y-80638785D01*
X147600000Y-80638785D02*
X147500000Y-80753071D01*
X147500000Y-80753071D02*
X147542857Y-80753071D01*
X147542857Y-80753071D02*
X147571429Y-80767357D01*
X147571429Y-80767357D02*
X147585714Y-80781642D01*
X147585714Y-80781642D02*
X147600000Y-80810214D01*
X147600000Y-80810214D02*
X147600000Y-80881642D01*
X147600000Y-80881642D02*
X147585714Y-80910214D01*
X147585714Y-80910214D02*
X147571429Y-80924500D01*
X147571429Y-80924500D02*
X147542857Y-80938785D01*
X147542857Y-80938785D02*
X147457143Y-80938785D01*
X147457143Y-80938785D02*
X147428571Y-80924500D01*
X147428571Y-80924500D02*
X147414286Y-80910214D01*
D12*
X144967619Y-74688333D02*
X145681904Y-74688333D01*
X145681904Y-74688333D02*
X145824761Y-74735952D01*
X145824761Y-74735952D02*
X145920000Y-74831190D01*
X145920000Y-74831190D02*
X145967619Y-74974047D01*
X145967619Y-74974047D02*
X145967619Y-75069285D01*
X145967619Y-73688333D02*
X145967619Y-74259761D01*
X145967619Y-73974047D02*
X144967619Y-73974047D01*
X144967619Y-73974047D02*
X145110476Y-74069285D01*
X145110476Y-74069285D02*
X145205714Y-74164523D01*
X145205714Y-74164523D02*
X145253333Y-74259761D01*
X137511905Y-60012619D02*
X137511905Y-59012619D01*
X137511905Y-59012619D02*
X137750000Y-59012619D01*
X137750000Y-59012619D02*
X137892857Y-59060238D01*
X137892857Y-59060238D02*
X137988095Y-59155476D01*
X137988095Y-59155476D02*
X138035714Y-59250714D01*
X138035714Y-59250714D02*
X138083333Y-59441190D01*
X138083333Y-59441190D02*
X138083333Y-59584047D01*
X138083333Y-59584047D02*
X138035714Y-59774523D01*
X138035714Y-59774523D02*
X137988095Y-59869761D01*
X137988095Y-59869761D02*
X137892857Y-59965000D01*
X137892857Y-59965000D02*
X137750000Y-60012619D01*
X137750000Y-60012619D02*
X137511905Y-60012619D01*
X139035714Y-60012619D02*
X138464286Y-60012619D01*
X138750000Y-60012619D02*
X138750000Y-59012619D01*
X138750000Y-59012619D02*
X138654762Y-59155476D01*
X138654762Y-59155476D02*
X138559524Y-59250714D01*
X138559524Y-59250714D02*
X138464286Y-59298333D01*
D14*
X117400000Y-78310214D02*
X117385714Y-78324500D01*
X117385714Y-78324500D02*
X117342857Y-78338785D01*
X117342857Y-78338785D02*
X117314285Y-78338785D01*
X117314285Y-78338785D02*
X117271428Y-78324500D01*
X117271428Y-78324500D02*
X117242857Y-78295928D01*
X117242857Y-78295928D02*
X117228571Y-78267357D01*
X117228571Y-78267357D02*
X117214285Y-78210214D01*
X117214285Y-78210214D02*
X117214285Y-78167357D01*
X117214285Y-78167357D02*
X117228571Y-78110214D01*
X117228571Y-78110214D02*
X117242857Y-78081642D01*
X117242857Y-78081642D02*
X117271428Y-78053071D01*
X117271428Y-78053071D02*
X117314285Y-78038785D01*
X117314285Y-78038785D02*
X117342857Y-78038785D01*
X117342857Y-78038785D02*
X117385714Y-78053071D01*
X117385714Y-78053071D02*
X117400000Y-78067357D01*
X117685714Y-78338785D02*
X117514285Y-78338785D01*
X117600000Y-78338785D02*
X117600000Y-78038785D01*
X117600000Y-78038785D02*
X117571428Y-78081642D01*
X117571428Y-78081642D02*
X117542857Y-78110214D01*
X117542857Y-78110214D02*
X117514285Y-78124500D01*
X109700000Y-80210214D02*
X109685714Y-80224500D01*
X109685714Y-80224500D02*
X109642857Y-80238785D01*
X109642857Y-80238785D02*
X109614285Y-80238785D01*
X109614285Y-80238785D02*
X109571428Y-80224500D01*
X109571428Y-80224500D02*
X109542857Y-80195928D01*
X109542857Y-80195928D02*
X109528571Y-80167357D01*
X109528571Y-80167357D02*
X109514285Y-80110214D01*
X109514285Y-80110214D02*
X109514285Y-80067357D01*
X109514285Y-80067357D02*
X109528571Y-80010214D01*
X109528571Y-80010214D02*
X109542857Y-79981642D01*
X109542857Y-79981642D02*
X109571428Y-79953071D01*
X109571428Y-79953071D02*
X109614285Y-79938785D01*
X109614285Y-79938785D02*
X109642857Y-79938785D01*
X109642857Y-79938785D02*
X109685714Y-79953071D01*
X109685714Y-79953071D02*
X109700000Y-79967357D01*
X109871428Y-80067357D02*
X109842857Y-80053071D01*
X109842857Y-80053071D02*
X109828571Y-80038785D01*
X109828571Y-80038785D02*
X109814285Y-80010214D01*
X109814285Y-80010214D02*
X109814285Y-79995928D01*
X109814285Y-79995928D02*
X109828571Y-79967357D01*
X109828571Y-79967357D02*
X109842857Y-79953071D01*
X109842857Y-79953071D02*
X109871428Y-79938785D01*
X109871428Y-79938785D02*
X109928571Y-79938785D01*
X109928571Y-79938785D02*
X109957143Y-79953071D01*
X109957143Y-79953071D02*
X109971428Y-79967357D01*
X109971428Y-79967357D02*
X109985714Y-79995928D01*
X109985714Y-79995928D02*
X109985714Y-80010214D01*
X109985714Y-80010214D02*
X109971428Y-80038785D01*
X109971428Y-80038785D02*
X109957143Y-80053071D01*
X109957143Y-80053071D02*
X109928571Y-80067357D01*
X109928571Y-80067357D02*
X109871428Y-80067357D01*
X109871428Y-80067357D02*
X109842857Y-80081642D01*
X109842857Y-80081642D02*
X109828571Y-80095928D01*
X109828571Y-80095928D02*
X109814285Y-80124500D01*
X109814285Y-80124500D02*
X109814285Y-80181642D01*
X109814285Y-80181642D02*
X109828571Y-80210214D01*
X109828571Y-80210214D02*
X109842857Y-80224500D01*
X109842857Y-80224500D02*
X109871428Y-80238785D01*
X109871428Y-80238785D02*
X109928571Y-80238785D01*
X109928571Y-80238785D02*
X109957143Y-80224500D01*
X109957143Y-80224500D02*
X109971428Y-80210214D01*
X109971428Y-80210214D02*
X109985714Y-80181642D01*
X109985714Y-80181642D02*
X109985714Y-80124500D01*
X109985714Y-80124500D02*
X109971428Y-80095928D01*
X109971428Y-80095928D02*
X109957143Y-80081642D01*
X109957143Y-80081642D02*
X109928571Y-80067357D01*
D11*
X137954383Y-62144638D02*
X137935635Y-62163386D01*
X137935635Y-62163386D02*
X137879392Y-62182133D01*
X137879392Y-62182133D02*
X137841897Y-62182133D01*
X137841897Y-62182133D02*
X137785654Y-62163386D01*
X137785654Y-62163386D02*
X137748159Y-62125890D01*
X137748159Y-62125890D02*
X137729411Y-62088395D01*
X137729411Y-62088395D02*
X137710663Y-62013404D01*
X137710663Y-62013404D02*
X137710663Y-61957161D01*
X137710663Y-61957161D02*
X137729411Y-61882171D01*
X137729411Y-61882171D02*
X137748159Y-61844675D01*
X137748159Y-61844675D02*
X137785654Y-61807180D01*
X137785654Y-61807180D02*
X137841897Y-61788432D01*
X137841897Y-61788432D02*
X137879392Y-61788432D01*
X137879392Y-61788432D02*
X137935635Y-61807180D01*
X137935635Y-61807180D02*
X137954383Y-61825928D01*
X138291841Y-61788432D02*
X138216850Y-61788432D01*
X138216850Y-61788432D02*
X138179355Y-61807180D01*
X138179355Y-61807180D02*
X138160607Y-61825928D01*
X138160607Y-61825928D02*
X138123112Y-61882171D01*
X138123112Y-61882171D02*
X138104364Y-61957161D01*
X138104364Y-61957161D02*
X138104364Y-62107143D01*
X138104364Y-62107143D02*
X138123112Y-62144638D01*
X138123112Y-62144638D02*
X138141860Y-62163386D01*
X138141860Y-62163386D02*
X138179355Y-62182133D01*
X138179355Y-62182133D02*
X138254346Y-62182133D01*
X138254346Y-62182133D02*
X138291841Y-62163386D01*
X138291841Y-62163386D02*
X138310589Y-62144638D01*
X138310589Y-62144638D02*
X138329336Y-62107143D01*
X138329336Y-62107143D02*
X138329336Y-62013404D01*
X138329336Y-62013404D02*
X138310589Y-61975909D01*
X138310589Y-61975909D02*
X138291841Y-61957161D01*
X138291841Y-61957161D02*
X138254346Y-61938414D01*
X138254346Y-61938414D02*
X138179355Y-61938414D01*
X138179355Y-61938414D02*
X138141860Y-61957161D01*
X138141860Y-61957161D02*
X138123112Y-61975909D01*
X138123112Y-61975909D02*
X138104364Y-62013404D01*
D14*
X125700000Y-80738785D02*
X125700000Y-80953071D01*
X125700000Y-80953071D02*
X125685715Y-80995928D01*
X125685715Y-80995928D02*
X125657143Y-81024500D01*
X125657143Y-81024500D02*
X125614286Y-81038785D01*
X125614286Y-81038785D02*
X125585715Y-81038785D01*
X125842857Y-81038785D02*
X125842857Y-80738785D01*
X125842857Y-80738785D02*
X125957143Y-80738785D01*
X125957143Y-80738785D02*
X125985714Y-80753071D01*
X125985714Y-80753071D02*
X126000000Y-80767357D01*
X126000000Y-80767357D02*
X126014286Y-80795928D01*
X126014286Y-80795928D02*
X126014286Y-80838785D01*
X126014286Y-80838785D02*
X126000000Y-80867357D01*
X126000000Y-80867357D02*
X125985714Y-80881642D01*
X125985714Y-80881642D02*
X125957143Y-80895928D01*
X125957143Y-80895928D02*
X125842857Y-80895928D01*
X126300000Y-81038785D02*
X126128571Y-81038785D01*
X126214286Y-81038785D02*
X126214286Y-80738785D01*
X126214286Y-80738785D02*
X126185714Y-80781642D01*
X126185714Y-80781642D02*
X126157143Y-80810214D01*
X126157143Y-80810214D02*
X126128571Y-80824500D01*
D11*
X120384383Y-81582133D02*
X120253149Y-81394657D01*
X120159411Y-81582133D02*
X120159411Y-81188432D01*
X120159411Y-81188432D02*
X120309392Y-81188432D01*
X120309392Y-81188432D02*
X120346888Y-81207180D01*
X120346888Y-81207180D02*
X120365635Y-81225928D01*
X120365635Y-81225928D02*
X120384383Y-81263423D01*
X120384383Y-81263423D02*
X120384383Y-81319666D01*
X120384383Y-81319666D02*
X120365635Y-81357161D01*
X120365635Y-81357161D02*
X120346888Y-81375909D01*
X120346888Y-81375909D02*
X120309392Y-81394657D01*
X120309392Y-81394657D02*
X120159411Y-81394657D01*
X120759336Y-81582133D02*
X120534364Y-81582133D01*
X120646850Y-81582133D02*
X120646850Y-81188432D01*
X120646850Y-81188432D02*
X120609355Y-81244675D01*
X120609355Y-81244675D02*
X120571860Y-81282171D01*
X120571860Y-81282171D02*
X120534364Y-81300918D01*
X146559383Y-72889638D02*
X146540635Y-72908386D01*
X146540635Y-72908386D02*
X146484392Y-72927133D01*
X146484392Y-72927133D02*
X146446897Y-72927133D01*
X146446897Y-72927133D02*
X146390654Y-72908386D01*
X146390654Y-72908386D02*
X146353159Y-72870890D01*
X146353159Y-72870890D02*
X146334411Y-72833395D01*
X146334411Y-72833395D02*
X146315663Y-72758404D01*
X146315663Y-72758404D02*
X146315663Y-72702161D01*
X146315663Y-72702161D02*
X146334411Y-72627171D01*
X146334411Y-72627171D02*
X146353159Y-72589675D01*
X146353159Y-72589675D02*
X146390654Y-72552180D01*
X146390654Y-72552180D02*
X146446897Y-72533432D01*
X146446897Y-72533432D02*
X146484392Y-72533432D01*
X146484392Y-72533432D02*
X146540635Y-72552180D01*
X146540635Y-72552180D02*
X146559383Y-72570928D01*
X146709364Y-72570928D02*
X146728112Y-72552180D01*
X146728112Y-72552180D02*
X146765607Y-72533432D01*
X146765607Y-72533432D02*
X146859346Y-72533432D01*
X146859346Y-72533432D02*
X146896841Y-72552180D01*
X146896841Y-72552180D02*
X146915589Y-72570928D01*
X146915589Y-72570928D02*
X146934336Y-72608423D01*
X146934336Y-72608423D02*
X146934336Y-72645918D01*
X146934336Y-72645918D02*
X146915589Y-72702161D01*
X146915589Y-72702161D02*
X146690617Y-72927133D01*
X146690617Y-72927133D02*
X146934336Y-72927133D01*
D15*
X140650000Y-72950000D02*
G75*
G03*
X140650000Y-72950000I-100000J0D01*
G01*
D16*
X139950000Y-73445000D02*
X136950000Y-73445000D01*
X136950000Y-70955000D02*
X139950000Y-70955000D01*
D17*
X106390000Y-76900000D02*
X113140000Y-76900000D01*
X106390000Y-76900000D02*
X106390000Y-58900000D01*
X131140000Y-76900000D02*
X131890000Y-76900000D01*
X131890000Y-76900000D02*
X131890000Y-75900000D01*
X106390000Y-58900000D02*
X113140000Y-58900000D01*
X112330000Y-58900000D02*
X112330000Y-76900000D01*
X131140000Y-58900000D02*
X131890000Y-58900000D01*
X131890000Y-58900000D02*
X131890000Y-59900000D01*
D16*
X138140000Y-81150000D02*
X138360000Y-81150000D01*
X138140000Y-82050000D02*
X138360000Y-82050000D01*
X134900000Y-71690000D02*
X134900000Y-71910000D01*
X134000000Y-71690000D02*
X134000000Y-71910000D01*
D17*
X138250000Y-74000000D02*
X141050000Y-74000000D01*
X141050000Y-74000000D02*
X141050000Y-76000000D01*
X141050000Y-76000000D02*
X138250000Y-76000000D01*
X138250000Y-76000000D02*
X138250000Y-74000000D01*
X142960000Y-72565580D02*
X142960000Y-72284420D01*
X141940000Y-72565580D02*
X141940000Y-72284420D01*
D15*
X142650000Y-78550000D02*
G75*
G03*
X142650000Y-78550000I-100000J0D01*
G01*
D16*
X141950000Y-79045000D02*
X138950000Y-79045000D01*
X138950000Y-76555000D02*
X141950000Y-76555000D01*
D17*
X144940000Y-80740580D02*
X144940000Y-80459420D01*
X145960000Y-80740580D02*
X145960000Y-80459420D01*
D15*
X141125000Y-66425000D02*
X141125000Y-64675000D01*
X141000000Y-64150000D02*
X141000000Y-60650000D01*
X147500000Y-64150000D02*
X141000000Y-64150000D01*
X141000000Y-60650000D02*
X147500000Y-60650000D01*
X147500000Y-60650000D02*
X147500000Y-64150000D01*
D17*
X146709420Y-70690000D02*
X146990580Y-70690000D01*
X146709420Y-71710000D02*
X146990580Y-71710000D01*
X146650000Y-78200000D02*
X149450000Y-78200000D01*
X146650000Y-80200000D02*
X146650000Y-78200000D01*
X149450000Y-78200000D02*
X149450000Y-80200000D01*
X149450000Y-80200000D02*
X146650000Y-80200000D01*
D16*
X153950000Y-76200000D02*
X154075000Y-76200000D01*
X154075000Y-76200000D02*
X154075000Y-68700000D01*
X154075000Y-68700000D02*
X153950000Y-68700000D01*
D15*
X148750000Y-73850000D02*
G75*
G03*
X148750000Y-73850000I-100000J0D01*
G01*
D17*
X136565000Y-60240000D02*
X136565000Y-62160000D01*
X136565000Y-62160000D02*
X139250000Y-62160000D01*
X139250000Y-60240000D02*
X136565000Y-60240000D01*
X119134120Y-78090000D02*
X119415280Y-78090000D01*
X119134120Y-79110000D02*
X119415280Y-79110000D01*
X109359420Y-78490000D02*
X109640580Y-78490000D01*
X109359420Y-79510000D02*
X109640580Y-79510000D01*
X127400000Y-80200000D02*
X124600000Y-80200000D01*
X127400000Y-78200000D02*
X127400000Y-80200000D01*
X124600000Y-80200000D02*
X124600000Y-78200000D01*
X124600000Y-78200000D02*
X127400000Y-78200000D01*
%LPC*%
D18*
X139685000Y-72950000D03*
X139685000Y-72450000D03*
X139685000Y-71950000D03*
X139685000Y-71450000D03*
X137215000Y-71450000D03*
X137215000Y-71950000D03*
X137215000Y-72450000D03*
X137215000Y-72950000D03*
D19*
X138450000Y-72200000D03*
D20*
X114890000Y-79400000D03*
X116410000Y-79400000D03*
D21*
X139040000Y-59200000D03*
X137460000Y-59200000D03*
D22*
X113280000Y-79000000D03*
X111720000Y-79000000D03*
D23*
X113880000Y-76650000D03*
X115150000Y-76650000D03*
X116420000Y-76650000D03*
X117690000Y-76650000D03*
X118960000Y-76650000D03*
X120230000Y-76650000D03*
X121500000Y-76650000D03*
X122770000Y-76650000D03*
X124040000Y-76650000D03*
X125310000Y-76650000D03*
X126580000Y-76650000D03*
X127850000Y-76650000D03*
X129120000Y-76650000D03*
X130390000Y-76650000D03*
D24*
X131640000Y-74885000D03*
X131640000Y-73615000D03*
X131640000Y-72345000D03*
X131640000Y-71075000D03*
X131640000Y-69805000D03*
X131640000Y-68535000D03*
X131640000Y-67265000D03*
X131640000Y-65995000D03*
X131640000Y-64725000D03*
X131640000Y-63455000D03*
X131640000Y-62185000D03*
X131640000Y-60915000D03*
D23*
X130390000Y-59150000D03*
X129120000Y-59150000D03*
X127850000Y-59150000D03*
X126580000Y-59150000D03*
X125310000Y-59150000D03*
X124040000Y-59150000D03*
X122770000Y-59150000D03*
X121500000Y-59150000D03*
X120230000Y-59150000D03*
X118960000Y-59150000D03*
X117690000Y-59150000D03*
X116420000Y-59150000D03*
X115150000Y-59150000D03*
X113880000Y-59150000D03*
D25*
X120200000Y-70800000D03*
X121600000Y-70800000D03*
X123000000Y-70800000D03*
X120200000Y-69400000D03*
X121600000Y-69400000D03*
X123000000Y-69400000D03*
X120200000Y-68000000D03*
X121600000Y-68000000D03*
X123000000Y-68000000D03*
D26*
X137570000Y-80000000D03*
X138930000Y-80000000D03*
D27*
X137430000Y-81600000D03*
X139070000Y-81600000D03*
D28*
X134450000Y-74120000D03*
X134450000Y-75480000D03*
D29*
X134450000Y-70980000D03*
X134450000Y-72620000D03*
D30*
X140300000Y-75000000D03*
X139000000Y-75000000D03*
D31*
X142450000Y-73200000D03*
X142450000Y-71650000D03*
D18*
X141685000Y-78550000D03*
X141685000Y-78050000D03*
X141685000Y-77550000D03*
X141685000Y-77050000D03*
X139215000Y-77050000D03*
X139215000Y-77550000D03*
X139215000Y-78050000D03*
X139215000Y-78550000D03*
D19*
X140450000Y-77800000D03*
D31*
X145450000Y-79825000D03*
X145450000Y-81375000D03*
D22*
X137450000Y-65530000D03*
X139010000Y-65530000D03*
D32*
X141950000Y-65550000D03*
X144250000Y-65550000D03*
X146550000Y-65550000D03*
D33*
X144250000Y-59250000D03*
D34*
X146075000Y-71200000D03*
X147625000Y-71200000D03*
D30*
X147400000Y-79200000D03*
X148700000Y-79200000D03*
D35*
X149950000Y-73750000D03*
X149950000Y-73100000D03*
X149950000Y-72450000D03*
X149950000Y-71800000D03*
X149950000Y-71150000D03*
D36*
X150075000Y-75550000D03*
X150075000Y-69350000D03*
D37*
X152625000Y-76250000D03*
D38*
X152625000Y-73650000D03*
X152625000Y-71250000D03*
D37*
X152625000Y-68650000D03*
D39*
X137312500Y-61200000D03*
X139187500Y-61200000D03*
D34*
X118499700Y-78600000D03*
X120049700Y-78600000D03*
X108725000Y-79000000D03*
X110275000Y-79000000D03*
D22*
X137450000Y-63050000D03*
X139010000Y-63050000D03*
D30*
X126650000Y-79200000D03*
X125350000Y-79200000D03*
D26*
X119930000Y-80200000D03*
X118570000Y-80200000D03*
D22*
X146055000Y-73795000D03*
X147615000Y-73795000D03*
%LPD*%
M02*
