G04 #@! TF.GenerationSoftware,KiCad,Pcbnew,7.0.2-6a45011f42~172~ubuntu20.04.1*
G04 #@! TF.CreationDate,2023-05-13T12:04:57+10:00*
G04 #@! TF.ProjectId,pcb_redesign,7063625f-7265-4646-9573-69676e2e6b69,rev?*
G04 #@! TF.SameCoordinates,Original*
G04 #@! TF.FileFunction,Soldermask,Top*
G04 #@! TF.FilePolarity,Negative*
%FSLAX46Y46*%
G04 Gerber Fmt 4.6, Leading zero omitted, Abs format (unit mm)*
G04 Created by KiCad (PCBNEW 7.0.2-6a45011f42~172~ubuntu20.04.1) date 2023-05-13 12:04:57*
%MOMM*%
%LPD*%
G01*
G04 APERTURE LIST*
G04 Aperture macros list*
%AMRoundRect*
0 Rectangle with rounded corners*
0 $1 Rounding radius*
0 $2 $3 $4 $5 $6 $7 $8 $9 X,Y pos of 4 corners*
0 Add a 4 corners polygon primitive as box body*
4,1,4,$2,$3,$4,$5,$6,$7,$8,$9,$2,$3,0*
0 Add four circle primitives for the rounded corners*
1,1,$1+$1,$2,$3*
1,1,$1+$1,$4,$5*
1,1,$1+$1,$6,$7*
1,1,$1+$1,$8,$9*
0 Add four rect primitives between the rounded corners*
20,1,$1+$1,$2,$3,$4,$5,0*
20,1,$1+$1,$4,$5,$6,$7,0*
20,1,$1+$1,$6,$7,$8,$9,0*
20,1,$1+$1,$8,$9,$2,$3,0*%
G04 Aperture macros list end*
%ADD10R,0.560000X0.350000*%
%ADD11R,0.200000X1.600000*%
%ADD12R,0.900000X0.970000*%
%ADD13R,0.940000X1.020000*%
%ADD14R,0.870000X0.930000*%
%ADD15R,0.900000X1.500000*%
%ADD16R,1.500000X0.900000*%
%ADD17R,0.900000X0.900000*%
%ADD18R,0.970000X0.930000*%
%ADD19R,0.790000X0.930000*%
%ADD20R,0.930000X0.970000*%
%ADD21R,0.930000X0.790000*%
%ADD22R,1.000000X1.500000*%
%ADD23RoundRect,0.225000X0.250000X-0.225000X0.250000X0.225000X-0.250000X0.225000X-0.250000X-0.225000X0*%
%ADD24R,0.950000X1.750000*%
%ADD25R,3.200000X1.750000*%
%ADD26RoundRect,0.225000X-0.225000X-0.250000X0.225000X-0.250000X0.225000X0.250000X-0.225000X0.250000X0*%
%ADD27R,1.350000X0.400000*%
%ADD28R,1.600000X2.100000*%
%ADD29R,1.900000X1.800000*%
%ADD30R,1.900000X1.900000*%
%ADD31RoundRect,0.243750X-0.243750X-0.456250X0.243750X-0.456250X0.243750X0.456250X-0.243750X0.456250X0*%
G04 APERTURE END LIST*
D10*
X139685000Y-72950000D03*
X139685000Y-72450000D03*
X139685000Y-71950000D03*
X139685000Y-71450000D03*
X137215000Y-71450000D03*
X137215000Y-71950000D03*
X137215000Y-72450000D03*
X137215000Y-72950000D03*
D11*
X138450000Y-72200000D03*
D12*
X114890000Y-79400000D03*
X116410000Y-79400000D03*
D13*
X139040000Y-59200000D03*
X137460000Y-59200000D03*
D14*
X113280000Y-79000000D03*
X111720000Y-79000000D03*
D15*
X113880000Y-76650000D03*
X115150000Y-76650000D03*
X116420000Y-76650000D03*
X117690000Y-76650000D03*
X118960000Y-76650000D03*
X120230000Y-76650000D03*
X121500000Y-76650000D03*
X122770000Y-76650000D03*
X124040000Y-76650000D03*
X125310000Y-76650000D03*
X126580000Y-76650000D03*
X127850000Y-76650000D03*
X129120000Y-76650000D03*
X130390000Y-76650000D03*
D16*
X131640000Y-74885000D03*
X131640000Y-73615000D03*
X131640000Y-72345000D03*
X131640000Y-71075000D03*
X131640000Y-69805000D03*
X131640000Y-68535000D03*
X131640000Y-67265000D03*
X131640000Y-65995000D03*
X131640000Y-64725000D03*
X131640000Y-63455000D03*
X131640000Y-62185000D03*
X131640000Y-60915000D03*
D15*
X130390000Y-59150000D03*
X129120000Y-59150000D03*
X127850000Y-59150000D03*
X126580000Y-59150000D03*
X125310000Y-59150000D03*
X124040000Y-59150000D03*
X122770000Y-59150000D03*
X121500000Y-59150000D03*
X120230000Y-59150000D03*
X118960000Y-59150000D03*
X117690000Y-59150000D03*
X116420000Y-59150000D03*
X115150000Y-59150000D03*
X113880000Y-59150000D03*
D17*
X120200000Y-70800000D03*
X121600000Y-70800000D03*
X123000000Y-70800000D03*
X120200000Y-69400000D03*
X121600000Y-69400000D03*
X123000000Y-69400000D03*
X120200000Y-68000000D03*
X121600000Y-68000000D03*
X123000000Y-68000000D03*
D18*
X137570000Y-80000000D03*
X138930000Y-80000000D03*
D19*
X137430000Y-81600000D03*
X139070000Y-81600000D03*
D20*
X134450000Y-74120000D03*
X134450000Y-75480000D03*
D21*
X134450000Y-70980000D03*
X134450000Y-72620000D03*
D22*
X140300000Y-75000000D03*
X139000000Y-75000000D03*
D23*
X142450000Y-73200000D03*
X142450000Y-71650000D03*
D10*
X141685000Y-78550000D03*
X141685000Y-78050000D03*
X141685000Y-77550000D03*
X141685000Y-77050000D03*
X139215000Y-77050000D03*
X139215000Y-77550000D03*
X139215000Y-78050000D03*
X139215000Y-78550000D03*
D11*
X140450000Y-77800000D03*
D23*
X145450000Y-79825000D03*
X145450000Y-81375000D03*
D14*
X137450000Y-65530000D03*
X139010000Y-65530000D03*
D24*
X141950000Y-65550000D03*
X144250000Y-65550000D03*
X146550000Y-65550000D03*
D25*
X144250000Y-59250000D03*
D26*
X146075000Y-71200000D03*
X147625000Y-71200000D03*
D22*
X147400000Y-79200000D03*
X148700000Y-79200000D03*
D27*
X149950000Y-73750000D03*
X149950000Y-73100000D03*
X149950000Y-72450000D03*
X149950000Y-71800000D03*
X149950000Y-71150000D03*
D28*
X150075000Y-75550000D03*
X150075000Y-69350000D03*
D29*
X152625000Y-76250000D03*
D30*
X152625000Y-73650000D03*
X152625000Y-71250000D03*
D29*
X152625000Y-68650000D03*
D31*
X137312500Y-61200000D03*
X139187500Y-61200000D03*
D26*
X118499700Y-78600000D03*
X120049700Y-78600000D03*
X108725000Y-79000000D03*
X110275000Y-79000000D03*
D14*
X137450000Y-63050000D03*
X139010000Y-63050000D03*
D22*
X126650000Y-79200000D03*
X125350000Y-79200000D03*
D18*
X119930000Y-80200000D03*
X118570000Y-80200000D03*
D14*
X146055000Y-73795000D03*
X147615000Y-73795000D03*
M02*
