%TF.GenerationSoftware,KiCad,Pcbnew,7.0.2-6a45011f42~172~ubuntu20.04.1*%
%TF.CreationDate,2023-05-12T18:09:32+10:00*%
%TF.ProjectId,pcb_redesign,7063625f-7265-4646-9573-69676e2e6b69,rev?*%
%TF.SameCoordinates,Original*%
%TF.FileFunction,Copper,L3,Inr*%
%TF.FilePolarity,Positive*%
%FSLAX46Y46*%
G04 Gerber Fmt 4.6, Leading zero omitted, Abs format (unit mm)*
G04 Created by KiCad (PCBNEW 7.0.2-6a45011f42~172~ubuntu20.04.1) date 2023-05-12 18:09:32*
%MOMM*%
%LPD*%
G01*
G04 APERTURE LIST*
%TA.AperFunction,ViaPad*%
%ADD10C,0.800000*%
%TD*%
G04 APERTURE END LIST*
D10*
%TO.N,VCC_3V3*%
X134550000Y-59700000D03*
X112000000Y-82500000D03*
%TO.N,GND*%
X151250000Y-78200000D03*
%TO.N,VCC_3V3*%
X143450000Y-69200000D03*
X137450000Y-75000000D03*
%TO.N,GND*%
X141850000Y-67800000D03*
%TO.N,D-*%
X150450000Y-59100000D03*
%TO.N,D+*%
X150250000Y-62000000D03*
%TO.N,ENB Left Motor*%
X126450000Y-62800000D03*
X137850000Y-67400000D03*
%TO.N,VCC_3V3*%
X133450000Y-73200000D03*
%TO.N,ENA Left Motor*%
X123650000Y-63800000D03*
X139350000Y-69000000D03*
%TO.N,Net-(A3908EEETR-T3-OUTA)*%
X134050000Y-75200000D03*
X142050000Y-75600000D03*
%TO.N,Net-(A3908EEETR-T3-OUTB)*%
X133450000Y-70600000D03*
X143850000Y-74400000D03*
%TO.N,ENB Right Motor*%
X134450000Y-81000000D03*
X117650000Y-75000000D03*
%TO.N,ENA Right Motor*%
X122450000Y-74200000D03*
X131650000Y-79800000D03*
%TO.N,GND*%
X108800000Y-81000000D03*
X118000000Y-69500000D03*
X137985000Y-71235000D03*
X135450000Y-62000000D03*
%TO.N,VCC_3V3*%
X148050000Y-59200000D03*
%TO.N,D-*%
X125850000Y-74600000D03*
%TO.N,D+*%
X127450000Y-73200000D03*
%TO.N,GND*%
X140250000Y-77250000D03*
X122250000Y-78800000D03*
%TD*%
%TA.AperFunction,Conductor*%
%TO.N,VCC_3V3*%
G36*
X153376320Y-56499682D02*
G01*
X153443307Y-56519539D01*
X153488926Y-56572460D01*
X153500000Y-56623682D01*
X153500000Y-85874659D01*
X153480315Y-85941698D01*
X153427511Y-85987453D01*
X153374667Y-85998652D01*
X107122667Y-85501319D01*
X107055843Y-85480915D01*
X107010658Y-85427622D01*
X107000000Y-85377326D01*
X107000000Y-81000000D01*
X107886496Y-81000000D01*
X107906458Y-81189929D01*
X107965472Y-81371556D01*
X108060957Y-81536941D01*
X108060960Y-81536944D01*
X108188747Y-81678866D01*
X108343248Y-81791118D01*
X108517714Y-81868795D01*
X108704511Y-81908500D01*
X108704513Y-81908500D01*
X108895489Y-81908500D01*
X109082285Y-81868795D01*
X109082286Y-81868794D01*
X109082288Y-81868794D01*
X109256752Y-81791118D01*
X109411253Y-81678866D01*
X109539040Y-81536944D01*
X109634527Y-81371556D01*
X109693542Y-81189928D01*
X109713504Y-81000000D01*
X133536496Y-81000000D01*
X133556458Y-81189929D01*
X133615472Y-81371556D01*
X133710957Y-81536941D01*
X133710960Y-81536944D01*
X133838747Y-81678866D01*
X133993248Y-81791117D01*
X133993248Y-81791118D01*
X134167714Y-81868795D01*
X134354511Y-81908500D01*
X134354513Y-81908500D01*
X134545489Y-81908500D01*
X134732285Y-81868795D01*
X134732286Y-81868794D01*
X134732288Y-81868794D01*
X134906752Y-81791118D01*
X135061253Y-81678866D01*
X135189040Y-81536944D01*
X135284527Y-81371556D01*
X135343542Y-81189928D01*
X135363504Y-81000000D01*
X135343542Y-80810072D01*
X135284527Y-80628444D01*
X135284527Y-80628443D01*
X135189042Y-80463058D01*
X135169442Y-80441291D01*
X135061253Y-80321134D01*
X134906752Y-80208882D01*
X134906751Y-80208881D01*
X134732285Y-80131204D01*
X134545489Y-80091500D01*
X134545487Y-80091500D01*
X134354513Y-80091500D01*
X134354511Y-80091500D01*
X134167714Y-80131204D01*
X133993248Y-80208881D01*
X133838748Y-80321133D01*
X133710957Y-80463058D01*
X133615472Y-80628443D01*
X133556458Y-80810070D01*
X133536496Y-81000000D01*
X109713504Y-81000000D01*
X109693542Y-80810072D01*
X109634527Y-80628444D01*
X109634527Y-80628443D01*
X109539042Y-80463058D01*
X109519442Y-80441291D01*
X109411253Y-80321134D01*
X109256752Y-80208882D01*
X109256751Y-80208881D01*
X109082285Y-80131204D01*
X108895489Y-80091500D01*
X108895487Y-80091500D01*
X108704513Y-80091500D01*
X108704511Y-80091500D01*
X108517714Y-80131204D01*
X108343248Y-80208881D01*
X108188748Y-80321133D01*
X108060957Y-80463058D01*
X107965472Y-80628443D01*
X107906458Y-80810070D01*
X107886496Y-81000000D01*
X107000000Y-81000000D01*
X107000000Y-79800000D01*
X130736496Y-79800000D01*
X130756458Y-79989929D01*
X130815472Y-80171556D01*
X130910957Y-80336941D01*
X130910960Y-80336944D01*
X131038747Y-80478866D01*
X131193248Y-80591117D01*
X131193248Y-80591118D01*
X131367714Y-80668795D01*
X131554511Y-80708500D01*
X131554513Y-80708500D01*
X131745489Y-80708500D01*
X131932285Y-80668795D01*
X131932286Y-80668794D01*
X131932288Y-80668794D01*
X132106752Y-80591118D01*
X132261253Y-80478866D01*
X132389040Y-80336944D01*
X132484527Y-80171556D01*
X132543542Y-79989928D01*
X132563504Y-79800000D01*
X132543542Y-79610072D01*
X132484527Y-79428444D01*
X132484527Y-79428443D01*
X132389042Y-79263058D01*
X132369442Y-79241291D01*
X132261253Y-79121134D01*
X132106752Y-79008882D01*
X132106751Y-79008881D01*
X131932285Y-78931204D01*
X131745489Y-78891500D01*
X131745487Y-78891500D01*
X131554513Y-78891500D01*
X131554511Y-78891500D01*
X131367714Y-78931204D01*
X131193248Y-79008881D01*
X131038748Y-79121133D01*
X130910957Y-79263058D01*
X130815472Y-79428443D01*
X130756458Y-79610070D01*
X130736496Y-79800000D01*
X107000000Y-79800000D01*
X107000000Y-78799999D01*
X121336496Y-78799999D01*
X121356458Y-78989929D01*
X121415472Y-79171556D01*
X121510957Y-79336941D01*
X121510960Y-79336944D01*
X121638747Y-79478866D01*
X121793248Y-79591117D01*
X121793248Y-79591118D01*
X121967714Y-79668795D01*
X122154511Y-79708500D01*
X122154513Y-79708500D01*
X122345489Y-79708500D01*
X122532285Y-79668795D01*
X122532286Y-79668794D01*
X122532288Y-79668794D01*
X122706752Y-79591118D01*
X122861253Y-79478866D01*
X122989040Y-79336944D01*
X123084527Y-79171556D01*
X123143542Y-78989928D01*
X123163504Y-78800000D01*
X123143542Y-78610072D01*
X123084527Y-78428444D01*
X123084527Y-78428443D01*
X122989042Y-78263058D01*
X122932264Y-78200000D01*
X150336496Y-78200000D01*
X150356458Y-78389929D01*
X150415472Y-78571556D01*
X150510957Y-78736941D01*
X150510960Y-78736944D01*
X150638747Y-78878866D01*
X150710784Y-78931204D01*
X150793248Y-78991118D01*
X150967714Y-79068795D01*
X151154511Y-79108500D01*
X151154513Y-79108500D01*
X151345489Y-79108500D01*
X151532285Y-79068795D01*
X151532286Y-79068794D01*
X151532288Y-79068794D01*
X151706752Y-78991118D01*
X151861253Y-78878866D01*
X151989040Y-78736944D01*
X152084527Y-78571556D01*
X152143542Y-78389928D01*
X152163504Y-78200000D01*
X152143542Y-78010072D01*
X152084527Y-77828444D01*
X152084527Y-77828443D01*
X151989042Y-77663058D01*
X151951673Y-77621556D01*
X151861253Y-77521134D01*
X151706752Y-77408882D01*
X151706751Y-77408881D01*
X151532285Y-77331204D01*
X151345489Y-77291500D01*
X151345487Y-77291500D01*
X151154513Y-77291500D01*
X151154511Y-77291500D01*
X150967714Y-77331204D01*
X150793248Y-77408881D01*
X150638748Y-77521133D01*
X150510957Y-77663058D01*
X150415472Y-77828443D01*
X150356458Y-78010070D01*
X150336496Y-78200000D01*
X122932264Y-78200000D01*
X122894897Y-78158500D01*
X122861253Y-78121134D01*
X122708390Y-78010072D01*
X122706751Y-78008881D01*
X122532285Y-77931204D01*
X122345489Y-77891500D01*
X122345487Y-77891500D01*
X122154513Y-77891500D01*
X122154511Y-77891500D01*
X121967714Y-77931204D01*
X121793248Y-78008881D01*
X121638748Y-78121133D01*
X121510957Y-78263058D01*
X121415472Y-78428443D01*
X121356458Y-78610070D01*
X121336496Y-78799999D01*
X107000000Y-78799999D01*
X107000000Y-78624000D01*
X107019685Y-78556961D01*
X107072489Y-78511206D01*
X107124000Y-78500000D01*
X114500000Y-78500000D01*
X114500000Y-77250000D01*
X139336496Y-77250000D01*
X139356458Y-77439929D01*
X139415472Y-77621556D01*
X139510957Y-77786941D01*
X139510960Y-77786944D01*
X139638747Y-77928866D01*
X139750517Y-78010072D01*
X139793248Y-78041118D01*
X139967714Y-78118795D01*
X140154511Y-78158500D01*
X140154513Y-78158500D01*
X140345489Y-78158500D01*
X140532285Y-78118795D01*
X140532286Y-78118794D01*
X140532288Y-78118794D01*
X140706752Y-78041118D01*
X140861253Y-77928866D01*
X140989040Y-77786944D01*
X141084527Y-77621556D01*
X141143542Y-77439928D01*
X141163504Y-77250000D01*
X141143542Y-77060072D01*
X141084527Y-76878444D01*
X141084527Y-76878443D01*
X140989042Y-76713058D01*
X140969442Y-76691291D01*
X140861253Y-76571134D01*
X140706752Y-76458882D01*
X140706751Y-76458881D01*
X140532285Y-76381204D01*
X140345489Y-76341500D01*
X140345487Y-76341500D01*
X140154513Y-76341500D01*
X140154511Y-76341500D01*
X139967714Y-76381204D01*
X139793248Y-76458881D01*
X139638748Y-76571133D01*
X139510957Y-76713058D01*
X139415472Y-76878443D01*
X139356458Y-77060070D01*
X139336496Y-77250000D01*
X114500000Y-77250000D01*
X114500000Y-75000000D01*
X116736496Y-75000000D01*
X116756458Y-75189929D01*
X116815472Y-75371556D01*
X116910957Y-75536941D01*
X116910960Y-75536944D01*
X117038747Y-75678866D01*
X117191610Y-75789928D01*
X117193248Y-75791118D01*
X117367714Y-75868795D01*
X117554511Y-75908500D01*
X117554513Y-75908500D01*
X117745489Y-75908500D01*
X117932285Y-75868795D01*
X117932286Y-75868794D01*
X117932288Y-75868794D01*
X118106752Y-75791118D01*
X118261253Y-75678866D01*
X118389040Y-75536944D01*
X118484527Y-75371556D01*
X118543542Y-75189928D01*
X118563504Y-75000000D01*
X118543542Y-74810072D01*
X118484527Y-74628444D01*
X118484527Y-74628443D01*
X118389042Y-74463058D01*
X118341331Y-74410070D01*
X118261253Y-74321134D01*
X118133677Y-74228444D01*
X118106751Y-74208881D01*
X118086804Y-74200000D01*
X121536496Y-74200000D01*
X121539486Y-74228444D01*
X121556458Y-74389929D01*
X121615472Y-74571556D01*
X121710957Y-74736941D01*
X121710960Y-74736944D01*
X121838747Y-74878866D01*
X121966323Y-74971556D01*
X121993248Y-74991118D01*
X122167714Y-75068795D01*
X122354511Y-75108500D01*
X122354513Y-75108500D01*
X122545489Y-75108500D01*
X122732285Y-75068795D01*
X122732286Y-75068794D01*
X122732288Y-75068794D01*
X122906752Y-74991118D01*
X123061253Y-74878866D01*
X123189040Y-74736944D01*
X123268105Y-74600000D01*
X124936496Y-74600000D01*
X124956458Y-74789929D01*
X125015472Y-74971556D01*
X125110957Y-75136941D01*
X125110960Y-75136944D01*
X125238747Y-75278866D01*
X125279535Y-75308500D01*
X125393248Y-75391118D01*
X125567714Y-75468795D01*
X125754511Y-75508500D01*
X125754513Y-75508500D01*
X125945489Y-75508500D01*
X126132285Y-75468795D01*
X126132286Y-75468794D01*
X126132288Y-75468794D01*
X126306752Y-75391118D01*
X126461253Y-75278866D01*
X126532264Y-75200000D01*
X133136496Y-75200000D01*
X133156458Y-75389929D01*
X133215472Y-75571556D01*
X133310957Y-75736941D01*
X133310960Y-75736944D01*
X133438747Y-75878866D01*
X133479535Y-75908500D01*
X133593248Y-75991118D01*
X133767714Y-76068795D01*
X133954511Y-76108500D01*
X133954513Y-76108500D01*
X134145489Y-76108500D01*
X134332285Y-76068795D01*
X134332286Y-76068794D01*
X134332288Y-76068794D01*
X134506752Y-75991118D01*
X134661253Y-75878866D01*
X134789040Y-75736944D01*
X134822572Y-75678866D01*
X134868105Y-75600000D01*
X141136496Y-75600000D01*
X141156458Y-75789929D01*
X141215472Y-75971556D01*
X141310957Y-76136941D01*
X141310960Y-76136944D01*
X141438747Y-76278866D01*
X141524955Y-76341500D01*
X141593248Y-76391118D01*
X141767714Y-76468795D01*
X141954511Y-76508500D01*
X141954513Y-76508500D01*
X142145489Y-76508500D01*
X142332285Y-76468795D01*
X142332286Y-76468794D01*
X142332288Y-76468794D01*
X142506752Y-76391118D01*
X142661253Y-76278866D01*
X142789040Y-76136944D01*
X142884527Y-75971556D01*
X142943542Y-75789928D01*
X142963504Y-75600000D01*
X142943542Y-75410072D01*
X142884527Y-75228444D01*
X142884527Y-75228443D01*
X142789042Y-75063058D01*
X142732264Y-75000000D01*
X142661253Y-74921134D01*
X142533677Y-74828444D01*
X142506751Y-74808881D01*
X142332285Y-74731204D01*
X142145489Y-74691500D01*
X142145487Y-74691500D01*
X141954513Y-74691500D01*
X141954511Y-74691500D01*
X141767714Y-74731204D01*
X141593248Y-74808881D01*
X141438748Y-74921133D01*
X141310957Y-75063058D01*
X141215472Y-75228443D01*
X141156458Y-75410070D01*
X141136496Y-75600000D01*
X134868105Y-75600000D01*
X134884527Y-75571556D01*
X134917916Y-75468795D01*
X134943542Y-75389928D01*
X134963504Y-75200000D01*
X134943542Y-75010072D01*
X134884527Y-74828444D01*
X134884527Y-74828443D01*
X134789042Y-74663058D01*
X134723195Y-74589928D01*
X134661253Y-74521134D01*
X134508390Y-74410072D01*
X134506751Y-74408881D01*
X134486804Y-74400000D01*
X142936496Y-74400000D01*
X142956458Y-74589929D01*
X143015472Y-74771556D01*
X143110957Y-74936941D01*
X143110960Y-74936944D01*
X143238747Y-75078866D01*
X143391610Y-75189928D01*
X143393248Y-75191118D01*
X143567714Y-75268795D01*
X143754511Y-75308500D01*
X143754513Y-75308500D01*
X143945489Y-75308500D01*
X144132285Y-75268795D01*
X144132286Y-75268794D01*
X144132288Y-75268794D01*
X144306752Y-75191118D01*
X144461253Y-75078866D01*
X144589040Y-74936944D01*
X144622572Y-74878866D01*
X144684527Y-74771556D01*
X144695774Y-74736941D01*
X144743542Y-74589928D01*
X144763504Y-74400000D01*
X144743542Y-74210072D01*
X144684527Y-74028444D01*
X144684527Y-74028443D01*
X144589042Y-73863058D01*
X144557874Y-73828443D01*
X144461253Y-73721134D01*
X144306752Y-73608882D01*
X144306751Y-73608881D01*
X144132285Y-73531204D01*
X143945489Y-73491500D01*
X143945487Y-73491500D01*
X143754513Y-73491500D01*
X143754511Y-73491500D01*
X143567714Y-73531204D01*
X143393248Y-73608881D01*
X143238748Y-73721133D01*
X143110957Y-73863058D01*
X143015472Y-74028443D01*
X142956458Y-74210070D01*
X142936496Y-74400000D01*
X134486804Y-74400000D01*
X134332285Y-74331204D01*
X134145489Y-74291500D01*
X134145487Y-74291500D01*
X133954513Y-74291500D01*
X133954511Y-74291500D01*
X133767714Y-74331204D01*
X133593248Y-74408881D01*
X133438748Y-74521133D01*
X133310957Y-74663058D01*
X133215472Y-74828443D01*
X133156458Y-75010070D01*
X133136496Y-75200000D01*
X126532264Y-75200000D01*
X126589040Y-75136944D01*
X126622572Y-75078866D01*
X126684527Y-74971556D01*
X126700910Y-74921134D01*
X126743542Y-74789928D01*
X126763504Y-74600000D01*
X126743542Y-74410072D01*
X126684527Y-74228444D01*
X126684527Y-74228443D01*
X126589042Y-74063058D01*
X126541331Y-74010070D01*
X126461253Y-73921134D01*
X126333677Y-73828444D01*
X126306751Y-73808881D01*
X126132285Y-73731204D01*
X125945489Y-73691500D01*
X125945487Y-73691500D01*
X125754513Y-73691500D01*
X125754511Y-73691500D01*
X125567714Y-73731204D01*
X125393248Y-73808881D01*
X125238748Y-73921133D01*
X125110957Y-74063058D01*
X125015472Y-74228443D01*
X124956458Y-74410070D01*
X124936496Y-74600000D01*
X123268105Y-74600000D01*
X123284527Y-74571556D01*
X123343542Y-74389928D01*
X123363504Y-74200000D01*
X123343542Y-74010072D01*
X123284527Y-73828444D01*
X123284527Y-73828443D01*
X123189042Y-73663058D01*
X123169442Y-73641291D01*
X123061253Y-73521134D01*
X122906752Y-73408882D01*
X122906751Y-73408881D01*
X122732285Y-73331204D01*
X122545489Y-73291500D01*
X122545487Y-73291500D01*
X122354513Y-73291500D01*
X122354511Y-73291500D01*
X122167714Y-73331204D01*
X121993248Y-73408881D01*
X121838748Y-73521133D01*
X121710957Y-73663058D01*
X121615472Y-73828443D01*
X121556458Y-74010070D01*
X121556457Y-74010072D01*
X121556458Y-74010072D01*
X121536496Y-74200000D01*
X118086804Y-74200000D01*
X117932285Y-74131204D01*
X117745489Y-74091500D01*
X117745487Y-74091500D01*
X117554513Y-74091500D01*
X117554511Y-74091500D01*
X117367714Y-74131204D01*
X117193248Y-74208881D01*
X117038748Y-74321133D01*
X116910957Y-74463058D01*
X116815472Y-74628443D01*
X116756458Y-74810070D01*
X116736496Y-75000000D01*
X114500000Y-75000000D01*
X114500000Y-73200000D01*
X126536496Y-73200000D01*
X126556458Y-73389929D01*
X126615472Y-73571556D01*
X126710957Y-73736941D01*
X126710960Y-73736944D01*
X126838747Y-73878866D01*
X126896924Y-73921134D01*
X126993248Y-73991118D01*
X127167714Y-74068795D01*
X127354511Y-74108500D01*
X127354513Y-74108500D01*
X127545489Y-74108500D01*
X127732285Y-74068795D01*
X127732286Y-74068794D01*
X127732288Y-74068794D01*
X127906752Y-73991118D01*
X128061253Y-73878866D01*
X128189040Y-73736944D01*
X128284527Y-73571556D01*
X128343542Y-73389928D01*
X128363504Y-73200000D01*
X128343542Y-73010072D01*
X128284527Y-72828444D01*
X128284527Y-72828443D01*
X128189042Y-72663058D01*
X128169442Y-72641291D01*
X128061253Y-72521134D01*
X127906752Y-72408882D01*
X127906751Y-72408881D01*
X127732285Y-72331204D01*
X127545489Y-72291500D01*
X127545487Y-72291500D01*
X127354513Y-72291500D01*
X127354511Y-72291500D01*
X127167714Y-72331204D01*
X126993248Y-72408881D01*
X126838748Y-72521133D01*
X126710957Y-72663058D01*
X126615472Y-72828443D01*
X126556458Y-73010070D01*
X126536496Y-73200000D01*
X114500000Y-73200000D01*
X114500000Y-70599999D01*
X132536496Y-70599999D01*
X132556458Y-70789929D01*
X132615472Y-70971556D01*
X132710957Y-71136941D01*
X132710960Y-71136944D01*
X132838747Y-71278866D01*
X132993248Y-71391118D01*
X133167714Y-71468795D01*
X133354511Y-71508500D01*
X133354513Y-71508500D01*
X133545489Y-71508500D01*
X133732285Y-71468795D01*
X133732286Y-71468794D01*
X133732288Y-71468794D01*
X133906752Y-71391118D01*
X134061253Y-71278866D01*
X134100750Y-71235000D01*
X137071496Y-71235000D01*
X137081477Y-71329964D01*
X137091458Y-71424929D01*
X137150472Y-71606556D01*
X137245957Y-71771941D01*
X137245960Y-71771944D01*
X137373747Y-71913866D01*
X137528247Y-72026118D01*
X137528248Y-72026118D01*
X137702714Y-72103795D01*
X137889511Y-72143500D01*
X137889513Y-72143500D01*
X138080489Y-72143500D01*
X138267285Y-72103795D01*
X138267286Y-72103794D01*
X138267288Y-72103794D01*
X138441752Y-72026118D01*
X138596253Y-71913866D01*
X138724040Y-71771944D01*
X138819527Y-71606556D01*
X138878542Y-71424928D01*
X138898504Y-71235000D01*
X138878542Y-71045072D01*
X138819527Y-70863444D01*
X138819527Y-70863443D01*
X138724042Y-70698058D01*
X138704442Y-70676291D01*
X138596253Y-70556134D01*
X138441752Y-70443882D01*
X138441751Y-70443881D01*
X138267285Y-70366204D01*
X138080489Y-70326500D01*
X138080487Y-70326500D01*
X137889513Y-70326500D01*
X137889511Y-70326500D01*
X137702714Y-70366204D01*
X137528248Y-70443881D01*
X137373748Y-70556133D01*
X137245957Y-70698058D01*
X137150472Y-70863443D01*
X137091458Y-71045070D01*
X137091457Y-71045072D01*
X137091458Y-71045072D01*
X137071496Y-71235000D01*
X134100750Y-71235000D01*
X134189040Y-71136944D01*
X134242083Y-71045072D01*
X134284527Y-70971556D01*
X134319655Y-70863443D01*
X134343542Y-70789928D01*
X134363504Y-70600000D01*
X134343542Y-70410072D01*
X134284527Y-70228444D01*
X134284527Y-70228443D01*
X134189042Y-70063058D01*
X134165526Y-70036941D01*
X134061253Y-69921134D01*
X133906752Y-69808882D01*
X133906751Y-69808881D01*
X133732285Y-69731204D01*
X133545489Y-69691500D01*
X133545487Y-69691500D01*
X133354513Y-69691500D01*
X133354511Y-69691500D01*
X133167714Y-69731204D01*
X132993248Y-69808881D01*
X132838748Y-69921133D01*
X132710957Y-70063058D01*
X132615472Y-70228443D01*
X132556458Y-70410070D01*
X132536496Y-70599999D01*
X114500000Y-70599999D01*
X114500000Y-69500000D01*
X117086496Y-69500000D01*
X117106458Y-69689929D01*
X117165472Y-69871556D01*
X117260957Y-70036941D01*
X117260960Y-70036944D01*
X117388747Y-70178866D01*
X117543248Y-70291117D01*
X117543248Y-70291118D01*
X117717714Y-70368795D01*
X117904511Y-70408500D01*
X117904513Y-70408500D01*
X118095489Y-70408500D01*
X118282285Y-70368795D01*
X118282286Y-70368794D01*
X118282288Y-70368794D01*
X118456752Y-70291118D01*
X118611253Y-70178866D01*
X118739040Y-70036944D01*
X118834527Y-69871556D01*
X118893542Y-69689928D01*
X118913504Y-69500000D01*
X118893542Y-69310072D01*
X118834527Y-69128444D01*
X118834527Y-69128443D01*
X118760370Y-68999999D01*
X138436496Y-68999999D01*
X138456458Y-69189929D01*
X138515472Y-69371556D01*
X138610957Y-69536941D01*
X138610960Y-69536944D01*
X138738747Y-69678866D01*
X138810784Y-69731204D01*
X138893248Y-69791118D01*
X139067714Y-69868795D01*
X139254511Y-69908500D01*
X139254513Y-69908500D01*
X139445489Y-69908500D01*
X139632285Y-69868795D01*
X139632286Y-69868794D01*
X139632288Y-69868794D01*
X139806752Y-69791118D01*
X139961253Y-69678866D01*
X140089040Y-69536944D01*
X140184527Y-69371556D01*
X140243542Y-69189928D01*
X140263504Y-69000000D01*
X140243542Y-68810072D01*
X140197638Y-68668794D01*
X140184527Y-68628443D01*
X140089042Y-68463058D01*
X140069442Y-68441291D01*
X139961253Y-68321134D01*
X139806752Y-68208882D01*
X139806751Y-68208881D01*
X139632285Y-68131204D01*
X139445489Y-68091500D01*
X139445487Y-68091500D01*
X139254513Y-68091500D01*
X139254511Y-68091500D01*
X139067714Y-68131204D01*
X138893248Y-68208881D01*
X138738748Y-68321133D01*
X138610957Y-68463058D01*
X138515472Y-68628443D01*
X138456458Y-68810070D01*
X138436496Y-68999999D01*
X118760370Y-68999999D01*
X118739042Y-68963058D01*
X118719442Y-68941291D01*
X118611253Y-68821134D01*
X118456752Y-68708882D01*
X118456751Y-68708881D01*
X118282285Y-68631204D01*
X118095489Y-68591500D01*
X118095487Y-68591500D01*
X117904513Y-68591500D01*
X117904511Y-68591500D01*
X117717714Y-68631204D01*
X117543248Y-68708881D01*
X117388748Y-68821133D01*
X117260957Y-68963058D01*
X117165472Y-69128443D01*
X117106458Y-69310070D01*
X117086496Y-69500000D01*
X114500000Y-69500000D01*
X114500000Y-67400000D01*
X136936496Y-67400000D01*
X136956458Y-67589929D01*
X137015472Y-67771556D01*
X137110957Y-67936941D01*
X137110960Y-67936944D01*
X137238747Y-68078866D01*
X137310784Y-68131204D01*
X137393248Y-68191118D01*
X137567714Y-68268795D01*
X137754511Y-68308500D01*
X137754513Y-68308500D01*
X137945489Y-68308500D01*
X138132285Y-68268795D01*
X138132286Y-68268794D01*
X138132288Y-68268794D01*
X138306752Y-68191118D01*
X138461253Y-68078866D01*
X138589040Y-67936944D01*
X138668105Y-67799999D01*
X140936496Y-67799999D01*
X140956458Y-67989929D01*
X141015472Y-68171556D01*
X141110957Y-68336941D01*
X141110960Y-68336944D01*
X141238747Y-68478866D01*
X141393248Y-68591118D01*
X141567714Y-68668795D01*
X141754511Y-68708500D01*
X141754513Y-68708500D01*
X141945489Y-68708500D01*
X142132285Y-68668795D01*
X142132286Y-68668794D01*
X142132288Y-68668794D01*
X142306752Y-68591118D01*
X142461253Y-68478866D01*
X142589040Y-68336944D01*
X142684527Y-68171556D01*
X142743542Y-67989928D01*
X142763504Y-67800000D01*
X142743542Y-67610072D01*
X142684527Y-67428444D01*
X142684527Y-67428443D01*
X142589042Y-67263058D01*
X142541331Y-67210070D01*
X142461253Y-67121134D01*
X142333677Y-67028444D01*
X142306751Y-67008881D01*
X142132285Y-66931204D01*
X141945489Y-66891500D01*
X141945487Y-66891500D01*
X141754513Y-66891500D01*
X141754511Y-66891500D01*
X141567714Y-66931204D01*
X141393248Y-67008881D01*
X141238748Y-67121133D01*
X141110957Y-67263058D01*
X141015472Y-67428443D01*
X140956458Y-67610070D01*
X140936496Y-67799999D01*
X138668105Y-67799999D01*
X138684527Y-67771556D01*
X138743542Y-67589928D01*
X138763504Y-67400000D01*
X138743542Y-67210072D01*
X138684527Y-67028444D01*
X138684527Y-67028443D01*
X138589042Y-66863058D01*
X138569442Y-66841291D01*
X138461253Y-66721134D01*
X138306752Y-66608882D01*
X138306751Y-66608881D01*
X138132285Y-66531204D01*
X137945489Y-66491500D01*
X137945487Y-66491500D01*
X137754513Y-66491500D01*
X137754511Y-66491500D01*
X137567714Y-66531204D01*
X137393248Y-66608881D01*
X137238748Y-66721133D01*
X137110957Y-66863058D01*
X137015472Y-67028443D01*
X136956458Y-67210070D01*
X136936496Y-67400000D01*
X114500000Y-67400000D01*
X114500000Y-63800000D01*
X122736496Y-63800000D01*
X122756458Y-63989929D01*
X122815472Y-64171556D01*
X122910957Y-64336941D01*
X122910960Y-64336944D01*
X123038747Y-64478866D01*
X123193248Y-64591118D01*
X123367714Y-64668795D01*
X123554511Y-64708500D01*
X123554513Y-64708500D01*
X123745489Y-64708500D01*
X123932285Y-64668795D01*
X123932286Y-64668794D01*
X123932288Y-64668794D01*
X124106752Y-64591118D01*
X124261253Y-64478866D01*
X124389040Y-64336944D01*
X124484527Y-64171556D01*
X124543542Y-63989928D01*
X124563504Y-63800000D01*
X124543542Y-63610072D01*
X124484527Y-63428444D01*
X124484527Y-63428443D01*
X124389042Y-63263058D01*
X124369442Y-63241291D01*
X124261253Y-63121134D01*
X124106752Y-63008882D01*
X124106751Y-63008881D01*
X123932285Y-62931204D01*
X123745489Y-62891500D01*
X123745487Y-62891500D01*
X123554513Y-62891500D01*
X123554511Y-62891500D01*
X123367714Y-62931204D01*
X123193248Y-63008881D01*
X123038748Y-63121133D01*
X122910957Y-63263058D01*
X122815472Y-63428443D01*
X122756458Y-63610070D01*
X122736496Y-63800000D01*
X114500000Y-63800000D01*
X114500000Y-62799999D01*
X125536496Y-62799999D01*
X125556458Y-62989929D01*
X125615472Y-63171556D01*
X125710957Y-63336941D01*
X125710960Y-63336944D01*
X125838747Y-63478866D01*
X125993248Y-63591118D01*
X126167714Y-63668795D01*
X126354511Y-63708500D01*
X126354513Y-63708500D01*
X126545489Y-63708500D01*
X126732285Y-63668795D01*
X126732286Y-63668794D01*
X126732288Y-63668794D01*
X126906752Y-63591118D01*
X127061253Y-63478866D01*
X127189040Y-63336944D01*
X127284527Y-63171556D01*
X127343542Y-62989928D01*
X127363504Y-62800000D01*
X127343542Y-62610072D01*
X127284527Y-62428444D01*
X127284527Y-62428443D01*
X127189042Y-62263058D01*
X127123195Y-62189928D01*
X127061253Y-62121134D01*
X126906752Y-62008882D01*
X126906751Y-62008881D01*
X126886804Y-62000000D01*
X134536496Y-62000000D01*
X134556458Y-62189929D01*
X134615472Y-62371556D01*
X134710957Y-62536941D01*
X134710960Y-62536944D01*
X134838747Y-62678866D01*
X134993248Y-62791118D01*
X135167714Y-62868795D01*
X135354511Y-62908500D01*
X135354513Y-62908500D01*
X135545489Y-62908500D01*
X135732285Y-62868795D01*
X135732286Y-62868794D01*
X135732288Y-62868794D01*
X135906752Y-62791118D01*
X136061253Y-62678866D01*
X136189040Y-62536944D01*
X136284527Y-62371556D01*
X136343542Y-62189928D01*
X136363504Y-62000000D01*
X149336496Y-62000000D01*
X149356458Y-62189929D01*
X149415472Y-62371556D01*
X149510957Y-62536941D01*
X149510960Y-62536944D01*
X149638747Y-62678866D01*
X149793248Y-62791118D01*
X149967714Y-62868795D01*
X150154511Y-62908500D01*
X150154513Y-62908500D01*
X150345489Y-62908500D01*
X150532285Y-62868795D01*
X150532286Y-62868794D01*
X150532288Y-62868794D01*
X150706752Y-62791118D01*
X150861253Y-62678866D01*
X150989040Y-62536944D01*
X151084527Y-62371556D01*
X151143542Y-62189928D01*
X151163504Y-62000000D01*
X151143542Y-61810072D01*
X151084527Y-61628444D01*
X151084527Y-61628443D01*
X150989042Y-61463058D01*
X150969442Y-61441291D01*
X150861253Y-61321134D01*
X150706752Y-61208882D01*
X150706751Y-61208881D01*
X150532285Y-61131204D01*
X150345489Y-61091500D01*
X150345487Y-61091500D01*
X150154513Y-61091500D01*
X150154511Y-61091500D01*
X149967714Y-61131204D01*
X149793248Y-61208881D01*
X149638748Y-61321133D01*
X149510957Y-61463058D01*
X149415472Y-61628443D01*
X149356458Y-61810070D01*
X149336496Y-62000000D01*
X136363504Y-62000000D01*
X136343542Y-61810072D01*
X136284527Y-61628444D01*
X136284527Y-61628443D01*
X136189042Y-61463058D01*
X136169442Y-61441291D01*
X136061253Y-61321134D01*
X135906752Y-61208882D01*
X135906751Y-61208881D01*
X135732285Y-61131204D01*
X135545489Y-61091500D01*
X135545487Y-61091500D01*
X135354513Y-61091500D01*
X135354511Y-61091500D01*
X135167714Y-61131204D01*
X134993248Y-61208881D01*
X134838748Y-61321133D01*
X134710957Y-61463058D01*
X134615472Y-61628443D01*
X134556458Y-61810070D01*
X134536496Y-62000000D01*
X126886804Y-62000000D01*
X126732285Y-61931204D01*
X126545489Y-61891500D01*
X126545487Y-61891500D01*
X126354513Y-61891500D01*
X126354511Y-61891500D01*
X126167714Y-61931204D01*
X125993248Y-62008881D01*
X125838748Y-62121133D01*
X125710957Y-62263058D01*
X125615472Y-62428443D01*
X125556458Y-62610070D01*
X125536496Y-62799999D01*
X114500000Y-62799999D01*
X114500000Y-59100000D01*
X149536496Y-59100000D01*
X149556458Y-59289929D01*
X149615472Y-59471556D01*
X149710957Y-59636941D01*
X149710960Y-59636944D01*
X149838747Y-59778866D01*
X149993248Y-59891118D01*
X150167714Y-59968795D01*
X150354511Y-60008500D01*
X150354513Y-60008500D01*
X150545489Y-60008500D01*
X150732285Y-59968795D01*
X150732286Y-59968794D01*
X150732288Y-59968794D01*
X150906752Y-59891118D01*
X151061253Y-59778866D01*
X151189040Y-59636944D01*
X151284527Y-59471556D01*
X151343542Y-59289928D01*
X151363504Y-59100000D01*
X151343542Y-58910072D01*
X151284527Y-58728444D01*
X151284527Y-58728443D01*
X151189042Y-58563058D01*
X151169442Y-58541291D01*
X151061253Y-58421134D01*
X150906752Y-58308882D01*
X150906751Y-58308881D01*
X150732285Y-58231204D01*
X150545489Y-58191500D01*
X150545487Y-58191500D01*
X150354513Y-58191500D01*
X150354511Y-58191500D01*
X150167714Y-58231204D01*
X149993248Y-58308881D01*
X149838748Y-58421133D01*
X149710957Y-58563058D01*
X149615472Y-58728443D01*
X149556458Y-58910070D01*
X149536496Y-59100000D01*
X114500000Y-59100000D01*
X114500000Y-56524318D01*
X114519685Y-56457279D01*
X114572489Y-56411524D01*
X114624314Y-56400318D01*
X153376320Y-56499682D01*
G37*
%TD.AperFunction*%
%TD*%
M02*
