%TF.GenerationSoftware,KiCad,Pcbnew,7.0.2-6a45011f42~172~ubuntu20.04.1*%
%TF.CreationDate,2023-05-12T18:09:33+10:00*%
%TF.ProjectId,pcb_redesign,7063625f-7265-4646-9573-69676e2e6b69,rev?*%
%TF.SameCoordinates,Original*%
%TF.FileFunction,Soldermask,Top*%
%TF.FilePolarity,Negative*%
%FSLAX46Y46*%
G04 Gerber Fmt 4.6, Leading zero omitted, Abs format (unit mm)*
G04 Created by KiCad (PCBNEW 7.0.2-6a45011f42~172~ubuntu20.04.1) date 2023-05-12 18:09:33*
%MOMM*%
%LPD*%
G01*
G04 APERTURE LIST*
G04 Aperture macros list*
%AMRoundRect*
0 Rectangle with rounded corners*
0 $1 Rounding radius*
0 $2 $3 $4 $5 $6 $7 $8 $9 X,Y pos of 4 corners*
0 Add a 4 corners polygon primitive as box body*
4,1,4,$2,$3,$4,$5,$6,$7,$8,$9,$2,$3,0*
0 Add four circle primitives for the rounded corners*
1,1,$1+$1,$2,$3*
1,1,$1+$1,$4,$5*
1,1,$1+$1,$6,$7*
1,1,$1+$1,$8,$9*
0 Add four rect primitives between the rounded corners*
20,1,$1+$1,$2,$3,$4,$5,0*
20,1,$1+$1,$4,$5,$6,$7,0*
20,1,$1+$1,$6,$7,$8,$9,0*
20,1,$1+$1,$8,$9,$2,$3,0*%
G04 Aperture macros list end*
%ADD10R,0.900000X0.970000*%
%ADD11R,0.940000X1.020000*%
%ADD12R,0.870000X0.930000*%
%ADD13RoundRect,0.243750X-0.243750X-0.456250X0.243750X-0.456250X0.243750X0.456250X-0.243750X0.456250X0*%
%ADD14RoundRect,0.225000X-0.225000X-0.250000X0.225000X-0.250000X0.225000X0.250000X-0.225000X0.250000X0*%
%ADD15R,1.350000X0.400000*%
%ADD16R,1.600000X2.100000*%
%ADD17R,1.900000X1.800000*%
%ADD18R,1.900000X1.900000*%
%ADD19R,0.950000X1.750000*%
%ADD20R,3.200000X1.750000*%
%ADD21R,1.000000X1.500000*%
%ADD22R,0.970000X0.930000*%
%ADD23R,0.900000X0.900000*%
%ADD24R,0.900000X1.500000*%
%ADD25R,1.500000X0.900000*%
%ADD26R,0.790000X0.930000*%
%ADD27R,0.930000X0.790000*%
%ADD28R,0.350000X0.560000*%
%ADD29R,1.600000X0.200000*%
G04 APERTURE END LIST*
D10*
%TO.C,R6*%
X114890000Y-79400000D03*
X116410000Y-79400000D03*
%TD*%
D11*
%TO.C,R3*%
X139040000Y-59200000D03*
X137460000Y-59200000D03*
%TD*%
D12*
%TO.C,C3*%
X113280000Y-79000000D03*
X111720000Y-79000000D03*
%TD*%
D13*
%TO.C,D1*%
X137312500Y-61200000D03*
X139187500Y-61200000D03*
%TD*%
D14*
%TO.C,C4*%
X144875000Y-71200000D03*
X146425000Y-71200000D03*
%TD*%
D12*
%TO.C,C2*%
X146055000Y-73795000D03*
X147615000Y-73795000D03*
%TD*%
D15*
%TO.C,J1*%
X149950000Y-73750000D03*
X149950000Y-73100000D03*
X149950000Y-72450000D03*
X149950000Y-71800000D03*
X149950000Y-71150000D03*
D16*
X150075000Y-75550000D03*
X150075000Y-69350000D03*
D17*
X152625000Y-76250000D03*
D18*
X152625000Y-73650000D03*
X152625000Y-71250000D03*
D17*
X152625000Y-68650000D03*
%TD*%
D19*
%TO.C,IC1*%
X141950000Y-65550000D03*
X144250000Y-65550000D03*
X146550000Y-65550000D03*
D20*
X144250000Y-59250000D03*
%TD*%
D14*
%TO.C,C8*%
X108725000Y-79000000D03*
X110275000Y-79000000D03*
%TD*%
%TO.C,C1*%
X118499700Y-78600000D03*
X120049700Y-78600000D03*
%TD*%
D21*
%TO.C,JP3*%
X144000000Y-77400000D03*
X145300000Y-77400000D03*
%TD*%
%TO.C,JP2*%
X140400000Y-71400000D03*
X141700000Y-71400000D03*
%TD*%
D22*
%TO.C,R1*%
X118570000Y-80200000D03*
X119930000Y-80200000D03*
%TD*%
D12*
%TO.C,C7*%
X139010000Y-65530000D03*
X137450000Y-65530000D03*
%TD*%
%TO.C,C6*%
X139010000Y-63050000D03*
X137450000Y-63050000D03*
%TD*%
D23*
%TO.C,U1*%
X123000000Y-70800000D03*
X120200000Y-69400000D03*
X123000000Y-68000000D03*
X121600000Y-68000000D03*
X123000000Y-69400000D03*
X120200000Y-68000000D03*
X120200000Y-70800000D03*
X121600000Y-70800000D03*
X121600000Y-69400000D03*
D24*
X113880000Y-59150000D03*
X115150000Y-59150000D03*
X116420000Y-59150000D03*
X117690000Y-59150000D03*
X118960000Y-59150000D03*
X120230000Y-59150000D03*
X121500000Y-59150000D03*
X122770000Y-59150000D03*
X124040000Y-59150000D03*
X125310000Y-59150000D03*
X126580000Y-59150000D03*
X127850000Y-59150000D03*
X129120000Y-59150000D03*
X130390000Y-59150000D03*
D25*
X131640000Y-60915000D03*
X131640000Y-62185000D03*
X131640000Y-63455000D03*
X131640000Y-64725000D03*
X131640000Y-65995000D03*
X131640000Y-67265000D03*
X131640000Y-68535000D03*
X131640000Y-69805000D03*
X131640000Y-71075000D03*
X131640000Y-72345000D03*
X131640000Y-73615000D03*
X131640000Y-74885000D03*
D24*
X130390000Y-76650000D03*
X129120000Y-76650000D03*
X127850000Y-76650000D03*
X126580000Y-76650000D03*
X125310000Y-76650000D03*
X124040000Y-76650000D03*
X122770000Y-76650000D03*
X121500000Y-76650000D03*
X120230000Y-76650000D03*
X118960000Y-76650000D03*
X117690000Y-76650000D03*
X116420000Y-76650000D03*
X115150000Y-76650000D03*
X113880000Y-76650000D03*
%TD*%
D22*
%TO.C,R9*%
X134570000Y-65500000D03*
X135930000Y-65500000D03*
%TD*%
D26*
%TO.C,R8*%
X136320000Y-67250000D03*
X134680000Y-67250000D03*
%TD*%
D22*
%TO.C,R5*%
X138250000Y-79000000D03*
X139610000Y-79000000D03*
%TD*%
D27*
%TO.C,R4*%
X138250000Y-82020000D03*
X138250000Y-80380000D03*
%TD*%
D21*
%TO.C,JP1*%
X126650000Y-79200000D03*
X125350000Y-79200000D03*
%TD*%
D28*
%TO.C,A3908EEETR-T3*%
X135000000Y-72470000D03*
X135500000Y-72470000D03*
X136000000Y-72470000D03*
X136500000Y-72470000D03*
X136500000Y-70000000D03*
X136000000Y-70000000D03*
X135500000Y-70000000D03*
X135000000Y-70000000D03*
D29*
X135750000Y-71235000D03*
%TD*%
D28*
%TO.C,A3908EEETR-T1*%
X136500000Y-76530000D03*
X136000000Y-76530000D03*
X135500000Y-76530000D03*
X135000000Y-76530000D03*
X135000000Y-79000000D03*
X135500000Y-79000000D03*
X136000000Y-79000000D03*
X136500000Y-79000000D03*
D29*
X135750000Y-77765000D03*
%TD*%
M02*
