%TF.GenerationSoftware,KiCad,Pcbnew,7.0.2-6a45011f42~172~ubuntu20.04.1*%
%TF.CreationDate,2023-05-12T18:09:31+10:00*%
%TF.ProjectId,pcb_redesign,7063625f-7265-4646-9573-69676e2e6b69,rev?*%
%TF.SameCoordinates,Original*%
%TF.FileFunction,Copper,L1,Top*%
%TF.FilePolarity,Positive*%
%FSLAX46Y46*%
G04 Gerber Fmt 4.6, Leading zero omitted, Abs format (unit mm)*
G04 Created by KiCad (PCBNEW 7.0.2-6a45011f42~172~ubuntu20.04.1) date 2023-05-12 18:09:31*
%MOMM*%
%LPD*%
G01*
G04 APERTURE LIST*
G04 Aperture macros list*
%AMRoundRect*
0 Rectangle with rounded corners*
0 $1 Rounding radius*
0 $2 $3 $4 $5 $6 $7 $8 $9 X,Y pos of 4 corners*
0 Add a 4 corners polygon primitive as box body*
4,1,4,$2,$3,$4,$5,$6,$7,$8,$9,$2,$3,0*
0 Add four circle primitives for the rounded corners*
1,1,$1+$1,$2,$3*
1,1,$1+$1,$4,$5*
1,1,$1+$1,$6,$7*
1,1,$1+$1,$8,$9*
0 Add four rect primitives between the rounded corners*
20,1,$1+$1,$2,$3,$4,$5,0*
20,1,$1+$1,$4,$5,$6,$7,0*
20,1,$1+$1,$6,$7,$8,$9,0*
20,1,$1+$1,$8,$9,$2,$3,0*%
G04 Aperture macros list end*
%TA.AperFunction,SMDPad,CuDef*%
%ADD10R,0.900000X0.970000*%
%TD*%
%TA.AperFunction,SMDPad,CuDef*%
%ADD11R,0.940000X1.020000*%
%TD*%
%TA.AperFunction,SMDPad,CuDef*%
%ADD12R,0.870000X0.930000*%
%TD*%
%TA.AperFunction,SMDPad,CuDef*%
%ADD13RoundRect,0.243750X-0.243750X-0.456250X0.243750X-0.456250X0.243750X0.456250X-0.243750X0.456250X0*%
%TD*%
%TA.AperFunction,SMDPad,CuDef*%
%ADD14RoundRect,0.225000X-0.225000X-0.250000X0.225000X-0.250000X0.225000X0.250000X-0.225000X0.250000X0*%
%TD*%
%TA.AperFunction,SMDPad,CuDef*%
%ADD15R,1.350000X0.400000*%
%TD*%
%TA.AperFunction,SMDPad,CuDef*%
%ADD16R,1.600000X2.100000*%
%TD*%
%TA.AperFunction,SMDPad,CuDef*%
%ADD17R,1.900000X1.800000*%
%TD*%
%TA.AperFunction,SMDPad,CuDef*%
%ADD18R,1.900000X1.900000*%
%TD*%
%TA.AperFunction,SMDPad,CuDef*%
%ADD19R,0.950000X1.750000*%
%TD*%
%TA.AperFunction,SMDPad,CuDef*%
%ADD20R,3.200000X1.750000*%
%TD*%
%TA.AperFunction,SMDPad,CuDef*%
%ADD21R,1.000000X1.500000*%
%TD*%
%TA.AperFunction,SMDPad,CuDef*%
%ADD22R,0.970000X0.930000*%
%TD*%
%TA.AperFunction,SMDPad,CuDef*%
%ADD23R,0.900000X0.900000*%
%TD*%
%TA.AperFunction,SMDPad,CuDef*%
%ADD24R,0.900000X1.500000*%
%TD*%
%TA.AperFunction,SMDPad,CuDef*%
%ADD25R,1.500000X0.900000*%
%TD*%
%TA.AperFunction,SMDPad,CuDef*%
%ADD26R,0.790000X0.930000*%
%TD*%
%TA.AperFunction,SMDPad,CuDef*%
%ADD27R,0.930000X0.790000*%
%TD*%
%TA.AperFunction,SMDPad,CuDef*%
%ADD28R,0.350000X0.560000*%
%TD*%
%TA.AperFunction,SMDPad,CuDef*%
%ADD29R,1.600000X0.200000*%
%TD*%
%TA.AperFunction,ViaPad*%
%ADD30C,0.800000*%
%TD*%
%TA.AperFunction,Conductor*%
%ADD31C,0.250000*%
%TD*%
%TA.AperFunction,Conductor*%
%ADD32C,0.300000*%
%TD*%
%TA.AperFunction,Conductor*%
%ADD33C,0.500000*%
%TD*%
G04 APERTURE END LIST*
D10*
%TO.P,R6,1*%
%TO.N,VCC_3V3*%
X114890000Y-79400000D03*
%TO.P,R6,2*%
%TO.N,/ESP32_3V3*%
X116410000Y-79400000D03*
%TD*%
D11*
%TO.P,R3,1*%
%TO.N,VCC_3V3*%
X139040000Y-59200000D03*
%TO.P,R3,2*%
%TO.N,Net-(D1-A)*%
X137460000Y-59200000D03*
%TD*%
D12*
%TO.P,C3,1*%
%TO.N,GND*%
X113280000Y-79000000D03*
%TO.P,C3,2*%
%TO.N,VCC_3V3*%
X111720000Y-79000000D03*
%TD*%
D13*
%TO.P,D1,1,K*%
%TO.N,GND*%
X137312500Y-61200000D03*
%TO.P,D1,2,A*%
%TO.N,Net-(D1-A)*%
X139187500Y-61200000D03*
%TD*%
D14*
%TO.P,C4,1*%
%TO.N,GND*%
X144875000Y-71200000D03*
%TO.P,C4,2*%
%TO.N,3.7_UNREG*%
X146425000Y-71200000D03*
%TD*%
D12*
%TO.P,C2,1*%
%TO.N,GND*%
X146055000Y-73795000D03*
%TO.P,C2,2*%
%TO.N,3.7_UNREG*%
X147615000Y-73795000D03*
%TD*%
D15*
%TO.P,J1,1,VBUS*%
%TO.N,3.7_UNREG*%
X149950000Y-73750000D03*
%TO.P,J1,2,D-*%
%TO.N,D-*%
X149950000Y-73100000D03*
%TO.P,J1,3,D+*%
%TO.N,D+*%
X149950000Y-72450000D03*
%TO.P,J1,4,ID*%
%TO.N,unconnected-(J1-ID-Pad4)*%
X149950000Y-71800000D03*
%TO.P,J1,5,GND*%
%TO.N,GND*%
X149950000Y-71150000D03*
D16*
%TO.P,J1,S1,in1*%
X150075000Y-75550000D03*
%TO.P,J1,S2,in2*%
X150075000Y-69350000D03*
D17*
%TO.P,J1,S3,in3*%
X152625000Y-76250000D03*
D18*
%TO.P,J1,S4,in4*%
X152625000Y-73650000D03*
%TO.P,J1,S5,in5*%
X152625000Y-71250000D03*
D17*
%TO.P,J1,S6,in6*%
X152625000Y-68650000D03*
%TD*%
D19*
%TO.P,IC1,1,ADJ/GND*%
%TO.N,GND*%
X141950000Y-65550000D03*
%TO.P,IC1,2,VOUT_1*%
%TO.N,VCC_3V3*%
X144250000Y-65550000D03*
%TO.P,IC1,3,VIN*%
%TO.N,3.7_UNREG*%
X146550000Y-65550000D03*
D20*
%TO.P,IC1,4,VOUT_2*%
%TO.N,VCC_3V3*%
X144250000Y-59250000D03*
%TD*%
D14*
%TO.P,C8,1*%
%TO.N,GND*%
X108725000Y-79000000D03*
%TO.P,C8,2*%
%TO.N,VCC_3V3*%
X110275000Y-79000000D03*
%TD*%
%TO.P,C1,1*%
%TO.N,/CHIP_PU*%
X118499700Y-78600000D03*
%TO.P,C1,2*%
%TO.N,GND*%
X120049700Y-78600000D03*
%TD*%
D21*
%TO.P,JP3,1,A*%
%TO.N,Net-(A3908EEETR-T3-OUTA)*%
X144000000Y-77400000D03*
%TO.P,JP3,2,B*%
%TO.N,Net-(A3908EEETR-T3-OUTB)*%
X145300000Y-77400000D03*
%TD*%
%TO.P,JP2,1,A*%
%TO.N,Net-(A3908EEETR-T1-OUTA)*%
X140400000Y-71400000D03*
%TO.P,JP2,2,B*%
%TO.N,Net-(A3908EEETR-T1-OUTB)*%
X141700000Y-71400000D03*
%TD*%
D22*
%TO.P,R1,2*%
%TO.N,/CHIP_PU*%
X118570000Y-80200000D03*
%TO.P,R1,1*%
%TO.N,/ESP32_3V3*%
X119930000Y-80200000D03*
%TD*%
D12*
%TO.P,C7,2*%
%TO.N,VCC_3V3*%
X139010000Y-65530000D03*
%TO.P,C7,1*%
%TO.N,GND*%
X137450000Y-65530000D03*
%TD*%
%TO.P,C6,2*%
%TO.N,VCC_3V3*%
X139010000Y-63050000D03*
%TO.P,C6,1*%
%TO.N,GND*%
X137450000Y-63050000D03*
%TD*%
D23*
%TO.P,U1,41,GND*%
%TO.N,GND*%
X123000000Y-70800000D03*
X120200000Y-69400000D03*
X123000000Y-68000000D03*
X121600000Y-68000000D03*
X123000000Y-69400000D03*
X120200000Y-68000000D03*
X120200000Y-70800000D03*
X121600000Y-70800000D03*
X121600000Y-69400000D03*
D24*
%TO.P,U1,40,GND*%
X113880000Y-59150000D03*
%TO.P,U1,39,GPIO1/TOUCH1/ADC1_CH0*%
%TO.N,ENA Left Motor*%
X115150000Y-59150000D03*
%TO.P,U1,38,GPIO2/TOUCH2/ADC1_CH1*%
%TO.N,ENB Left Motor*%
X116420000Y-59150000D03*
%TO.P,U1,37,U0TXD/GPIO43/CLK_OUT1*%
%TO.N,unconnected-(U1-U0TXD{slash}GPIO43{slash}CLK_OUT1-Pad37)*%
X117690000Y-59150000D03*
%TO.P,U1,36,U0RXD/GPIO44/CLK_OUT2*%
%TO.N,unconnected-(U1-U0RXD{slash}GPIO44{slash}CLK_OUT2-Pad36)*%
X118960000Y-59150000D03*
%TO.P,U1,35,MTMS/GPIO42*%
%TO.N,unconnected-(U1-MTMS{slash}GPIO42-Pad35)*%
X120230000Y-59150000D03*
%TO.P,U1,34,MTDI/GPIO41/CLK_OUT1*%
%TO.N,unconnected-(U1-MTDI{slash}GPIO41{slash}CLK_OUT1-Pad34)*%
X121500000Y-59150000D03*
%TO.P,U1,33,MTDO/GPIO40/CLK_OUT2*%
%TO.N,unconnected-(U1-MTDO{slash}GPIO40{slash}CLK_OUT2-Pad33)*%
X122770000Y-59150000D03*
%TO.P,U1,32,MTCK/GPIO39/CLK_OUT3/SUBSPICS1*%
%TO.N,unconnected-(U1-MTCK{slash}GPIO39{slash}CLK_OUT3{slash}SUBSPICS1-Pad32)*%
X124040000Y-59150000D03*
%TO.P,U1,31,GPIO38/FSPIWP/SUBSPIWP*%
%TO.N,unconnected-(U1-GPIO38{slash}FSPIWP{slash}SUBSPIWP-Pad31)*%
X125310000Y-59150000D03*
%TO.P,U1,30,SPIDQS/GPIO37/FSPIQ/SUBSPIQ*%
%TO.N,unconnected-(U1-SPIDQS{slash}GPIO37{slash}FSPIQ{slash}SUBSPIQ-Pad30)*%
X126580000Y-59150000D03*
%TO.P,U1,29,SPIIO7/GPIO36/FSPICLK/SUBSPICLK*%
%TO.N,unconnected-(U1-SPIIO7{slash}GPIO36{slash}FSPICLK{slash}SUBSPICLK-Pad29)*%
X127850000Y-59150000D03*
%TO.P,U1,28,SPIIO6/GPIO35/FSPID/SUBSPID*%
%TO.N,unconnected-(U1-SPIIO6{slash}GPIO35{slash}FSPID{slash}SUBSPID-Pad28)*%
X129120000Y-59150000D03*
%TO.P,U1,27,GPIO0/BOOT*%
%TO.N,unconnected-(U1-GPIO0{slash}BOOT-Pad27)*%
X130390000Y-59150000D03*
D25*
%TO.P,U1,26,GPIO45*%
%TO.N,unconnected-(U1-GPIO45-Pad26)*%
X131640000Y-60915000D03*
%TO.P,U1,25,GPIO48/SPICLK_N/SUBSPICLK_N_DIFF*%
%TO.N,unconnected-(U1-GPIO48{slash}SPICLK_N{slash}SUBSPICLK_N_DIFF-Pad25)*%
X131640000Y-62185000D03*
%TO.P,U1,24,GPIO47/SPICLK_P/SUBSPICLK_P_DIFF*%
%TO.N,unconnected-(U1-GPIO47{slash}SPICLK_P{slash}SUBSPICLK_P_DIFF-Pad24)*%
X131640000Y-63455000D03*
%TO.P,U1,23,GPIO21*%
%TO.N,unconnected-(U1-GPIO21-Pad23)*%
X131640000Y-64725000D03*
%TO.P,U1,22,GPIO14/TOUCH14/ADC2_CH3/FSPIWP/FSPIDQS/SUBSPIWP*%
%TO.N,unconnected-(U1-GPIO14{slash}TOUCH14{slash}ADC2_CH3{slash}FSPIWP{slash}FSPIDQS{slash}SUBSPIWP-Pad22)*%
X131640000Y-65995000D03*
%TO.P,U1,21,GPIO13/TOUCH13/ADC2_CH2/FSPIQ/FSPIIO7/SUBSPIQ*%
%TO.N,unconnected-(U1-GPIO13{slash}TOUCH13{slash}ADC2_CH2{slash}FSPIQ{slash}FSPIIO7{slash}SUBSPIQ-Pad21)*%
X131640000Y-67265000D03*
%TO.P,U1,20,GPIO12/TOUCH12/ADC2_CH1/FSPICLK/FSPIIO6/SUBSPICLK*%
%TO.N,unconnected-(U1-GPIO12{slash}TOUCH12{slash}ADC2_CH1{slash}FSPICLK{slash}FSPIIO6{slash}SUBSPICLK-Pad20)*%
X131640000Y-68535000D03*
%TO.P,U1,19,GPIO11/TOUCH11/ADC2_CH0/FSPID/FSPIIO5/SUBSPID*%
%TO.N,unconnected-(U1-GPIO11{slash}TOUCH11{slash}ADC2_CH0{slash}FSPID{slash}FSPIIO5{slash}SUBSPID-Pad19)*%
X131640000Y-69805000D03*
%TO.P,U1,18,GPIO10/TOUCH10/ADC1_CH9/FSPICS0/FSPIIO4/SUBSPICS0*%
%TO.N,unconnected-(U1-GPIO10{slash}TOUCH10{slash}ADC1_CH9{slash}FSPICS0{slash}FSPIIO4{slash}SUBSPICS0-Pad18)*%
X131640000Y-71075000D03*
%TO.P,U1,17,GPIO9/TOUCH9/ADC1_CH8/FSPIHD/SUBSPIHD*%
%TO.N,unconnected-(U1-GPIO9{slash}TOUCH9{slash}ADC1_CH8{slash}FSPIHD{slash}SUBSPIHD-Pad17)*%
X131640000Y-72345000D03*
%TO.P,U1,16,GPIO46*%
%TO.N,unconnected-(U1-GPIO46-Pad16)*%
X131640000Y-73615000D03*
%TO.P,U1,15,GPIO3/TOUCH3/ADC1_CH2*%
%TO.N,unconnected-(U1-GPIO3{slash}TOUCH3{slash}ADC1_CH2-Pad15)*%
X131640000Y-74885000D03*
D24*
%TO.P,U1,14,GPIO20/U1CTS/ADC2_CH9/CLK_OUT1/USB_D+*%
%TO.N,D+*%
X130390000Y-76650000D03*
%TO.P,U1,13,GPIO19/U1RTS/ADC2_CH8/CLK_OUT2/USB_D-*%
%TO.N,D-*%
X129120000Y-76650000D03*
%TO.P,U1,12,GPIO8/TOUCH8/ADC1_CH7/SUBSPICS1*%
%TO.N,unconnected-(U1-GPIO8{slash}TOUCH8{slash}ADC1_CH7{slash}SUBSPICS1-Pad12)*%
X127850000Y-76650000D03*
%TO.P,U1,11,GPIO18/U1RXD/ADC2_CH7/CLK_OUT3*%
%TO.N,Net-(JP1-A)*%
X126580000Y-76650000D03*
%TO.P,U1,10,GPIO17/U1TXD/ADC2_CH6*%
%TO.N,Net-(JP1-B)*%
X125310000Y-76650000D03*
%TO.P,U1,9,GPIO16/U0CTS/ADC2_CH5/XTAL_32K_N*%
%TO.N,unconnected-(U1-GPIO16{slash}U0CTS{slash}ADC2_CH5{slash}XTAL_32K_N-Pad9)*%
X124040000Y-76650000D03*
%TO.P,U1,8,GPIO15/U0RTS/ADC2_CH4/XTAL_32K_P*%
%TO.N,unconnected-(U1-GPIO15{slash}U0RTS{slash}ADC2_CH4{slash}XTAL_32K_P-Pad8)*%
X122770000Y-76650000D03*
%TO.P,U1,7,GPIO7/TOUCH7/ADC1_CH6*%
%TO.N,unconnected-(U1-GPIO7{slash}TOUCH7{slash}ADC1_CH6-Pad7)*%
X121500000Y-76650000D03*
%TO.P,U1,6,GPIO6/TOUCH6/ADC1_CH5*%
%TO.N,unconnected-(U1-GPIO6{slash}TOUCH6{slash}ADC1_CH5-Pad6)*%
X120230000Y-76650000D03*
%TO.P,U1,5,GPIO5/TOUCH5/ADC1_CH4*%
%TO.N,ENA Right Motor*%
X118960000Y-76650000D03*
%TO.P,U1,4,GPIO4/TOUCH4/ADC1_CH3*%
%TO.N,ENB Right Motor*%
X117690000Y-76650000D03*
%TO.P,U1,3,EN*%
%TO.N,/CHIP_PU*%
X116420000Y-76650000D03*
%TO.P,U1,2,3V3*%
%TO.N,/ESP32_3V3*%
X115150000Y-76650000D03*
%TO.P,U1,1,GND*%
%TO.N,GND*%
X113880000Y-76650000D03*
%TD*%
D22*
%TO.P,R9,1*%
%TO.N,Net-(A3908EEETR-T3-VSET)*%
X134570000Y-65500000D03*
%TO.P,R9,2*%
%TO.N,GND*%
X135930000Y-65500000D03*
%TD*%
D26*
%TO.P,R8,1*%
%TO.N,Net-(A3908EEETR-T3-VREF)*%
X136320000Y-67250000D03*
%TO.P,R8,2*%
%TO.N,Net-(A3908EEETR-T3-VSET)*%
X134680000Y-67250000D03*
%TD*%
D22*
%TO.P,R5,1*%
%TO.N,Net-(A3908EEETR-T1-VSET)*%
X138250000Y-79000000D03*
%TO.P,R5,2*%
%TO.N,GND*%
X139610000Y-79000000D03*
%TD*%
D27*
%TO.P,R4,1*%
%TO.N,Net-(A3908EEETR-T1-VREF)*%
X138250000Y-82020000D03*
%TO.P,R4,2*%
%TO.N,Net-(A3908EEETR-T1-VSET)*%
X138250000Y-80380000D03*
%TD*%
D21*
%TO.P,JP1,1,A*%
%TO.N,Net-(JP1-A)*%
X126650000Y-79200000D03*
%TO.P,JP1,2,B*%
%TO.N,Net-(JP1-B)*%
X125350000Y-79200000D03*
%TD*%
D28*
%TO.P,A3908EEETR-T3,1,OUTB*%
%TO.N,Net-(A3908EEETR-T3-OUTB)*%
X135000000Y-72470000D03*
%TO.P,A3908EEETR-T3,2,GND*%
%TO.N,GND*%
X135500000Y-72470000D03*
%TO.P,A3908EEETR-T3,3,VDD*%
%TO.N,VCC_3V3*%
X136000000Y-72470000D03*
%TO.P,A3908EEETR-T3,4,OUTA*%
%TO.N,Net-(A3908EEETR-T3-OUTA)*%
X136500000Y-72470000D03*
%TO.P,A3908EEETR-T3,5,IN_2*%
%TO.N,ENA Left Motor*%
X136500000Y-70000000D03*
%TO.P,A3908EEETR-T3,6,IN_1*%
%TO.N,ENB Left Motor*%
X136000000Y-70000000D03*
%TO.P,A3908EEETR-T3,7,VREF*%
%TO.N,Net-(A3908EEETR-T3-VREF)*%
X135500000Y-70000000D03*
%TO.P,A3908EEETR-T3,8,VSET*%
%TO.N,Net-(A3908EEETR-T3-VSET)*%
X135000000Y-70000000D03*
D29*
%TO.P,A3908EEETR-T3,9,EP*%
%TO.N,GND*%
X135750000Y-71235000D03*
%TD*%
D28*
%TO.P,A3908EEETR-T1,1,OUTB*%
%TO.N,Net-(A3908EEETR-T1-OUTB)*%
X136500000Y-76530000D03*
%TO.P,A3908EEETR-T1,2,GND*%
%TO.N,GND*%
X136000000Y-76530000D03*
%TO.P,A3908EEETR-T1,3,VDD*%
%TO.N,VCC_3V3*%
X135500000Y-76530000D03*
%TO.P,A3908EEETR-T1,4,OUTA*%
%TO.N,Net-(A3908EEETR-T1-OUTA)*%
X135000000Y-76530000D03*
%TO.P,A3908EEETR-T1,5,IN_2*%
%TO.N,ENA Right Motor*%
X135000000Y-79000000D03*
%TO.P,A3908EEETR-T1,6,IN_1*%
%TO.N,ENB Right Motor*%
X135500000Y-79000000D03*
%TO.P,A3908EEETR-T1,7,VREF*%
%TO.N,Net-(A3908EEETR-T1-VREF)*%
X136000000Y-79000000D03*
%TO.P,A3908EEETR-T1,8,VSET*%
%TO.N,Net-(A3908EEETR-T1-VSET)*%
X136500000Y-79000000D03*
D29*
%TO.P,A3908EEETR-T1,9,EP*%
%TO.N,GND*%
X135750000Y-77765000D03*
%TD*%
D30*
%TO.N,VCC_3V3*%
X134550000Y-59700000D03*
X112000000Y-82500000D03*
%TO.N,GND*%
X151250000Y-78200000D03*
%TO.N,VCC_3V3*%
X143450000Y-69200000D03*
X137450000Y-75000000D03*
%TO.N,GND*%
X141850000Y-67800000D03*
%TO.N,D-*%
X150450000Y-59100000D03*
%TO.N,D+*%
X150250000Y-62000000D03*
%TO.N,ENB Left Motor*%
X126450000Y-62800000D03*
X137850000Y-67400000D03*
%TO.N,VCC_3V3*%
X133450000Y-73200000D03*
%TO.N,ENA Left Motor*%
X123650000Y-63800000D03*
X139350000Y-69000000D03*
%TO.N,Net-(A3908EEETR-T3-OUTA)*%
X134050000Y-75200000D03*
X142050000Y-75600000D03*
%TO.N,Net-(A3908EEETR-T3-OUTB)*%
X133450000Y-70600000D03*
X143850000Y-74400000D03*
%TO.N,ENB Right Motor*%
X134450000Y-81000000D03*
X117650000Y-75000000D03*
%TO.N,ENA Right Motor*%
X122450000Y-74200000D03*
X131650000Y-79800000D03*
%TO.N,GND*%
X108800000Y-81000000D03*
X118000000Y-69500000D03*
X137985000Y-71235000D03*
X135450000Y-62000000D03*
%TO.N,VCC_3V3*%
X148050000Y-59200000D03*
%TO.N,D-*%
X125850000Y-74600000D03*
%TO.N,D+*%
X127450000Y-73200000D03*
%TO.N,GND*%
X140250000Y-77250000D03*
X122250000Y-78800000D03*
%TD*%
D31*
%TO.N,VCC_3V3*%
X139040000Y-59200000D02*
X139040000Y-58390000D01*
X139040000Y-58390000D02*
X138550000Y-57900000D01*
X138550000Y-57900000D02*
X136350000Y-57900000D01*
X136350000Y-57900000D02*
X134550000Y-59700000D01*
X139040000Y-59400000D02*
X140250000Y-59400000D01*
X139010000Y-63050000D02*
X140250000Y-61810000D01*
X140250000Y-61810000D02*
X140250000Y-59400000D01*
%TO.N,GND*%
X135930000Y-65500000D02*
X137420000Y-65500000D01*
X137420000Y-65500000D02*
X137450000Y-65530000D01*
D32*
%TO.N,/CHIP_PU*%
X118500000Y-79300000D02*
X118500000Y-78600300D01*
X118500000Y-78600300D02*
X118499700Y-78600000D01*
X118570000Y-80250000D02*
X118500000Y-80180000D01*
X118500000Y-80180000D02*
X118500000Y-79300000D01*
X118500000Y-79300000D02*
X117800000Y-79300000D01*
X117800000Y-79300000D02*
X116420000Y-77920000D01*
X116420000Y-77920000D02*
X116420000Y-76650000D01*
D31*
%TO.N,VCC_3V3*%
X139010000Y-64200000D02*
X139010000Y-65530000D01*
X139010000Y-63050000D02*
X139010000Y-64200000D01*
%TO.N,Net-(A3908EEETR-T1-OUTA)*%
X140400000Y-71400000D02*
X139450000Y-71400000D01*
X139450000Y-71400000D02*
X135000000Y-75850000D01*
X135000000Y-75850000D02*
X135000000Y-76530000D01*
%TO.N,ENA Left Motor*%
X138350000Y-70000000D02*
X136500000Y-70000000D01*
X139350000Y-69000000D02*
X138350000Y-70000000D01*
%TO.N,D-*%
X148600000Y-60950000D02*
X148600000Y-72440686D01*
X150450000Y-59100000D02*
X148600000Y-60950000D01*
X148600000Y-72440686D02*
X149253564Y-73094250D01*
X149253564Y-73094250D02*
X149500000Y-73094250D01*
%TO.N,Net-(D1-A)*%
X137460000Y-59400000D02*
X137460000Y-59472500D01*
X137460000Y-59472500D02*
X139187500Y-61200000D01*
%TO.N,VCC_3V3*%
X144100000Y-59400000D02*
X144250000Y-59250000D01*
%TO.N,GND*%
X146055000Y-73795000D02*
X144875000Y-72615000D01*
X144875000Y-72615000D02*
X144875000Y-71200000D01*
X150075000Y-75550000D02*
X147810000Y-75550000D01*
X147810000Y-75550000D02*
X146055000Y-73795000D01*
D33*
%TO.N,3.7_UNREG*%
X147615000Y-73795000D02*
X146550000Y-72730000D01*
X146550000Y-72730000D02*
X146550000Y-65550000D01*
X149950000Y-73750000D02*
X147660000Y-73750000D01*
X147660000Y-73750000D02*
X147615000Y-73795000D01*
D31*
%TO.N,D+*%
X150250000Y-66775000D02*
X149000000Y-68025000D01*
X150250000Y-62000000D02*
X150250000Y-66775000D01*
X149000000Y-68025000D02*
X149000000Y-72275000D01*
X149000000Y-72275000D02*
X149169250Y-72444250D01*
X149169250Y-72444250D02*
X149500000Y-72444250D01*
%TO.N,GND*%
X149950000Y-71150000D02*
X149950000Y-69475000D01*
X149950000Y-69475000D02*
X150075000Y-69350000D01*
%TO.N,D+*%
X127450000Y-73200000D02*
X130440000Y-76190000D01*
%TO.N,ENA Left Motor*%
X123650000Y-63800000D02*
X123450000Y-63800000D01*
X123450000Y-63800000D02*
X121050000Y-61400000D01*
X121050000Y-61400000D02*
X116920000Y-61400000D01*
X116920000Y-61400000D02*
X115150000Y-59630000D01*
X115150000Y-59630000D02*
X115150000Y-59150000D01*
D32*
%TO.N,/ESP32_3V3*%
X115150000Y-76650000D02*
X115150000Y-77900000D01*
X116160000Y-78910000D02*
X116160000Y-80310000D01*
X119930000Y-80720000D02*
X119930000Y-79800000D01*
X115150000Y-77900000D02*
X116160000Y-78910000D01*
X116160000Y-80310000D02*
X117050000Y-81200000D01*
X117050000Y-81200000D02*
X119450000Y-81200000D01*
X119450000Y-81200000D02*
X119930000Y-80720000D01*
D31*
%TO.N,Net-(A3908EEETR-T1-VSET)*%
X138250000Y-79000000D02*
X138250000Y-80380000D01*
X136500000Y-79000000D02*
X138250000Y-79000000D01*
%TO.N,VCC_3V3*%
X143450000Y-69200000D02*
X141250000Y-69200000D01*
X139050000Y-67000000D02*
X139050000Y-65570000D01*
X141250000Y-69200000D02*
X139050000Y-67000000D01*
X139050000Y-65570000D02*
X139010000Y-65530000D01*
X143450000Y-68000000D02*
X143450000Y-69200000D01*
X144230000Y-67220000D02*
X143450000Y-68000000D01*
X144230000Y-67220000D02*
X144230000Y-66063900D01*
D32*
%TO.N,Net-(A3908EEETR-T3-OUTB)*%
X143850000Y-74400000D02*
X145300000Y-75850000D01*
X145300000Y-75850000D02*
X145300000Y-77400000D01*
D31*
%TO.N,Net-(A3908EEETR-T1-VREF)*%
X136000000Y-79000000D02*
X136000000Y-79770000D01*
X136000000Y-79770000D02*
X138250000Y-82020000D01*
%TO.N,GND*%
X141850000Y-67800000D02*
X141918600Y-67731400D01*
X141918600Y-67731400D02*
X141918600Y-66063900D01*
D33*
%TO.N,VCC_3V3*%
X148013900Y-59236100D02*
X148050000Y-59200000D01*
X144250000Y-59236100D02*
X148013900Y-59236100D01*
D32*
%TO.N,GND*%
X122250000Y-78800000D02*
X122050000Y-79000000D01*
X122050000Y-79000000D02*
X120049400Y-79000000D01*
D31*
%TO.N,ENB Left Motor*%
X124250000Y-60600000D02*
X117250000Y-60600000D01*
X126450000Y-62800000D02*
X124250000Y-60600000D01*
X117250000Y-60600000D02*
X116420000Y-59770000D01*
X116420000Y-59770000D02*
X116420000Y-59150000D01*
X136000000Y-69250000D02*
X137850000Y-67400000D01*
X136000000Y-70000000D02*
X136000000Y-69250000D01*
%TO.N,VCC_3V3*%
X133450000Y-73200000D02*
X135638910Y-73200000D01*
X135638910Y-73200000D02*
X136000000Y-72838910D01*
X136000000Y-72838910D02*
X136000000Y-72470000D01*
D32*
%TO.N,Net-(A3908EEETR-T3-OUTB)*%
X133450000Y-70600000D02*
X133450000Y-70920000D01*
X133450000Y-70920000D02*
X135000000Y-72470000D01*
%TO.N,Net-(A3908EEETR-T3-OUTA)*%
X134050000Y-75200000D02*
X134239950Y-75200000D01*
X134239950Y-75200000D02*
X136500000Y-72939950D01*
X136500000Y-72939950D02*
X136500000Y-72470000D01*
X144000000Y-77400000D02*
X143850000Y-77400000D01*
X143850000Y-77400000D02*
X142050000Y-75600000D01*
D31*
%TO.N,VCC_3V3*%
X135500000Y-76025000D02*
X135500000Y-76530000D01*
X137450000Y-75000000D02*
X136525000Y-75000000D01*
X136525000Y-75000000D02*
X135500000Y-76025000D01*
%TO.N,Net-(A3908EEETR-T1-OUTB)*%
X141650000Y-71600000D02*
X141650000Y-72600000D01*
X137720000Y-76530000D02*
X136500000Y-76530000D01*
X141650000Y-72600000D02*
X137720000Y-76530000D01*
D32*
%TO.N,ENB Right Motor*%
X134450000Y-81000000D02*
X135500000Y-79950000D01*
X135500000Y-79950000D02*
X135500000Y-79000000D01*
D31*
%TO.N,ENA Right Motor*%
X135000000Y-79000000D02*
X132450000Y-79000000D01*
X132450000Y-79000000D02*
X131650000Y-79800000D01*
D32*
%TO.N,ENB Right Motor*%
X117690000Y-75040000D02*
X117650000Y-75000000D01*
X117690000Y-76650000D02*
X117690000Y-75040000D01*
D31*
%TO.N,ENA Right Motor*%
X118960000Y-76170000D02*
X118960000Y-76650000D01*
X122450000Y-74200000D02*
X120930000Y-74200000D01*
X120930000Y-74200000D02*
X118960000Y-76170000D01*
%TO.N,VCC_3V3*%
X112000000Y-82500000D02*
X114640000Y-79860000D01*
X114640000Y-79860000D02*
X114640000Y-79400000D01*
D32*
%TO.N,GND*%
X108725300Y-79000000D02*
X108725300Y-80925300D01*
X108725300Y-80925300D02*
X108800000Y-81000000D01*
D31*
X113880000Y-76650000D02*
X113880000Y-78400000D01*
X113880000Y-78400000D02*
X113280000Y-79000000D01*
%TO.N,Net-(A3908EEETR-T3-VSET)*%
X134680000Y-67000000D02*
X134680000Y-69680000D01*
X134680000Y-69680000D02*
X135000000Y-70000000D01*
D32*
X134570000Y-65500000D02*
X134570000Y-67110000D01*
X134820000Y-67110000D02*
X134680000Y-67250000D01*
%TO.N,Net-(A3908EEETR-T3-VREF)*%
X136320000Y-67250000D02*
X135500000Y-68070000D01*
X135500000Y-68070000D02*
X135500000Y-70000000D01*
D31*
%TO.N,D-*%
X125850000Y-74600000D02*
X127550000Y-74600000D01*
X127550000Y-74600000D02*
X129120000Y-76170000D01*
X129120000Y-76170000D02*
X129120000Y-76650000D01*
%TO.N,GND*%
X135750000Y-71235000D02*
X137985000Y-71235000D01*
X135500000Y-72470000D02*
X135500000Y-71485000D01*
X135500000Y-71485000D02*
X135750000Y-71235000D01*
D32*
%TO.N,VCC_3V3*%
X112000000Y-82500000D02*
X110274700Y-80774700D01*
X110274700Y-80774700D02*
X110274700Y-79000000D01*
D31*
%TO.N,GND*%
X135750000Y-77765000D02*
X139735000Y-77765000D01*
X139735000Y-77765000D02*
X140250000Y-77250000D01*
X140250000Y-77250000D02*
X139610000Y-77890000D01*
X139610000Y-77890000D02*
X139610000Y-79000000D01*
X136000000Y-77765000D02*
X136000000Y-76530000D01*
D32*
%TO.N,VCC_3V3*%
X110274700Y-79000000D02*
X111720000Y-79000000D01*
%TO.N,Net-(JP1-A)*%
X126580000Y-76650000D02*
X126580000Y-78580000D01*
X126580000Y-78580000D02*
X127000000Y-79000000D01*
%TO.N,Net-(JP1-B)*%
X125310000Y-76650000D02*
X125310000Y-78610000D01*
X125310000Y-78610000D02*
X125700000Y-79000000D01*
%TD*%
%TA.AperFunction,Conductor*%
%TO.N,GND*%
G36*
X136656024Y-60121369D02*
G01*
X136721932Y-60144549D01*
X136723813Y-60145930D01*
X136743796Y-60160889D01*
X136880794Y-60211988D01*
X136880797Y-60211988D01*
X136880799Y-60211989D01*
X136941362Y-60218500D01*
X137258734Y-60218500D01*
X137325773Y-60238185D01*
X137346415Y-60254819D01*
X138125760Y-61034165D01*
X138159245Y-61095488D01*
X138162068Y-61120220D01*
X138176567Y-62225809D01*
X138157764Y-62293101D01*
X138151847Y-62301743D01*
X138124110Y-62338796D01*
X138073011Y-62475794D01*
X138066853Y-62533075D01*
X138066500Y-62536362D01*
X138066500Y-63563638D01*
X138066852Y-63566918D01*
X138066853Y-63566924D01*
X138073011Y-63624205D01*
X138124110Y-63761203D01*
X138173805Y-63827588D01*
X138198222Y-63893052D01*
X138198527Y-63900272D01*
X138208531Y-64663110D01*
X138189728Y-64730402D01*
X138183810Y-64739045D01*
X138124110Y-64818796D01*
X138073011Y-64955794D01*
X138069725Y-64986362D01*
X138066500Y-65016362D01*
X138066500Y-66043638D01*
X138066852Y-66046918D01*
X138066853Y-66046924D01*
X138073011Y-66104201D01*
X138083628Y-66132666D01*
X138088612Y-66202358D01*
X138055128Y-66263681D01*
X137993805Y-66297166D01*
X137967446Y-66300000D01*
X136892123Y-66300000D01*
X136848789Y-66292182D01*
X136824201Y-66283011D01*
X136766924Y-66276853D01*
X136766918Y-66276852D01*
X136763638Y-66276500D01*
X135876362Y-66276500D01*
X135873082Y-66276852D01*
X135873075Y-66276853D01*
X135815798Y-66283011D01*
X135679101Y-66333997D01*
X135609409Y-66338981D01*
X135548086Y-66305496D01*
X135514601Y-66244173D01*
X135519584Y-66174484D01*
X135556989Y-66074201D01*
X135563500Y-66013638D01*
X135563500Y-64986362D01*
X135556989Y-64925799D01*
X135556988Y-64925797D01*
X135556988Y-64925794D01*
X135505889Y-64788796D01*
X135418261Y-64671738D01*
X135301203Y-64584110D01*
X135164205Y-64533011D01*
X135106924Y-64526853D01*
X135106918Y-64526852D01*
X135103638Y-64526500D01*
X134179383Y-64526500D01*
X134112344Y-64506815D01*
X134066589Y-64454011D01*
X134055428Y-64399150D01*
X134068912Y-63900272D01*
X134146739Y-61020649D01*
X134168228Y-60954167D01*
X134222249Y-60909855D01*
X134270694Y-60900000D01*
X136250000Y-60900000D01*
X136250000Y-60230698D01*
X136269685Y-60163659D01*
X136322489Y-60117904D01*
X136380515Y-60106869D01*
X136656024Y-60121369D01*
G37*
%TD.AperFunction*%
%TD*%
%TA.AperFunction,Conductor*%
%TO.N,GND*%
G36*
X114134539Y-58519685D02*
G01*
X114180294Y-58572489D01*
X114191500Y-58623999D01*
X114191500Y-59948638D01*
X114191852Y-59951918D01*
X114191853Y-59951924D01*
X114198011Y-60009205D01*
X114249110Y-60146203D01*
X114336738Y-60263261D01*
X114453796Y-60350889D01*
X114590794Y-60401988D01*
X114590797Y-60401988D01*
X114590799Y-60401989D01*
X114651362Y-60408500D01*
X114981234Y-60408500D01*
X115048273Y-60428185D01*
X115068915Y-60444819D01*
X116412912Y-61788817D01*
X116425956Y-61805098D01*
X116427999Y-61807016D01*
X116428000Y-61807018D01*
X116477685Y-61853675D01*
X116480449Y-61856354D01*
X116500230Y-61876135D01*
X116503306Y-61878521D01*
X116503503Y-61878674D01*
X116512372Y-61886249D01*
X116544679Y-61916586D01*
X116562564Y-61926418D01*
X116578825Y-61937099D01*
X116594959Y-61949614D01*
X116635625Y-61967210D01*
X116646112Y-61972348D01*
X116684940Y-61993695D01*
X116704708Y-61998770D01*
X116723119Y-62005073D01*
X116741855Y-62013181D01*
X116785626Y-62020113D01*
X116797041Y-62022477D01*
X116839970Y-62033500D01*
X116860384Y-62033500D01*
X116879783Y-62035027D01*
X116899943Y-62038220D01*
X116944056Y-62034050D01*
X116955726Y-62033500D01*
X117218999Y-62033500D01*
X117286038Y-62053185D01*
X117292556Y-62057673D01*
X123949557Y-66962832D01*
X123991850Y-67018446D01*
X124000000Y-67062658D01*
X124000000Y-71904410D01*
X123980315Y-71971449D01*
X123927511Y-72017204D01*
X123907557Y-72024327D01*
X114500000Y-74499999D01*
X114499999Y-74500000D01*
X114500000Y-75352452D01*
X114480315Y-75419491D01*
X114450311Y-75451719D01*
X114336737Y-75536739D01*
X114249110Y-75653796D01*
X114198011Y-75790794D01*
X114191853Y-75848075D01*
X114191500Y-75851362D01*
X114191500Y-75854671D01*
X114191500Y-77376000D01*
X114171815Y-77443039D01*
X114119011Y-77488794D01*
X114067500Y-77500000D01*
X113624000Y-77500000D01*
X113556961Y-77480315D01*
X113511206Y-77427511D01*
X113500000Y-77376000D01*
X113500000Y-76000000D01*
X113499968Y-75998372D01*
X113262180Y-66962831D01*
X113250093Y-66503536D01*
X113250110Y-66496450D01*
X113496246Y-58620126D01*
X113518014Y-58553735D01*
X113572222Y-58509652D01*
X113620185Y-58500000D01*
X114067500Y-58500000D01*
X114134539Y-58519685D01*
G37*
%TD.AperFunction*%
%TD*%
%TA.AperFunction,Conductor*%
%TO.N,GND*%
G36*
X153394324Y-67719685D02*
G01*
X153440079Y-67772489D01*
X153451278Y-67822708D01*
X153549615Y-77263070D01*
X153530630Y-77330311D01*
X153530116Y-77331122D01*
X151359305Y-80728912D01*
X151306624Y-80774808D01*
X151237492Y-80784937D01*
X151173859Y-80756082D01*
X151147702Y-80724632D01*
X149166891Y-77328955D01*
X149150000Y-77266475D01*
X149150000Y-74632500D01*
X149169685Y-74565461D01*
X149222489Y-74519706D01*
X149274000Y-74508500D01*
X149990582Y-74508500D01*
X149994180Y-74508500D01*
X150059731Y-74500838D01*
X150074128Y-74500000D01*
X150950000Y-74500000D01*
X150952592Y-74398882D01*
X150973988Y-74332372D01*
X150978186Y-74327992D01*
X150977576Y-74327535D01*
X151017608Y-74274058D01*
X151075889Y-74196204D01*
X151126989Y-74059201D01*
X151133500Y-73998638D01*
X151133500Y-73501362D01*
X151133145Y-73498059D01*
X151126716Y-73438256D01*
X151126716Y-73411744D01*
X151133145Y-73351940D01*
X151133144Y-73351940D01*
X151133500Y-73348638D01*
X151133500Y-72851362D01*
X151126989Y-72790799D01*
X151126716Y-72788256D01*
X151126716Y-72761744D01*
X151133145Y-72701940D01*
X151133144Y-72701940D01*
X151133500Y-72698638D01*
X151133500Y-72201362D01*
X151126989Y-72140799D01*
X151126716Y-72138256D01*
X151126716Y-72111744D01*
X151133145Y-72051940D01*
X151133144Y-72051940D01*
X151133500Y-72048638D01*
X151133500Y-71551362D01*
X151126989Y-71490799D01*
X151126988Y-71490797D01*
X151126988Y-71490794D01*
X151075890Y-71353798D01*
X151075889Y-71353796D01*
X151057963Y-71329850D01*
X151033547Y-71264387D01*
X151033272Y-71252377D01*
X151050000Y-70600000D01*
X149757500Y-70600000D01*
X149690461Y-70580315D01*
X149644706Y-70527511D01*
X149633500Y-70476000D01*
X149633500Y-68338766D01*
X149653185Y-68271727D01*
X149669819Y-68251085D01*
X150184586Y-67736319D01*
X150245909Y-67702834D01*
X150272267Y-67700000D01*
X153327285Y-67700000D01*
X153394324Y-67719685D01*
G37*
%TD.AperFunction*%
%TD*%
M02*
